SplineFontDB: 3.2
FontName: RobotoLegacy-Black
FullName: Roboto Legacy Black
FamilyName: Roboto Legacy Black
Weight: Black
Copyright: Font data copyright Google 2011
Version: 1.00000; 2011
ItalicAngle: 0
UnderlinePosition: -200
UnderlineWidth: 100
Ascent: 1536
Descent: 512
InvalidEm: 0
sfntRevision: 0x00010000
LayerCount: 2
Layer: 0 1 "Back" 1
Layer: 1 1 "Fore" 0
XUID: [1021 474 -1613799265 19190]
StyleMap: 0x0020
FSType: 4
OS2Version: 3
OS2_WeightWidthSlopeOnly: 0
OS2_UseTypoMetrics: 0
CreationTime: 1221222574
ModificationTime: 1744076513
PfmFamily: 81
TTFWeight: 900
TTFWidth: 5
LineGap: 0
VLineGap: 0
Panose: 0 0 0 0 0 0 0 0 0 0
OS2TypoAscent: 1536
OS2TypoAOffset: 0
OS2TypoDescent: -512
OS2TypoDOffset: 0
OS2TypoLinegap: 102
OS2WinAscent: 1946
OS2WinAOffset: 0
OS2WinDescent: 512
OS2WinDOffset: 0
HheadAscent: 1900
HheadAOffset: 0
HheadDescent: -500
HheadDOffset: 0
OS2SubXSize: 1434
OS2SubYSize: 1331
OS2SubXOff: 0
OS2SubYOff: 287
OS2SupXSize: 1434
OS2SupYSize: 1331
OS2SupXOff: 0
OS2SupYOff: 977
OS2StrikeYSize: 102
OS2StrikeYPos: 512
OS2CapHeight: 1456
OS2XHeight: 1082
OS2Vendor: 'pyrs'
OS2CodePages: 2000019f.4f010000
OS2UnicodeRanges: e00002ef.5000205b.00000020.00000000
Lookup: 1 0 0 "'smcp' Lowercase to Small Capitals lookup 0" { "'smcp' Lowercase to Small Capitals lookup 0 subtable"  } ['smcp' ('DFLT' <'dflt' > ) ]
Lookup: 4 0 1 "'liga' Standard Ligatures lookup 1" { "'liga' Standard Ligatures lookup 1 subtable"  } ['liga' ('DFLT' <'dflt' > ) ]
Lookup: 258 0 0 "'kern' Horizontal Kerning lookup 0" { "'kern' Horizontal Kerning lookup 0 per glyph data 0"  "'kern' Horizontal Kerning lookup 0 per glyph data 1"  "'kern' Horizontal Kerning lookup 0 per glyph data 2"  "'kern' Horizontal Kerning lookup 0 kerning class 3"  } ['kern' ('DFLT' <'dflt' > ) ]
MarkAttachClasses: 1
DEI: 91125
KernClass2: 32+ 29 "'kern' Horizontal Kerning lookup 0 kerning class 3"

StartChar: exclam
Encoding: 33 33 4
Width: 565
GlyphClass: 1
Flags: W
LayerCount: 2
Fore
SplineSet
454 516 m 1,0,-1
 115 516 l 1,1,-1
 115 1456 l 1,2,-1
 454 1456 l 1,3,-1
 454 516 l 1,0,-1
454 0 m 1,4,-1
 115 0 l 1,5,-1
 115 283 l 1,6,-1
 454 283 l 1,7,-1
 454 0 l 1,4,-1
EndSplineSet
Validated: 1
EndChar

StartChar: quotedbl
Encoding: 34 34 5
Width: 881
GlyphClass: 1
Flags: W
LayerCount: 2
Fore
SplineSet
395 1181 m 1,0,-1
 293 932 l 1,1,-1
 149 932 l 1,2,-1
 149 1456 l 1,3,-1
 395 1456 l 1,4,-1
 395 1181 l 1,0,-1
751 1181 m 1,5,-1
 649 932 l 1,6,-1
 506 932 l 1,7,-1
 506 1456 l 1,8,-1
 751 1456 l 1,9,-1
 751 1181 l 1,5,-1
EndSplineSet
Validated: 1
EndChar

StartChar: numbersign
Encoding: 35 35 6
Width: 1190
GlyphClass: 1
Flags: W
LayerCount: 2
Fore
SplineSet
619 410 m 1,0,-1
 458 410 l 1,1,-1
 391 0 l 1,2,-1
 192 0 l 1,3,-1
 259 410 l 1,4,-1
 37 410 l 1,5,-1
 37 593 l 1,6,-1
 289 593 l 1,7,-1
 333 857 l 1,8,-1
 112 857 l 1,9,-1
 112 1040 l 1,10,-1
 363 1040 l 1,11,-1
 432 1456 l 1,12,-1
 630 1456 l 1,13,-1
 562 1040 l 1,14,-1
 723 1040 l 1,15,-1
 792 1456 l 1,16,-1
 991 1456 l 1,17,-1
 922 1040 l 1,18,-1
 1153 1040 l 1,19,-1
 1153 857 l 1,20,-1
 892 857 l 1,21,-1
 848 593 l 1,22,-1
 1077 593 l 1,23,-1
 1077 410 l 1,24,-1
 818 410 l 1,25,-1
 751 0 l 1,26,-1
 552 0 l 1,27,-1
 619 410 l 1,0,-1
488 593 m 1,28,-1
 649 593 l 1,29,-1
 693 857 l 1,30,-1
 532 857 l 1,31,-1
 488 593 l 1,28,-1
EndSplineSet
Validated: 1
EndChar

StartChar: dollar
Encoding: 36 36 7
Width: 1227
GlyphClass: 1
Flags: W
LayerCount: 2
Fore
SplineSet
792 386 m 0,0,1
 792 466 792 466 753.5 507.5 c 128,-1,2
 715 549 715 549 607 594 c 1,3,4
 368 678 368 678 256.5 778 c 128,-1,5
 145 878 145 878 145 1068 c 0,6,7
 145 1239 145 1239 261 1348.5 c 128,-1,8
 377 1458 377 1458 575 1474 c 1,9,-1
 575 1685 l 1,10,-1
 733 1685 l 1,11,-1
 733 1471 l 1,12,13
 920 1446 920 1446 1027 1330 c 128,-1,14
 1134 1214 1134 1214 1131 1031 c 1,15,-1
 1129 1026 l 1,16,-1
 799 1026 l 1,17,18
 799 1126 799 1126 755.5 1174 c 128,-1,19
 712 1222 712 1222 633 1222 c 0,20,21
 551 1222 551 1222 517 1179.5 c 128,-1,22
 483 1137 483 1137 483 1066 c 0,23,24
 483 999 483 999 519.5 959.5 c 128,-1,25
 556 920 556 920 667 867 c 1,26,27
 898 793 898 793 1013.5 685 c 128,-1,28
 1129 577 1129 577 1129 388 c 0,29,30
 1129 213 1129 213 1018 107 c 128,-1,31
 907 1 907 1 714 -17 c 1,32,-1
 714 -218 l 1,33,-1
 555 -218 l 1,34,-1
 555 -17 l 1,35,36
 353 0 353 0 223 111.5 c 128,-1,37
 93 223 93 223 98 441 c 1,38,-1
 100 447 l 1,39,-1
 429 447 l 1,40,41
 429 332 429 332 484.5 283 c 128,-1,42
 540 234 540 234 634 234 c 0,43,44
 717 234 717 234 754.5 275.5 c 128,-1,45
 792 317 792 317 792 386 c 0,0,1
EndSplineSet
Validated: 33
EndChar

StartChar: percent
Encoding: 37 37 8
Width: 1521
GlyphClass: 1
Flags: W
LayerCount: 2
Fore
SplineSet
91 1176 m 2,0,1
 91 1306 91 1306 175 1391.5 c 128,-1,2
 259 1477 259 1477 414 1477 c 0,3,4
 571 1477 571 1477 655 1391.5 c 128,-1,5
 739 1306 739 1306 739 1176 c 2,6,-1
 739 1099 l 2,7,8
 739 969 739 969 655 884.5 c 128,-1,9
 571 800 571 800 416 800 c 0,10,11
 260 800 260 800 175.5 885 c 128,-1,12
 91 970 91 970 91 1099 c 2,13,-1
 91 1176 l 2,0,1
307 1099 m 2,14,15
 307 1049 307 1049 335 1015.5 c 128,-1,16
 363 982 363 982 416 982 c 0,17,18
 467 982 467 982 494.5 1015.5 c 128,-1,19
 522 1049 522 1049 522 1099 c 2,20,-1
 522 1176 l 2,21,22
 522 1226 522 1226 494 1260.5 c 128,-1,23
 466 1295 466 1295 414 1295 c 0,24,25
 363 1295 363 1295 335 1260.5 c 128,-1,26
 307 1226 307 1226 307 1176 c 2,27,-1
 307 1099 l 2,14,15
782 357 m 2,28,29
 782 486 782 486 867 571.5 c 128,-1,30
 952 657 952 657 1107 657 c 0,31,32
 1264 657 1264 657 1347.5 572 c 128,-1,33
 1431 487 1431 487 1431 357 c 2,34,-1
 1431 280 l 2,35,36
 1431 149 1431 149 1347.5 64.5 c 128,-1,37
 1264 -20 1264 -20 1109 -20 c 0,38,39
 953 -20 953 -20 867.5 65 c 128,-1,40
 782 150 782 150 782 280 c 2,41,-1
 782 357 l 2,28,29
999 280 m 2,42,43
 999 232 999 232 1031 197 c 128,-1,44
 1063 162 1063 162 1109 162 c 0,45,46
 1171 162 1171 162 1193 193 c 128,-1,47
 1215 224 1215 224 1215 280 c 2,48,-1
 1215 357 l 2,49,50
 1215 406 1215 406 1186.5 440.5 c 128,-1,51
 1158 475 1158 475 1107 475 c 0,52,53
 1055 475 1055 475 1027 440.5 c 128,-1,54
 999 406 999 406 999 357 c 2,55,-1
 999 280 l 2,42,43
462 109 m 1,56,-1
 305 188 l 1,57,-1
 1016 1326 l 1,58,-1
 1173 1247 l 1,59,-1
 462 109 l 1,56,-1
EndSplineSet
Validated: 1
EndChar

StartChar: ampersand
Encoding: 38 38 9
Width: 1380
GlyphClass: 1
Flags: W
LayerCount: 2
Fore
SplineSet
308 777 m 1,0,1
 247 863 247 863 217.5 936 c 128,-1,2
 188 1009 188 1009 188 1084 c 0,3,4
 188 1273 188 1273 298 1375 c 128,-1,5
 408 1477 408 1477 600 1477 c 0,6,7
 759 1477 759 1477 858.5 1375 c 128,-1,8
 958 1273 958 1273 958 1127 c 0,9,10
 958 1020 958 1020 921.5 942.5 c 128,-1,11
 885 865 885 865 811 805 c 1,12,-1
 711 735 l 1,13,-1
 946 464 l 1,14,15
 980 521 980 521 999.5 588 c 128,-1,16
 1019 655 1019 655 1019 728 c 1,17,-1
 1279 728 l 1,18,19
 1279 581 1279 581 1245 459.5 c 128,-1,20
 1211 338 1211 338 1136 245 c 1,21,-1
 1345 5 l 1,22,-1
 1343 0 l 1,23,-1
 974 0 l 1,24,-1
 900 84 l 1,25,26
 813 30 813 30 726.5 4.5 c 128,-1,27
 640 -21 640 -21 536 -21 c 0,28,29
 318 -21 318 -21 189 93 c 128,-1,30
 60 207 60 207 60 391 c 0,31,32
 60 507 60 507 116.5 588.5 c 128,-1,33
 173 670 173 670 290 765 c 1,34,-1
 308 777 l 1,0,1
559 239 m 0,35,36
 602 239 602 239 646 248 c 128,-1,37
 690 257 690 257 731 276 c 1,38,-1
 474 568 l 1,39,40
 433 532 433 532 416 495 c 128,-1,41
 399 458 399 458 399 414 c 0,42,43
 399 337 399 337 445.5 288 c 128,-1,44
 492 239 492 239 559 239 c 0,35,36
480 1088 m 0,45,46
 480 1051 480 1051 497 1012.5 c 128,-1,47
 514 974 514 974 548 930 c 1,48,-1
 593 958 l 2,49,50
 649 994 649 994 668.5 1028 c 128,-1,51
 688 1062 688 1062 688 1103 c 0,52,53
 688 1149 688 1149 662.5 1183 c 128,-1,54
 637 1217 637 1217 588 1217 c 256,55,56
 539 1217 539 1217 509.5 1179.5 c 128,-1,57
 480 1142 480 1142 480 1088 c 0,45,46
EndSplineSet
Validated: 1
EndChar

StartChar: quotesingle
Encoding: 39 39 10
Width: 440
GlyphClass: 1
Flags: W
LayerCount: 2
Fore
SplineSet
365 1164 m 1,0,-1
 263 881 l 1,1,-1
 74 881 l 1,2,-1
 74 1456 l 1,3,-1
 365 1456 l 1,4,-1
 365 1164 l 1,0,-1
EndSplineSet
Validated: 1
EndChar

StartChar: parenleft
Encoding: 40 40 11
Width: 727
GlyphClass: 1
Flags: W
LayerCount: 2
Fore
SplineSet
120 592 m 2,0,1
 120 981 120 981 268 1251.5 c 128,-1,2
 416 1522 416 1522 616 1599 c 1,3,-1
 622 1599 l 1,4,-1
 683 1440 l 1,5,6
 555 1346 555 1346 472 1136 c 128,-1,7
 389 926 389 926 389 594 c 2,8,-1
 389 562 l 2,9,10
 389 229 389 229 472 19.5 c 128,-1,11
 555 -190 555 -190 683 -284 c 1,12,-1
 622 -443 l 1,13,-1
 616 -443 l 1,14,15
 416 -366 416 -366 268 -96 c 128,-1,16
 120 174 120 174 120 564 c 2,17,-1
 120 592 l 2,0,1
EndSplineSet
Validated: 1
EndChar

StartChar: parenright
Encoding: 41 41 12
Width: 726
GlyphClass: 1
Flags: W
LayerCount: 2
Fore
SplineSet
630 564 m 2,0,1
 630 190 630 190 473 -88.5 c 128,-1,2
 316 -367 316 -367 111 -443 c 1,3,-1
 105 -443 l 1,4,-1
 44 -284 l 1,5,6
 170 -189 170 -189 254 20.5 c 128,-1,7
 338 230 338 230 338 562 c 2,8,-1
 338 594 l 2,9,10
 338 926 338 926 254 1136 c 128,-1,11
 170 1346 170 1346 44 1440 c 1,12,-1
 105 1599 l 1,13,-1
 111 1599 l 1,14,15
 316 1523 316 1523 473 1244 c 128,-1,16
 630 965 630 965 630 592 c 2,17,-1
 630 564 l 2,0,1
EndSplineSet
Validated: 1
EndChar

StartChar: asterisk
Encoding: 42 42 13
Width: 843
GlyphClass: 1
Flags: W
LayerCount: 2
Fore
SplineSet
256 649 m 1,0,-1
 30 731 l 1,1,-1
 86 906 l 1,2,-1
 329 834 l 1,3,-1
 337 1082 l 1,4,-1
 519 1082 l 1,5,-1
 534 824 l 1,6,-1
 763 897 l 1,7,-1
 819 720 l 1,8,-1
 589 635 l 1,9,-1
 720 430 l 1,10,-1
 571 321 l 1,11,-1
 418 525 l 1,12,-1
 267 330 l 1,13,-1
 117 435 l 1,14,-1
 256 649 l 1,0,-1
EndSplineSet
Validated: 1
EndChar

StartChar: plus
Encoding: 43 43 14
Width: 1094
GlyphClass: 1
Flags: W
LayerCount: 2
Fore
SplineSet
702 826 m 1,0,-1
 1043 826 l 1,1,-1
 1043 537 l 1,2,-1
 702 537 l 1,3,-1
 702 146 l 1,4,-1
 387 146 l 1,5,-1
 387 537 l 1,6,-1
 45 537 l 1,7,-1
 45 826 l 1,8,-1
 387 826 l 1,9,-1
 387 1206 l 1,10,-1
 702 1206 l 1,11,-1
 702 826 l 1,0,-1
EndSplineSet
Validated: 1
EndChar

StartChar: comma
Encoding: 44 44 15
Width: 590
GlyphClass: 1
Flags: W
LayerCount: 2
Fore
SplineSet
467 -8 m 1,0,-1
 304 -326 l 1,1,-1
 71 -326 l 1,2,-1
 141 1 l 1,3,-1
 141 264 l 1,4,-1
 467 264 l 1,5,-1
 467 -8 l 1,0,-1
EndSplineSet
Validated: 1
EndChar

StartChar: hyphen
Encoding: 45 45 16
Width: 875
GlyphClass: 1
Flags: W
LayerCount: 2
Fore
SplineSet
724 497 m 1,0,-1
 135 497 l 1,1,-1
 135 758 l 1,2,-1
 724 758 l 1,3,-1
 724 497 l 1,0,-1
EndSplineSet
Validated: 1
EndChar

StartChar: period
Encoding: 46 46 17
Width: 619
GlyphClass: 1
Flags: W
LayerCount: 2
Fore
SplineSet
473 0 m 1,0,-1
 136 0 l 1,1,-1
 136 284 l 1,2,-1
 473 284 l 1,3,-1
 473 0 l 1,0,-1
EndSplineSet
Validated: 1
EndChar

StartChar: slash
Encoding: 47 47 18
Width: 811
GlyphClass: 1
Flags: W
LayerCount: 2
Fore
SplineSet
312 -125 m 1,0,-1
 -29 -125 l 1,1,-1
 468 1456 l 1,2,-1
 809 1456 l 1,3,-1
 312 -125 l 1,0,-1
EndSplineSet
Validated: 1
EndChar

StartChar: zero
Encoding: 48 48 19
Width: 1186
GlyphClass: 1
Flags: W
LayerCount: 2
Fore
SplineSet
1100 535 m 2,0,1
 1100 274 1100 274 961 126.5 c 128,-1,2
 822 -21 822 -21 594 -21 c 0,3,4
 364 -21 364 -21 225 126.5 c 128,-1,5
 86 274 86 274 86 535 c 2,6,-1
 86 921 l 2,7,8
 86 1182 86 1182 224 1329.5 c 128,-1,9
 362 1477 362 1477 592 1477 c 0,10,11
 820 1477 820 1477 960 1329 c 128,-1,12
 1100 1181 1100 1181 1100 921 c 2,13,-1
 1100 535 l 2,0,1
763 944 m 2,14,15
 763 1077 763 1077 717.5 1147 c 128,-1,16
 672 1217 672 1217 592 1217 c 0,17,18
 511 1217 511 1217 467 1147 c 128,-1,19
 423 1077 423 1077 423 944 c 2,20,-1
 423 514 l 2,21,22
 423 378 423 378 467.5 308.5 c 128,-1,23
 512 239 512 239 594 239 c 0,24,25
 674 239 674 239 718.5 308.5 c 128,-1,26
 763 378 763 378 763 514 c 2,27,-1
 763 944 l 2,14,15
EndSplineSet
Validated: 1
EndChar

StartChar: one
Encoding: 49 49 20
Width: 1186
GlyphClass: 1
Flags: W
LayerCount: 2
Fore
SplineSet
839 0 m 1,0,-1
 501 0 l 1,1,-1
 501 1167 l 1,2,-1
 208 1167 l 1,3,-1
 208 1425 l 1,4,-1
 839 1477 l 1,5,-1
 839 0 l 1,0,-1
EndSplineSet
Validated: 1
EndChar

StartChar: two
Encoding: 50 50 21
Width: 1186
GlyphClass: 1
Flags: W
LayerCount: 2
Fore
SplineSet
1113 0 m 1,0,-1
 101 0 l 1,1,-1
 101 220 l 1,2,-1
 549 712 l 2,3,4
 639 814 639 814 681 894 c 128,-1,5
 723 974 723 974 723 1033 c 0,6,7
 723 1118 723 1118 685 1167.5 c 128,-1,8
 647 1217 647 1217 563 1217 c 0,9,10
 484 1217 484 1217 440.5 1152.5 c 128,-1,11
 397 1088 397 1088 397 988 c 1,12,-1
 66 988 l 1,13,-1
 64 994 l 1,14,15
 59 1196 59 1196 197 1336.5 c 128,-1,16
 335 1477 335 1477 563 1477 c 0,17,18
 802 1477 802 1477 932 1359.5 c 128,-1,19
 1062 1242 1062 1242 1062 1036 c 0,20,21
 1062 898 1062 898 990 791.5 c 128,-1,22
 918 685 918 685 726 477 c 1,23,-1
 549 265 l 1,24,-1
 551 260 l 1,25,-1
 1113 260 l 1,26,-1
 1113 0 l 1,0,-1
EndSplineSet
Validated: 33
EndChar

StartChar: three
Encoding: 51 51 22
Width: 1186
GlyphClass: 1
Flags: W
LayerCount: 2
Fore
SplineSet
578 869 m 2,0,1
 669 869 669 869 718 918 c 128,-1,2
 767 967 767 967 767 1054 c 0,3,4
 767 1122 767 1122 717 1169.5 c 128,-1,5
 667 1217 667 1217 582 1217 c 0,6,7
 518 1217 518 1217 473.5 1179.5 c 128,-1,8
 429 1142 429 1142 429 1081 c 1,9,-1
 101 1081 l 1,10,-1
 99 1087 l 1,11,12
 93 1261 93 1261 235.5 1369 c 128,-1,13
 378 1477 378 1477 582 1477 c 0,14,15
 819 1477 819 1477 961.5 1368.5 c 128,-1,16
 1104 1260 1104 1260 1104 1061 c 0,17,18
 1104 962 1104 962 1044 879 c 128,-1,19
 984 796 984 796 881 748 c 1,20,21
 999 705 999 705 1063 618.5 c 128,-1,22
 1127 532 1127 532 1127 408 c 0,23,24
 1127 208 1127 208 973.5 93.5 c 128,-1,25
 820 -21 820 -21 582 -21 c 0,26,27
 376 -21 376 -21 224 86.5 c 128,-1,28
 72 194 72 194 77 398 c 1,29,-1
 79 404 l 1,30,-1
 408 404 l 1,31,32
 408 333 408 333 457 286 c 128,-1,33
 506 239 506 239 582 239 c 0,34,35
 673 239 673 239 731.5 289.5 c 128,-1,36
 790 340 790 340 790 415 c 0,37,38
 790 521 790 521 734.5 569.5 c 128,-1,39
 679 618 679 618 578 618 c 2,40,-1
 418 618 l 1,41,-1
 418 869 l 1,42,-1
 578 869 l 2,0,1
EndSplineSet
Validated: 33
EndChar

StartChar: four
Encoding: 52 52 23
Width: 1186
GlyphClass: 1
Flags: W
LayerCount: 2
Fore
SplineSet
985 569 m 1,0,-1
 1132 569 l 1,1,-1
 1132 307 l 1,2,-1
 985 307 l 1,3,-1
 985 0 l 1,4,-1
 647 0 l 1,5,-1
 647 307 l 1,6,-1
 68 307 l 1,7,-1
 48 515 l 1,8,-1
 647 1453 l 1,9,-1
 647 1456 l 1,10,-1
 985 1456 l 1,11,-1
 985 569 l 1,0,-1
338 569 m 1,12,-1
 647 569 l 1,13,-1
 647 1022 l 1,14,-1
 641 1023 l 1,15,-1
 604 948 l 1,16,-1
 338 569 l 1,12,-1
EndSplineSet
Validated: 1
EndChar

StartChar: five
Encoding: 53 53 24
Width: 1186
GlyphClass: 1
Flags: W
LayerCount: 2
Fore
SplineSet
121 640 m 1,0,-1
 205 1456 l 1,1,-1
 1058 1456 l 1,2,-1
 1058 1194 l 1,3,-1
 479 1194 l 1,4,-1
 442 891 l 1,5,6
 483 920 483 920 546.5 938 c 128,-1,7
 610 956 610 956 685 958 c 0,8,9
 888 962 888 962 997.5 833.5 c 128,-1,10
 1107 705 1107 705 1107 469 c 0,11,12
 1107 258 1107 258 985 118.5 c 128,-1,13
 863 -21 863 -21 601 -21 c 0,14,15
 393 -21 393 -21 239.5 88.5 c 128,-1,16
 86 198 86 198 92 378 c 1,17,-1
 93 384 l 1,18,-1
 424 404 l 1,19,20
 424 327 424 327 472.5 283 c 128,-1,21
 521 239 521 239 601 239 c 0,22,23
 695 239 695 239 732 296 c 128,-1,24
 769 353 769 353 769 467 c 0,25,26
 769 587 769 587 726 656 c 128,-1,27
 683 725 683 725 590 725 c 0,28,29
 523 725 523 725 481.5 696 c 128,-1,30
 440 667 440 667 424 623 c 1,31,-1
 121 640 l 1,0,-1
EndSplineSet
Validated: 33
EndChar

StartChar: six
Encoding: 54 54 25
Width: 1186
GlyphClass: 1
Flags: W
LayerCount: 2
Fore
SplineSet
683 1477 m 0,0,1
 767 1477 767 1477 833 1462.5 c 128,-1,2
 899 1448 899 1448 980 1416 c 1,3,-1
 923 1170 l 1,4,5
 853 1191 853 1191 802 1201.5 c 128,-1,6
 751 1212 751 1212 685 1212 c 0,7,8
 561 1212 561 1212 486 1123.5 c 128,-1,9
 411 1035 411 1035 411 861 c 2,10,-1
 411 847 l 1,11,12
 467 902 467 902 546.5 932 c 128,-1,13
 626 962 626 962 727 962 c 0,14,15
 914 962 914 962 1016.5 826 c 128,-1,16
 1119 690 1119 690 1119 472 c 0,17,18
 1119 257 1119 257 976 118 c 128,-1,19
 833 -21 833 -21 609 -21 c 0,20,21
 369 -21 369 -21 221.5 136 c 128,-1,22
 74 293 74 293 74 566 c 2,23,-1
 74 859 l 2,24,25
 74 1147 74 1147 244.5 1312 c 128,-1,26
 415 1477 415 1477 683 1477 c 0,0,1
614 704 m 0,27,28
 542 704 542 704 491 685 c 128,-1,29
 440 666 440 666 411 631 c 1,30,-1
 411 566 l 2,31,32
 411 408 411 408 463 323.5 c 128,-1,33
 515 239 515 239 609 239 c 0,34,35
 685 239 685 239 733 306.5 c 128,-1,36
 781 374 781 374 781 472 c 0,37,38
 781 582 781 582 735 643 c 128,-1,39
 689 704 689 704 614 704 c 0,27,28
EndSplineSet
Validated: 1
EndChar

StartChar: seven
Encoding: 55 55 26
Width: 1186
GlyphClass: 1
Flags: W
LayerCount: 2
Fore
SplineSet
1111 1196 m 1,0,1
 879 932 879 932 793.5 709.5 c 128,-1,2
 708 487 708 487 708 191 c 2,3,-1
 708 0 l 1,4,-1
 370 0 l 1,5,-1
 370 191 l 2,6,7
 370 483 370 483 476 726.5 c 128,-1,8
 582 970 582 970 787 1196 c 1,9,-1
 58 1196 l 1,10,-1
 58 1456 l 1,11,-1
 1111 1456 l 1,12,-1
 1111 1196 l 1,0,1
EndSplineSet
Validated: 1
EndChar

StartChar: eight
Encoding: 56 56 27
Width: 1186
GlyphClass: 1
Flags: W
LayerCount: 2
Fore
SplineSet
1079 1075 m 0,0,1
 1079 970 1079 970 1026 888 c 128,-1,2
 973 806 973 806 880 757 c 1,3,4
 996 707 996 707 1064 616.5 c 128,-1,5
 1132 526 1132 526 1132 410 c 0,6,7
 1132 206 1132 206 986 92.5 c 128,-1,8
 840 -21 840 -21 613 -21 c 0,9,10
 377 -21 377 -21 224.5 93 c 128,-1,11
 72 207 72 207 72 410 c 0,12,13
 72 526 72 526 142 616.5 c 128,-1,14
 212 707 212 707 334 757 c 1,15,16
 235 805 235 805 179.5 887.5 c 128,-1,17
 124 970 124 970 124 1075 c 0,18,19
 124 1268 124 1268 259 1372.5 c 128,-1,20
 394 1477 394 1477 611 1477 c 0,21,22
 821 1477 821 1477 950 1373 c 128,-1,23
 1079 1269 1079 1269 1079 1075 c 0,0,1
794 428 m 256,24,25
 794 515 794 515 741.5 570 c 128,-1,26
 689 625 689 625 611 625 c 0,27,28
 525 625 525 625 468 570 c 128,-1,29
 411 515 411 515 411 428 c 0,30,31
 411 342 411 342 468 290.5 c 128,-1,32
 525 239 525 239 613 239 c 0,33,34
 691 239 691 239 742.5 290 c 128,-1,35
 794 341 794 341 794 428 c 256,24,25
742 1057 m 0,36,37
 742 1133 742 1133 707 1175 c 128,-1,38
 672 1217 672 1217 611 1217 c 0,39,40
 542 1217 542 1217 502.5 1175.5 c 128,-1,41
 463 1134 463 1134 463 1057 c 0,42,43
 463 978 463 978 503.5 931.5 c 128,-1,44
 544 885 544 885 613 885 c 0,45,46
 673 885 673 885 707.5 931.5 c 128,-1,47
 742 978 742 978 742 1057 c 0,36,37
EndSplineSet
Validated: 1
EndChar

StartChar: nine
Encoding: 57 57 28
Width: 1186
GlyphClass: 1
Flags: W
LayerCount: 2
Fore
SplineSet
548 239 m 0,0,1
 640 239 640 239 699 311.5 c 128,-1,2
 758 384 758 384 758 512 c 2,3,-1
 758 596 l 1,4,5
 709 536 709 536 644 505.5 c 128,-1,6
 579 475 579 475 505 475 c 0,7,8
 307 475 307 475 193.5 608.5 c 128,-1,9
 80 742 80 742 80 967 c 0,10,11
 80 1183 80 1183 222 1330 c 128,-1,12
 364 1477 364 1477 589 1477 c 0,13,14
 810 1477 810 1477 952.5 1323.5 c 128,-1,15
 1095 1170 1095 1170 1095 901 c 2,16,-1
 1095 535 l 2,17,18
 1095 283 1095 283 939.5 131 c 128,-1,19
 784 -21 784 -21 548 -21 c 0,20,21
 474 -21 474 -21 393.5 -4.5 c 128,-1,22
 313 12 313 12 240 42 c 1,23,-1
 298 283 l 1,24,25
 362 260 362 260 419 249.5 c 128,-1,26
 476 239 476 239 548 239 c 0,0,1
579 718 m 0,27,28
 637 718 637 718 682.5 740 c 128,-1,29
 728 762 728 762 758 800 c 1,30,-1
 758 963 l 2,31,32
 758 1087 758 1087 710.5 1152 c 128,-1,33
 663 1217 663 1217 588 1217 c 0,34,35
 509 1217 509 1217 463 1142 c 128,-1,36
 417 1067 417 1067 417 967 c 0,37,38
 417 855 417 855 458.5 786.5 c 128,-1,39
 500 718 500 718 579 718 c 0,27,28
EndSplineSet
Validated: 1
EndChar

StartChar: less
Encoding: 60 60 31
Width: 1044
GlyphClass: 1
Flags: W
LayerCount: 2
Fore
SplineSet
378 544 m 1,0,-1
 378 538 l 1,1,-1
 930 357 l 1,2,-1
 930 50 l 1,3,-1
 46 410 l 1,4,-1
 46 676 l 1,5,-1
 930 1036 l 1,6,-1
 930 730 l 1,7,-1
 378 544 l 1,0,-1
EndSplineSet
Validated: 1
EndChar

StartChar: equal
Encoding: 61 61 32
Width: 1195
GlyphClass: 1
Flags: W
LayerCount: 2
Fore
SplineSet
1054 732 m 1,0,-1
 128 732 l 1,1,-1
 128 992 l 1,2,-1
 1054 992 l 1,3,-1
 1054 732 l 1,0,-1
1054 293 m 1,4,-1
 128 293 l 1,5,-1
 128 553 l 1,6,-1
 1054 553 l 1,7,-1
 1054 293 l 1,4,-1
EndSplineSet
Validated: 1
EndChar

StartChar: greater
Encoding: 62 62 33
Width: 1050
GlyphClass: 1
Flags: W
LayerCount: 2
Fore
SplineSet
658 540 m 1,0,-1
 658 546 l 1,1,-1
 111 728 l 1,2,-1
 111 1034 l 1,3,-1
 990 674 l 1,4,-1
 990 408 l 1,5,-1
 111 48 l 1,6,-1
 111 354 l 1,7,-1
 658 540 l 1,0,-1
EndSplineSet
Validated: 1
EndChar

StartChar: question
Encoding: 63 63 34
Width: 1043
GlyphClass: 1
Flags: W
LayerCount: 2
Fore
SplineSet
308 416 m 1,0,1
 309 555 309 555 358 625 c 128,-1,2
 407 695 407 695 537 786 c 1,3,4
 604 828 604 828 642.5 890 c 128,-1,5
 681 952 681 952 681 1033 c 0,6,7
 681 1117 681 1117 636 1167 c 128,-1,8
 591 1217 591 1217 508 1217 c 0,9,10
 441 1217 441 1217 396 1176 c 128,-1,11
 351 1135 351 1135 349 1054 c 1,12,-1
 20 1054 l 1,13,-1
 18 1060 l 1,14,15
 15 1268 15 1268 150.5 1372.5 c 128,-1,16
 286 1477 286 1477 508 1477 c 0,17,18
 746 1477 746 1477 882.5 1357 c 128,-1,19
 1019 1237 1019 1237 1019 1033 c 0,20,21
 1019 908 1019 908 944.5 803 c 128,-1,22
 870 698 870 698 755 638 c 1,23,24
 691 596 691 596 668.5 547.5 c 128,-1,25
 646 499 646 499 646 416 c 1,26,-1
 308 416 l 1,0,1
645 0 m 1,27,-1
 309 0 l 1,28,-1
 309 270 l 1,29,-1
 645 270 l 1,30,-1
 645 0 l 1,27,-1
EndSplineSet
Validated: 33
EndChar

StartChar: at
Encoding: 64 64 35
Width: 1809
GlyphClass: 1
Flags: W
LayerCount: 2
Fore
SplineSet
1729 520 m 0,0,1
 1720 300 1720 300 1597 139.5 c 128,-1,2
 1474 -21 1474 -21 1230 -21 c 0,3,4
 1149 -21 1149 -21 1090 24.5 c 128,-1,5
 1031 70 1031 70 1007 153 c 1,6,7
 966 68 966 68 903.5 25.5 c 128,-1,8
 841 -17 841 -17 757 -17 c 0,9,10
 608 -17 608 -17 529 101.5 c 128,-1,11
 450 220 450 220 471 416 c 0,12,13
 497 667 497 667 617.5 818 c 128,-1,14
 738 969 738 969 910 969 c 0,15,16
 1031 969 1031 969 1104.5 943 c 128,-1,17
 1178 917 1178 917 1266 863 c 1,18,-1
 1263 859 l 1,19,-1
 1268 859 l 1,20,-1
 1217 293 l 2,21,22
 1212 206 1212 206 1228.5 173.5 c 128,-1,23
 1245 141 1245 141 1273 141 c 0,24,25
 1385 141 1385 141 1452.5 248.5 c 128,-1,26
 1520 356 1520 356 1528 520 c 0,27,28
 1544 859 1544 859 1395 1048.5 c 128,-1,29
 1246 1238 1246 1238 935 1238 c 0,30,31
 633 1238 633 1238 455 1034 c 128,-1,32
 277 830 277 830 262 478 c 0,33,34
 245 135 245 135 406.5 -64 c 128,-1,35
 568 -263 568 -263 870 -263 c 0,36,37
 954 -263 954 -263 1044.5 -244.5 c 128,-1,38
 1135 -226 1135 -226 1201 -198 c 1,39,-1
 1239 -364 l 1,40,41
 1172 -406 1172 -406 1068.5 -429.5 c 128,-1,42
 965 -453 965 -453 866 -453 c 0,43,44
 462 -453 462 -453 244 -204 c 128,-1,45
 26 45 26 45 43 478 c 0,46,47
 61 907 61 907 301 1158.5 c 128,-1,48
 541 1410 541 1410 939 1410 c 0,49,50
 1330 1410 1330 1410 1537.5 1172 c 128,-1,51
 1745 934 1745 934 1729 520 c 0,0,1
719 416 m 0,52,53
 710 296 710 296 736.5 234.5 c 128,-1,54
 763 173 763 173 823 173 c 0,55,56
 877 173 877 173 919.5 203 c 128,-1,57
 962 233 962 233 994 314 c 1,58,-1
 1034 766 l 1,59,60
 1012 771 1012 771 991 774.5 c 128,-1,61
 970 778 970 778 949 778 c 0,62,63
 845 778 845 778 790.5 687.5 c 128,-1,64
 736 597 736 597 719 416 c 0,52,53
EndSplineSet
Validated: 33
EndChar

StartChar: A
Encoding: 65 65 36
Width: 1307
GlyphClass: 1
Flags: W
LayerCount: 2
Fore
SplineSet
878 283 m 1,0,-1
 445 283 l 1,1,-1
 361 0 l 1,2,-1
 5 0 l 1,3,-1
 480 1456 l 1,4,-1
 661 1456 l 1,5,-1
 661 1455 l 1,6,-1
 662 1456 l 1,7,-1
 843 1456 l 1,8,-1
 1319 0 l 1,9,-1
 963 0 l 1,10,-1
 878 283 l 1,0,-1
523 543 m 1,11,-1
 800 543 l 1,12,-1
 664 995 l 1,13,-1
 658 995 l 1,14,-1
 523 543 l 1,11,-1
EndSplineSet
Validated: 1
Substitution2: "'smcp' Lowercase to Small Capitals lookup 0 subtable" A.smcp
EndChar

StartChar: B
Encoding: 66 66 37
Width: 1306
GlyphClass: 1
Flags: W
LayerCount: 2
Fore
SplineSet
116 0 m 1,0,-1
 116 1456 l 1,1,-1
 593 1456 l 2,2,3
 864 1456 864 1456 1015.5 1355.5 c 128,-1,4
 1167 1255 1167 1255 1167 1056 c 0,5,6
 1167 952 1167 952 1119 871.5 c 128,-1,7
 1071 791 1071 791 969 750 c 1,8,9
 1099 722 1099 722 1161.5 634 c 128,-1,10
 1224 546 1224 546 1224 431 c 0,11,12
 1224 218 1224 218 1081 109 c 128,-1,13
 938 0 938 0 671 0 c 2,14,-1
 116 0 l 1,0,-1
454 625 m 1,15,-1
 454 260 l 1,16,-1
 671 260 l 2,17,18
 779 260 779 260 833 302.5 c 128,-1,19
 887 345 887 345 887 433 c 0,20,21
 887 526 887 526 839.5 574 c 128,-1,22
 792 622 792 622 683 625 c 2,23,-1
 672 625 l 1,24,-1
 454 625 l 1,15,-1
454 849 m 1,25,-1
 587 849 l 2,26,27
 709 849 709 849 769 891.5 c 128,-1,28
 829 934 829 934 829 1018 c 0,29,30
 829 1111 829 1111 771 1153.5 c 128,-1,31
 713 1196 713 1196 593 1196 c 2,32,-1
 454 1196 l 1,33,-1
 454 849 l 1,25,-1
EndSplineSet
Validated: 1
Substitution2: "'smcp' Lowercase to Small Capitals lookup 0 subtable" B.smcp
EndChar

StartChar: C
Encoding: 67 67 38
Width: 1307
GlyphClass: 1
Flags: W
LayerCount: 2
Fore
SplineSet
1234 491 m 1,0,-1
 1236 485 l 1,1,2
 1240 236 1240 236 1095.5 107.5 c 128,-1,3
 951 -21 951 -21 686 -21 c 0,4,5
 416 -21 416 -21 252.5 144 c 128,-1,6
 89 309 89 309 89 576 c 2,7,-1
 89 880 l 2,8,9
 89 1146 89 1146 246.5 1311.5 c 128,-1,10
 404 1477 404 1477 663 1477 c 0,11,12
 940 1477 940 1477 1091.5 1348 c 128,-1,13
 1243 1219 1243 1219 1239 973 c 1,14,-1
 1236 967 l 1,15,-1
 907 967 l 1,16,17
 907 1101 907 1101 850 1159 c 128,-1,18
 793 1217 793 1217 663 1217 c 0,19,20
 549 1217 549 1217 488 1125.5 c 128,-1,21
 427 1034 427 1034 427 882 c 2,22,-1
 427 576 l 2,23,24
 427 423 427 423 494 331 c 128,-1,25
 561 239 561 239 686 239 c 0,26,27
 802 239 802 239 853.5 297 c 128,-1,28
 905 355 905 355 905 491 c 1,29,-1
 1234 491 l 1,0,-1
EndSplineSet
Validated: 33
Substitution2: "'smcp' Lowercase to Small Capitals lookup 0 subtable" C.smcp
EndChar

StartChar: D
Encoding: 68 68 39
Width: 1338
GlyphClass: 1
Flags: W
LayerCount: 2
Fore
SplineSet
116 0 m 1,0,-1
 116 1456 l 1,1,-1
 649 1456 l 2,2,3
 906 1456 906 1456 1079 1288.5 c 128,-1,4
 1252 1121 1252 1121 1252 859 c 2,5,-1
 1252 597 l 2,6,7
 1252 334 1252 334 1079 167 c 128,-1,8
 906 0 906 0 649 0 c 2,9,-1
 116 0 l 1,0,-1
454 1196 m 1,10,-1
 454 260 l 1,11,-1
 649 260 l 2,12,13
 764 260 764 260 838.5 354 c 128,-1,14
 913 448 913 448 913 597 c 2,15,-1
 913 861 l 2,16,17
 913 1008 913 1008 838.5 1102 c 128,-1,18
 764 1196 764 1196 649 1196 c 2,19,-1
 454 1196 l 1,10,-1
EndSplineSet
Validated: 1
Substitution2: "'smcp' Lowercase to Small Capitals lookup 0 subtable" D.smcp
EndChar

StartChar: E
Encoding: 69 69 40
Width: 1143
GlyphClass: 1
Flags: W
LayerCount: 2
Fore
SplineSet
967 623 m 1,0,-1
 454 623 l 1,1,-1
 454 260 l 1,2,-1
 1069 260 l 1,3,-1
 1069 0 l 1,4,-1
 116 0 l 1,5,-1
 116 1456 l 1,6,-1
 1070 1456 l 1,7,-1
 1070 1196 l 1,8,-1
 454 1196 l 1,9,-1
 454 883 l 1,10,-1
 967 883 l 1,11,-1
 967 623 l 1,0,-1
EndSplineSet
Validated: 1
Substitution2: "'smcp' Lowercase to Small Capitals lookup 0 subtable" E.smcp
EndChar

StartChar: F
Encoding: 70 70 41
Width: 1143
GlyphClass: 1
Flags: W
LayerCount: 2
Fore
SplineSet
987 586 m 1,0,-1
 454 586 l 1,1,-1
 454 0 l 1,2,-1
 116 0 l 1,3,-1
 116 1456 l 1,4,-1
 1089 1456 l 1,5,-1
 1089 1196 l 1,6,-1
 454 1196 l 1,7,-1
 454 846 l 1,8,-1
 987 846 l 1,9,-1
 987 586 l 1,0,-1
EndSplineSet
Validated: 1
Substitution2: "'smcp' Lowercase to Small Capitals lookup 0 subtable" F.smcp
EndChar

StartChar: G
Encoding: 71 71 42
Width: 1353
GlyphClass: 1
Flags: W
LayerCount: 2
Fore
SplineSet
1266 201 m 1,0,1
 1190 109 1190 109 1052 44 c 128,-1,2
 914 -21 914 -21 697 -21 c 0,3,4
 426 -21 426 -21 257 145 c 128,-1,5
 88 311 88 311 88 576 c 2,6,-1
 88 880 l 2,7,8
 88 1143 88 1143 252.5 1310 c 128,-1,9
 417 1477 417 1477 676 1477 c 0,10,11
 955 1477 955 1477 1097.5 1352.5 c 128,-1,12
 1240 1228 1240 1228 1235 1012 c 1,13,-1
 1233 1006 l 1,14,-1
 916 1006 l 1,15,16
 916 1113 916 1113 859 1165 c 128,-1,17
 802 1217 802 1217 687 1217 c 0,18,19
 569 1217 569 1217 497 1124 c 128,-1,20
 425 1031 425 1031 425 882 c 2,21,-1
 425 576 l 2,22,23
 425 424 425 424 496.5 331.5 c 128,-1,24
 568 239 568 239 697 239 c 0,25,26
 790 239 790 239 843.5 254 c 128,-1,27
 897 269 897 269 928 294 c 1,28,-1
 928 554 l 1,29,-1
 670 554 l 1,30,-1
 670 778 l 1,31,-1
 1266 778 l 1,32,-1
 1266 201 l 1,0,1
EndSplineSet
Validated: 33
Substitution2: "'smcp' Lowercase to Small Capitals lookup 0 subtable" G.smcp
EndChar

StartChar: H
Encoding: 72 72 43
Width: 1446
GlyphClass: 1
Flags: W
LayerCount: 2
Fore
SplineSet
1330 0 m 1,0,-1
 993 0 l 1,1,-1
 993 586 l 1,2,-1
 454 586 l 1,3,-1
 454 0 l 1,4,-1
 116 0 l 1,5,-1
 116 1456 l 1,6,-1
 454 1456 l 1,7,-1
 454 846 l 1,8,-1
 993 846 l 1,9,-1
 993 1456 l 1,10,-1
 1330 1456 l 1,11,-1
 1330 0 l 1,0,-1
EndSplineSet
Validated: 1
Substitution2: "'smcp' Lowercase to Small Capitals lookup 0 subtable" H.smcp
EndChar

StartChar: I
Encoding: 73 73 44
Width: 611
GlyphClass: 1
Flags: W
LayerCount: 2
Fore
SplineSet
474 0 m 1,0,-1
 137 0 l 1,1,-1
 137 1456 l 1,2,-1
 474 1456 l 1,3,-1
 474 0 l 1,0,-1
EndSplineSet
Validated: 1
Substitution2: "'smcp' Lowercase to Small Capitals lookup 0 subtable" I.smcp
EndChar

StartChar: J
Encoding: 74 74 45
Width: 1144
GlyphClass: 1
Flags: W
LayerCount: 2
Fore
SplineSet
692 1456 m 1,0,-1
 1030 1456 l 1,1,-1
 1030 467 l 2,2,3
 1030 244 1030 244 893 111.5 c 128,-1,4
 756 -21 756 -21 542 -21 c 0,5,6
 296 -21 296 -21 152.5 97 c 128,-1,7
 9 215 9 215 14 440 c 1,8,-1
 17 446 l 1,9,-1
 347 446 l 1,10,11
 347 339 347 339 401 289 c 128,-1,12
 455 239 455 239 542 239 c 0,13,14
 608 239 608 239 650 299.5 c 128,-1,15
 692 360 692 360 692 467 c 2,16,-1
 692 1456 l 1,0,-1
EndSplineSet
Validated: 33
Substitution2: "'smcp' Lowercase to Small Capitals lookup 0 subtable" J.smcp
EndChar

StartChar: K
Encoding: 75 75 46
Width: 1306
GlyphClass: 1
Flags: W
LayerCount: 2
Fore
SplineSet
548 584 m 1,0,-1
 454 584 l 1,1,-1
 454 0 l 1,2,-1
 116 0 l 1,3,-1
 116 1456 l 1,4,-1
 454 1456 l 1,5,-1
 454 886 l 1,6,-1
 524 886 l 1,7,-1
 853 1456 l 1,8,-1
 1278 1456 l 1,9,-1
 820 794 l 1,10,-1
 1317 0 l 1,11,-1
 883 0 l 1,12,-1
 548 584 l 1,0,-1
EndSplineSet
Validated: 1
Substitution2: "'smcp' Lowercase to Small Capitals lookup 0 subtable" K.smcp
EndChar

StartChar: L
Encoding: 76 76 47
Width: 1144
GlyphClass: 1
Flags: W
LayerCount: 2
Fore
SplineSet
454 260 m 1,0,-1
 1079 260 l 1,1,-1
 1079 0 l 1,2,-1
 116 0 l 1,3,-1
 116 1456 l 1,4,-1
 454 1456 l 1,5,-1
 454 260 l 1,0,-1
EndSplineSet
Validated: 1
Substitution2: "'smcp' Lowercase to Small Capitals lookup 0 subtable" L.smcp
EndChar

StartChar: M
Encoding: 77 77 48
Width: 1783
GlyphClass: 1
Flags: W
LayerCount: 2
Fore
SplineSet
885 437 m 1,0,-1
 891 437 l 1,1,-1
 1220 1456 l 1,2,-1
 1667 1456 l 1,3,-1
 1667 0 l 1,4,-1
 1329 0 l 1,5,-1
 1329 938 l 1,6,-1
 1323 939 l 1,7,-1
 1002 0 l 1,8,-1
 775 0 l 1,9,-1
 460 925 l 1,10,-1
 454 924 l 1,11,-1
 454 0 l 1,12,-1
 116 0 l 1,13,-1
 116 1456 l 1,14,-1
 559 1456 l 1,15,-1
 885 437 l 1,0,-1
EndSplineSet
Validated: 1
Substitution2: "'smcp' Lowercase to Small Capitals lookup 0 subtable" M.smcp
EndChar

StartChar: N
Encoding: 78 78 49
Width: 1446
GlyphClass: 1
Flags: W
LayerCount: 2
Fore
SplineSet
1330 0 m 1,0,-1
 993 0 l 1,1,-1
 460 916 l 1,2,-1
 454 914 l 1,3,-1
 454 0 l 1,4,-1
 116 0 l 1,5,-1
 116 1456 l 1,6,-1
 454 1456 l 1,7,-1
 987 541 l 1,8,-1
 993 543 l 1,9,-1
 993 1456 l 1,10,-1
 1330 1456 l 1,11,-1
 1330 0 l 1,0,-1
EndSplineSet
Validated: 1
Substitution2: "'smcp' Lowercase to Small Capitals lookup 0 subtable" N.smcp
EndChar

StartChar: O
Encoding: 79 79 50
Width: 1416
GlyphClass: 1
Flags: W
LayerCount: 2
Fore
SplineSet
1326 597 m 2,0,1
 1326 328 1326 328 1155.5 153.5 c 128,-1,2
 985 -21 985 -21 710 -21 c 0,3,4
 433 -21 433 -21 261 153.5 c 128,-1,5
 89 328 89 328 89 597 c 2,6,-1
 89 859 l 2,7,8
 89 1127 89 1127 260.5 1302 c 128,-1,9
 432 1477 432 1477 708 1477 c 0,10,11
 982 1477 982 1477 1154 1302 c 128,-1,12
 1326 1127 1326 1127 1326 859 c 2,13,-1
 1326 597 l 2,0,1
989 861 m 2,14,15
 989 1017 989 1017 915.5 1117 c 128,-1,16
 842 1217 842 1217 708 1217 c 0,17,18
 571 1217 571 1217 498.5 1117.5 c 128,-1,19
 426 1018 426 1018 426 861 c 2,20,-1
 426 597 l 2,21,22
 426 439 426 439 499.5 339 c 128,-1,23
 573 239 573 239 710 239 c 0,24,25
 843 239 843 239 916 339 c 128,-1,26
 989 439 989 439 989 597 c 2,27,-1
 989 861 l 2,14,15
EndSplineSet
Validated: 1
Substitution2: "'smcp' Lowercase to Small Capitals lookup 0 subtable" O.smcp
EndChar

StartChar: P
Encoding: 80 80 51
Width: 1306
GlyphClass: 1
Flags: W
LayerCount: 2
Fore
SplineSet
454 499 m 1,0,-1
 454 0 l 1,1,-1
 116 0 l 1,2,-1
 116 1456 l 1,3,-1
 672 1456 l 2,4,5
 931 1456 931 1456 1083 1324 c 128,-1,6
 1235 1192 1235 1192 1235 977 c 256,7,8
 1235 762 1235 762 1083 630.5 c 128,-1,9
 931 499 931 499 672 499 c 2,10,-1
 454 499 l 1,0,-1
454 759 m 1,11,-1
 672 759 l 2,12,13
 782 759 782 759 840 819.5 c 128,-1,14
 898 880 898 880 898 975 c 0,15,16
 898 1072 898 1072 840.5 1134 c 128,-1,17
 783 1196 783 1196 672 1196 c 2,18,-1
 454 1196 l 1,19,-1
 454 759 l 1,11,-1
EndSplineSet
Validated: 1
Substitution2: "'smcp' Lowercase to Small Capitals lookup 0 subtable" P.smcp
EndChar

StartChar: Q
Encoding: 81 81 52
Width: 1447
GlyphClass: 1
Flags: W
LayerCount: 2
Fore
SplineSet
1326 597 m 2,0,1
 1326 490 1326 490 1297 395.5 c 128,-1,2
 1268 301 1268 301 1214 224 c 1,3,-1
 1432 2 l 1,4,-1
 1215 -165 l 1,5,-1
 1005 45 l 1,6,7
 940 12 940 12 866 -4.5 c 128,-1,8
 792 -21 792 -21 710 -21 c 0,9,10
 433 -21 433 -21 261 153.5 c 128,-1,11
 89 328 89 328 89 597 c 2,12,-1
 89 859 l 2,13,14
 89 1127 89 1127 260.5 1302 c 128,-1,15
 432 1477 432 1477 708 1477 c 0,16,17
 982 1477 982 1477 1154 1302 c 128,-1,18
 1326 1127 1326 1127 1326 859 c 2,19,-1
 1326 597 l 2,0,1
989 861 m 2,20,21
 989 1017 989 1017 915.5 1117 c 128,-1,22
 842 1217 842 1217 708 1217 c 0,23,24
 571 1217 571 1217 498.5 1117.5 c 128,-1,25
 426 1018 426 1018 426 861 c 2,26,-1
 426 597 l 2,27,28
 426 439 426 439 499.5 339 c 128,-1,29
 573 239 573 239 710 239 c 0,30,31
 843 239 843 239 916 339 c 128,-1,32
 989 439 989 439 989 597 c 2,33,-1
 989 861 l 2,20,21
EndSplineSet
Validated: 1
Substitution2: "'smcp' Lowercase to Small Capitals lookup 0 subtable" Q.smcp
EndChar

StartChar: R
Encoding: 82 82 53
Width: 1306
GlyphClass: 1
Flags: W
LayerCount: 2
Fore
SplineSet
454 558 m 1,0,-1
 454 0 l 1,1,-1
 116 0 l 1,2,-1
 116 1456 l 1,3,-1
 623 1456 l 2,4,5
 876 1456 876 1456 1024 1339 c 128,-1,6
 1172 1222 1172 1222 1172 1019 c 0,7,8
 1172 906 1172 906 1112.5 825 c 128,-1,9
 1053 744 1053 744 937 693 c 1,10,11
 1071 655 1071 655 1129.5 566.5 c 128,-1,12
 1188 478 1188 478 1188 346 c 2,13,-1
 1188 254 l 2,14,15
 1188 197 1188 197 1205 124 c 128,-1,16
 1222 51 1222 51 1264 20 c 1,17,-1
 1264 0 l 1,18,-1
 915 0 l 1,19,20
 875 31 875 31 863 109 c 128,-1,21
 851 187 851 187 851 256 c 2,22,-1
 851 344 l 2,23,24
 851 448 851 448 796 503 c 128,-1,25
 741 558 741 558 635 558 c 2,26,-1
 454 558 l 1,0,-1
454 818 m 1,27,-1
 625 818 l 2,28,29
 727 818 727 818 781 864.5 c 128,-1,30
 835 911 835 911 835 998 c 0,31,32
 835 1087 835 1087 779.5 1141.5 c 128,-1,33
 724 1196 724 1196 623 1196 c 2,34,-1
 454 1196 l 1,35,-1
 454 818 l 1,27,-1
EndSplineSet
Validated: 1
Substitution2: "'smcp' Lowercase to Small Capitals lookup 0 subtable" R.smcp
EndChar

StartChar: S
Encoding: 83 83 54
Width: 1273
GlyphClass: 1
Flags: W
LayerCount: 2
Fore
SplineSet
867 386 m 0,0,1
 867 464 867 464 816 505.5 c 128,-1,2
 765 547 765 547 631 594 c 0,3,4
 360 682 360 682 228.5 781.5 c 128,-1,5
 97 881 97 881 97 1068 c 0,6,7
 97 1251 97 1251 250 1364 c 128,-1,8
 403 1477 403 1477 639 1477 c 0,9,10
 888 1477 888 1477 1040 1360.5 c 128,-1,11
 1192 1244 1192 1244 1187 1032 c 1,12,-1
 1185 1026 l 1,13,-1
 857 1026 l 1,14,15
 857 1129 857 1129 801 1175.5 c 128,-1,16
 745 1222 745 1222 632 1222 c 0,17,18
 540 1222 540 1222 487 1177 c 128,-1,19
 434 1132 434 1132 434 1066 c 0,20,21
 434 1002 434 1002 488.5 963.5 c 128,-1,22
 543 925 543 925 692 867 c 1,23,24
 945 792 945 792 1075 684 c 128,-1,25
 1205 576 1205 576 1205 388 c 0,26,27
 1205 196 1205 196 1055 87.5 c 128,-1,28
 905 -21 905 -21 657 -21 c 0,29,30
 410 -21 410 -21 238.5 95.5 c 128,-1,31
 67 212 67 212 72 462 c 1,32,-1
 74 468 l 1,33,-1
 403 468 l 1,34,35
 403 341 403 341 465.5 287.5 c 128,-1,36
 528 234 528 234 657 234 c 0,37,38
 763 234 763 234 815 276 c 128,-1,39
 867 318 867 318 867 386 c 0,0,1
EndSplineSet
Validated: 33
Substitution2: "'smcp' Lowercase to Small Capitals lookup 0 subtable" S.smcp
EndChar

StartChar: T
Encoding: 84 84 55
Width: 1150
GlyphClass: 1
Flags: W
LayerCount: 2
Fore
SplineSet
1129 1196 m 1,0,-1
 744 1196 l 1,1,-1
 744 0 l 1,2,-1
 406 0 l 1,3,-1
 406 1196 l 1,4,-1
 28 1196 l 1,5,-1
 28 1456 l 1,6,-1
 1129 1456 l 1,7,-1
 1129 1196 l 1,0,-1
EndSplineSet
Validated: 1
Substitution2: "'smcp' Lowercase to Small Capitals lookup 0 subtable" T.smcp
EndChar

StartChar: U
Encoding: 85 85 56
Width: 1417
GlyphClass: 1
Flags: W
LayerCount: 2
Fore
SplineSet
1309 1456 m 1,0,-1
 1309 512 l 2,1,2
 1309 262 1309 262 1143 120.5 c 128,-1,3
 977 -21 977 -21 710 -21 c 0,4,5
 441 -21 441 -21 274 120.5 c 128,-1,6
 107 262 107 262 107 512 c 2,7,-1
 107 1456 l 1,8,-1
 446 1456 l 1,9,-1
 446 512 l 2,10,11
 446 377 446 377 516 308 c 128,-1,12
 586 239 586 239 710 239 c 0,13,14
 833 239 833 239 901.5 307.5 c 128,-1,15
 970 376 970 376 970 512 c 2,16,-1
 970 1456 l 1,17,-1
 1309 1456 l 1,0,-1
EndSplineSet
Validated: 1
Substitution2: "'smcp' Lowercase to Small Capitals lookup 0 subtable" U.smcp
EndChar

StartChar: V
Encoding: 86 86 57
Width: 1307
GlyphClass: 1
Flags: W
LayerCount: 2
Fore
SplineSet
638 395 m 1,0,-1
 648 342 l 1,1,-1
 654 342 l 1,2,-1
 664 391 l 1,3,-1
 953 1456 l 1,4,-1
 1307 1456 l 1,5,-1
 835 0 l 1,6,-1
 470 0 l 1,7,-1
 0 1456 l 1,8,-1
 353 1456 l 1,9,-1
 638 395 l 1,0,-1
EndSplineSet
Validated: 1
Substitution2: "'smcp' Lowercase to Small Capitals lookup 0 subtable" V.smcp
EndChar

StartChar: W
Encoding: 87 87 58
Width: 1825
GlyphClass: 1
Flags: W
LayerCount: 2
Fore
SplineSet
1287 512 m 1,0,-1
 1293 512 l 1,1,-1
 1469 1456 l 1,2,-1
 1811 1456 l 1,3,-1
 1477 0 l 1,4,-1
 1159 0 l 1,5,-1
 914 899 l 1,6,-1
 908 899 l 1,7,-1
 665 0 l 1,8,-1
 347 0 l 1,9,-1
 12 1456 l 1,10,-1
 355 1456 l 1,11,-1
 531 511 l 1,12,-1
 537 510 l 1,13,-1
 784 1456 l 1,14,-1
 1039 1456 l 1,15,-1
 1287 512 l 1,0,-1
EndSplineSet
Validated: 1
Substitution2: "'smcp' Lowercase to Small Capitals lookup 0 subtable" W.smcp
EndChar

StartChar: X
Encoding: 88 88 59
Width: 1307
GlyphClass: 1
Flags: W
LayerCount: 2
Fore
SplineSet
648 965 m 1,0,-1
 888 1456 l 1,1,-1
 1278 1456 l 1,2,-1
 861 734 l 1,3,-1
 1310 0 l 1,4,-1
 900 0 l 1,5,-1
 652 501 l 1,6,-1
 404 0 l 1,7,-1
 14 0 l 1,8,-1
 442 734 l 1,9,-1
 25 1456 l 1,10,-1
 412 1456 l 1,11,-1
 648 965 l 1,0,-1
EndSplineSet
Validated: 1
Substitution2: "'smcp' Lowercase to Small Capitals lookup 0 subtable" X.smcp
EndChar

StartChar: Y
Encoding: 89 89 60
Width: 1307
GlyphClass: 1
Flags: W
LayerCount: 2
Fore
SplineSet
650 820 m 1,0,-1
 656 820 l 1,1,-1
 946 1456 l 1,2,-1
 1312 1456 l 1,3,-1
 818 512 l 1,4,-1
 818 0 l 1,5,-1
 481 0 l 1,6,-1
 481 527 l 1,7,-1
 -5 1456 l 1,8,-1
 361 1456 l 1,9,-1
 650 820 l 1,0,-1
EndSplineSet
Validated: 1
Substitution2: "'smcp' Lowercase to Small Capitals lookup 0 subtable" Y.smcp
EndChar

StartChar: Z
Encoding: 90 90 61
Width: 1131
GlyphClass: 1
Flags: W
LayerCount: 2
Fore
SplineSet
467 260 m 1,0,-1
 1067 260 l 1,1,-1
 1067 0 l 1,2,-1
 67 0 l 1,3,-1
 67 152 l 1,4,-1
 655 1196 l 1,5,-1
 64 1196 l 1,6,-1
 64 1456 l 1,7,-1
 1058 1456 l 1,8,-1
 1058 1310 l 1,9,-1
 467 260 l 1,0,-1
EndSplineSet
Validated: 1
Substitution2: "'smcp' Lowercase to Small Capitals lookup 0 subtable" Z.smcp
EndChar

StartChar: bracketleft
Encoding: 91 91 62
Width: 577
GlyphClass: 1
Flags: W
LayerCount: 2
Fore
SplineSet
564 1460 m 1,0,-1
 446 1460 l 1,1,-1
 446 -104 l 1,2,-1
 564 -104 l 1,3,-1
 564 -349 l 1,4,-1
 108 -349 l 1,5,-1
 108 1706 l 1,6,-1
 564 1706 l 1,7,-1
 564 1460 l 1,0,-1
EndSplineSet
Validated: 1
EndChar

StartChar: backslash
Encoding: 92 92 63
Width: 871
GlyphClass: 1
Flags: W
LayerCount: 2
Fore
SplineSet
-16 1456 m 1,0,-1
 322 1456 l 1,1,-1
 930 -125 l 1,2,-1
 591 -125 l 1,3,-1
 -16 1456 l 1,0,-1
EndSplineSet
Validated: 1
EndChar

StartChar: bracketright
Encoding: 93 93 64
Width: 577
GlyphClass: 1
Flags: W
LayerCount: 2
Fore
SplineSet
14 1706 m 1,0,-1
 470 1706 l 1,1,-1
 470 -349 l 1,2,-1
 14 -349 l 1,3,-1
 14 -104 l 1,4,-1
 133 -104 l 1,5,-1
 133 1460 l 1,6,-1
 14 1460 l 1,7,-1
 14 1706 l 1,0,-1
EndSplineSet
Validated: 1
EndChar

StartChar: asciicircum
Encoding: 94 94 65
Width: 916
GlyphClass: 1
Flags: W
LayerCount: 2
Fore
SplineSet
289 729 m 1,0,-1
 36 729 l 1,1,-1
 335 1456 l 1,2,-1
 584 1456 l 1,3,-1
 884 729 l 1,4,-1
 630 729 l 1,5,-1
 465 1142 l 1,6,-1
 461 1160 l 1,7,-1
 455 1160 l 1,8,-1
 451 1142 l 1,9,-1
 289 729 l 1,0,-1
EndSplineSet
Validated: 1
EndChar

StartChar: underscore
Encoding: 95 95 66
Width: 904
GlyphClass: 1
Flags: W
LayerCount: 2
Fore
SplineSet
903 -251 m 1,0,-1
 0 -251 l 1,1,-1
 0 0 l 1,2,-1
 903 0 l 1,3,-1
 903 -251 l 1,0,-1
EndSplineSet
Validated: 1
EndChar

StartChar: grave
Encoding: 96 96 67
Width: 695
GlyphClass: 1
Flags: W
LayerCount: 2
Fore
SplineSet
620 1252 m 1,0,-1
 323 1252 l 1,1,-1
 40 1512 l 1,2,-1
 42 1518 l 1,3,-1
 412 1518 l 1,4,-1
 620 1252 l 1,0,-1
EndSplineSet
Validated: 1
EndChar

StartChar: a
Encoding: 97 97 68
Width: 1086
GlyphClass: 1
Flags: W
LayerCount: 2
Fore
SplineSet
721 1 m 1,0,1
 702 35 702 35 688.5 78 c 128,-1,2
 675 121 675 121 668 168 c 1,3,4
 624 82 624 82 559.5 30.5 c 128,-1,5
 495 -21 495 -21 391 -21 c 0,6,7
 221 -21 221 -21 126.5 66.5 c 128,-1,8
 32 154 32 154 32 305 c 0,9,10
 32 466 32 466 153 553.5 c 128,-1,11
 274 641 274 641 520 641 c 2,12,-1
 659 641 l 1,13,-1
 659 718 l 2,14,15
 659 787 659 787 626 824 c 128,-1,16
 593 861 593 861 525 861 c 0,17,18
 466 861 466 861 437.5 833.5 c 128,-1,19
 409 806 409 806 409 748 c 1,20,-1
 81 749 l 1,21,-1
 79 755 l 1,22,23
 72 903 72 903 202.5 1002.5 c 128,-1,24
 333 1102 333 1102 547 1102 c 0,25,26
 748 1102 748 1102 872.5 1002 c 128,-1,27
 997 902 997 902 997 716 c 2,28,-1
 997 308 l 2,29,30
 997 222 997 222 1011.5 148 c 128,-1,31
 1026 74 1026 74 1055 0 c 1,32,-1
 721 1 l 1,0,1
483 220 m 0,33,34
 545 220 545 220 592.5 249 c 128,-1,35
 640 278 640 278 659 318 c 1,36,-1
 659 461 l 1,37,-1
 523 461 l 2,38,39
 442 461 442 461 406 422 c 128,-1,40
 370 383 370 383 370 323 c 0,41,42
 370 277 370 277 401.5 248.5 c 128,-1,43
 433 220 433 220 483 220 c 0,33,34
EndSplineSet
Validated: 33
Substitution2: "'smcp' Lowercase to Small Capitals lookup 0 subtable" A.smcp
EndChar

StartChar: b
Encoding: 98 98 69
Width: 1151
GlyphClass: 1
Flags: W
LayerCount: 2
Fore
SplineSet
1098 518 m 2,0,1
 1098 271 1098 271 992 125 c 128,-1,2
 886 -21 886 -21 678 -21 c 0,3,4
 590 -21 590 -21 524 17 c 128,-1,5
 458 55 458 55 411 127 c 1,6,-1
 391 0 l 1,7,-1
 96 0 l 1,8,-1
 96 1560 l 1,9,-1
 434 1560 l 1,10,-1
 434 977 l 1,11,12
 479 1037 479 1037 538.5 1069.5 c 128,-1,13
 598 1102 598 1102 676 1102 c 0,14,15
 885 1102 885 1102 991.5 949 c 128,-1,16
 1098 796 1098 796 1098 539 c 2,17,-1
 1098 518 l 2,0,1
761 539 m 2,18,19
 761 683 761 683 725 762.5 c 128,-1,20
 689 842 689 842 591 842 c 0,21,22
 536 842 536 842 496.5 821.5 c 128,-1,23
 457 801 457 801 434 762 c 1,24,-1
 434 307 l 1,25,26
 458 273 458 273 497.5 256 c 128,-1,27
 537 239 537 239 593 239 c 0,28,29
 693 239 693 239 727 308.5 c 128,-1,30
 761 378 761 378 761 518 c 2,31,-1
 761 539 l 2,18,19
EndSplineSet
Validated: 1
Substitution2: "'smcp' Lowercase to Small Capitals lookup 0 subtable" B.smcp
EndChar

StartChar: c
Encoding: 99 99 70
Width: 1048
GlyphClass: 1
Flags: W
LayerCount: 2
Fore
SplineSet
559 239 m 0,0,1
 628 239 628 239 662 276.5 c 128,-1,2
 696 314 696 314 696 385 c 1,3,-1
 1004 385 l 1,4,-1
 1006 379 l 1,5,6
 1010 202 1010 202 883.5 90.5 c 128,-1,7
 757 -21 757 -21 559 -21 c 0,8,9
 312 -21 312 -21 178.5 131.5 c 128,-1,10
 45 284 45 284 45 529 c 2,11,-1
 45 552 l 2,12,13
 45 796 45 796 178 949 c 128,-1,14
 311 1102 311 1102 557 1102 c 0,15,16
 763 1102 763 1102 886.5 987.5 c 128,-1,17
 1010 873 1010 873 1006 674 c 1,18,-1
 1004 668 l 1,19,-1
 696 668 l 1,20,21
 696 745 696 745 661 793.5 c 128,-1,22
 626 842 626 842 557 842 c 0,23,24
 459 842 459 842 420.5 763.5 c 128,-1,25
 382 685 382 685 382 552 c 2,26,-1
 382 529 l 2,27,28
 382 393 382 393 420.5 316 c 128,-1,29
 459 239 459 239 559 239 c 0,0,1
EndSplineSet
Validated: 33
Substitution2: "'smcp' Lowercase to Small Capitals lookup 0 subtable" C.smcp
EndChar

StartChar: d
Encoding: 100 100 71
Width: 1151
GlyphClass: 1
Flags: W
LayerCount: 2
Fore
SplineSet
51 539 m 2,0,1
 51 792 51 792 161.5 947 c 128,-1,2
 272 1102 272 1102 473 1102 c 0,3,4
 548 1102 548 1102 608.5 1067.5 c 128,-1,5
 669 1033 669 1033 717 969 c 1,6,-1
 717 1560 l 1,7,-1
 1055 1560 l 1,8,-1
 1055 0 l 1,9,-1
 759 0 l 1,10,-1
 736 132 l 1,11,12
 687 58 687 58 621.5 18.5 c 128,-1,13
 556 -21 556 -21 471 -21 c 0,14,15
 271 -21 271 -21 161 127 c 128,-1,16
 51 275 51 275 51 518 c 2,17,-1
 51 539 l 2,0,1
389 518 m 2,18,19
 389 386 389 386 427.5 312.5 c 128,-1,20
 466 239 466 239 557 239 c 0,21,22
 610 239 610 239 650.5 258.5 c 128,-1,23
 691 278 691 278 717 316 c 1,24,-1
 717 753 l 1,25,26
 691 796 691 796 651 819 c 128,-1,27
 611 842 611 842 559 842 c 0,28,29
 469 842 469 842 429 759 c 128,-1,30
 389 676 389 676 389 539 c 2,31,-1
 389 518 l 2,18,19
EndSplineSet
Validated: 1
Substitution2: "'smcp' Lowercase to Small Capitals lookup 0 subtable" D.smcp
EndChar

StartChar: e
Encoding: 101 101 72
Width: 1070
GlyphClass: 1
Flags: W
LayerCount: 2
Fore
SplineSet
576 -21 m 0,0,1
 330 -21 330 -21 190.5 128 c 128,-1,2
 51 277 51 277 51 505 c 2,3,-1
 51 543 l 2,4,5
 51 791 51 791 182.5 947 c 128,-1,6
 314 1103 314 1103 563 1102 c 0,7,8
 782 1102 782 1102 902.5 971 c 128,-1,9
 1023 840 1023 840 1023 612 c 2,10,-1
 1023 435 l 1,11,-1
 403 435 l 1,12,-1
 401 429 l 1,13,14
 409 344 409 344 464 291.5 c 128,-1,15
 519 239 519 239 622 239 c 0,16,17
 719 239 719 239 783.5 255 c 128,-1,18
 848 271 848 271 931 306 c 1,19,-1
 1012 100 l 1,20,21
 942 49 942 49 824 14 c 128,-1,22
 706 -21 706 -21 576 -21 c 0,0,1
563 842 m 0,23,24
 482 842 482 842 443.5 790.5 c 128,-1,25
 405 739 405 739 399 651 c 1,26,-1
 401 646 l 1,27,-1
 693 646 l 1,28,-1
 693 672 l 2,29,30
 693 756 693 756 663.5 799 c 128,-1,31
 634 842 634 842 563 842 c 0,23,24
EndSplineSet
Validated: 33
Substitution2: "'smcp' Lowercase to Small Capitals lookup 0 subtable" E.smcp
EndChar

StartChar: f
Encoding: 102 102 73
Width: 734
GlyphClass: 1
Flags: W
LayerCount: 2
Fore
SplineSet
169 0 m 1,0,-1
 169 848 l 1,1,-1
 13 848 l 1,2,-1
 13 1082 l 1,3,-1
 169 1082 l 1,4,-1
 169 1194 l 2,5,6
 169 1380 169 1380 281 1480.5 c 128,-1,7
 393 1581 393 1581 598 1581 c 0,8,9
 637 1581 637 1581 676.5 1575.5 c 128,-1,10
 716 1570 716 1570 765 1560 c 1,11,-1
 740 1311 l 1,12,13
 712 1316 712 1316 691 1318.5 c 128,-1,14
 670 1321 670 1321 640 1321 c 0,15,16
 576 1321 576 1321 542 1288 c 128,-1,17
 508 1255 508 1255 508 1194 c 2,18,-1
 508 1082 l 1,19,-1
 722 1082 l 1,20,-1
 722 848 l 1,21,-1
 508 848 l 1,22,-1
 508 0 l 1,23,-1
 169 0 l 1,0,-1
EndSplineSet
Validated: 1
Substitution2: "'smcp' Lowercase to Small Capitals lookup 0 subtable" F.smcp
EndChar

StartChar: g
Encoding: 103 103 74
Width: 1151
GlyphClass: 1
Flags: W
LayerCount: 2
Fore
SplineSet
50 539 m 2,0,1
 50 792 50 792 160.5 947 c 128,-1,2
 271 1102 271 1102 472 1102 c 0,3,4
 557 1102 557 1102 622 1061.5 c 128,-1,5
 687 1021 687 1021 734 947 c 1,6,-1
 756 1082 l 1,7,-1
 1054 1082 l 1,8,-1
 1054 12 l 2,9,10
 1054 -202 1054 -202 907.5 -319.5 c 128,-1,11
 761 -437 761 -437 504 -437 c 0,12,13
 420 -437 420 -437 328 -414 c 128,-1,14
 236 -391 236 -391 152 -352 c 1,15,-1
 210 -102 l 1,16,17
 283 -134 283 -134 349.5 -149.5 c 128,-1,18
 416 -165 416 -165 502 -165 c 0,19,20
 610 -165 610 -165 662.5 -122 c 128,-1,21
 715 -79 715 -79 715 14 c 2,22,-1
 715 98 l 1,23,24
 669 39 669 39 608.5 9 c 128,-1,25
 548 -21 548 -21 470 -21 c 0,26,27
 270 -21 270 -21 160 127 c 128,-1,28
 50 275 50 275 50 518 c 2,29,-1
 50 539 l 2,0,1
387 518 m 2,30,31
 387 386 387 386 425.5 312.5 c 128,-1,32
 464 239 464 239 556 239 c 0,33,34
 611 239 611 239 650.5 256 c 128,-1,35
 690 273 690 273 715 307 c 1,36,-1
 715 762 l 1,37,38
 690 801 690 801 651 821.5 c 128,-1,39
 612 842 612 842 558 842 c 0,40,41
 468 842 468 842 427.5 758.5 c 128,-1,42
 387 675 387 675 387 539 c 2,43,-1
 387 518 l 2,30,31
EndSplineSet
Validated: 1
Substitution2: "'smcp' Lowercase to Small Capitals lookup 0 subtable" G.smcp
EndChar

StartChar: h
Encoding: 104 104 75
Width: 1151
GlyphClass: 1
Flags: W
LayerCount: 2
Fore
SplineSet
424 948 m 1,0,1
 473 1021 473 1021 543.5 1061.5 c 128,-1,2
 614 1102 614 1102 699 1102 c 0,3,4
 867 1102 867 1102 963 985 c 128,-1,5
 1059 868 1059 868 1059 622 c 2,6,-1
 1059 0 l 1,7,-1
 721 0 l 1,8,-1
 721 624 l 2,9,10
 721 748 721 748 689 795 c 128,-1,11
 657 842 657 842 592 842 c 0,12,13
 535 842 535 842 493 825.5 c 128,-1,14
 451 809 451 809 424 779 c 1,15,-1
 424 0 l 1,16,-1
 86 0 l 1,17,-1
 86 1560 l 1,18,-1
 424 1560 l 1,19,-1
 424 948 l 1,0,1
EndSplineSet
Validated: 1
Substitution2: "'smcp' Lowercase to Small Capitals lookup 0 subtable" H.smcp
EndChar

StartChar: i
Encoding: 105 105 76
Width: 561
GlyphClass: 1
Flags: W
LayerCount: 2
Fore
SplineSet
450 0 m 1,0,-1
 111 0 l 1,1,-1
 111 1082 l 1,2,-1
 450 1082 l 1,3,-1
 450 0 l 1,0,-1
450 1333 m 1,4,-1
 111 1333 l 1,5,-1
 111 1560 l 1,6,-1
 450 1560 l 1,7,-1
 450 1333 l 1,4,-1
EndSplineSet
Validated: 1
Substitution2: "'smcp' Lowercase to Small Capitals lookup 0 subtable" I.smcp
EndChar

StartChar: j
Encoding: 106 106 77
Width: 548
GlyphClass: 1
Flags: W
LayerCount: 2
Fore
SplineSet
454 1082 m 1,0,-1
 454 -15 l 2,1,2
 454 -217 454 -217 345.5 -327 c 128,-1,3
 237 -437 237 -437 44 -437 c 0,4,5
 0 -437 0 -437 -36.5 -433 c 128,-1,6
 -73 -429 -73 -429 -115 -420 c 1,7,-1
 -101 -165 l 1,8,9
 -72 -171 -72 -171 -51.5 -174 c 128,-1,10
 -31 -177 -31 -177 0 -177 c 0,11,12
 56 -177 56 -177 85.5 -136 c 128,-1,13
 115 -95 115 -95 115 -15 c 2,14,-1
 115 1082 l 1,15,-1
 454 1082 l 1,0,-1
448 1334 m 1,16,-1
 109 1334 l 1,17,-1
 109 1560 l 1,18,-1
 448 1560 l 1,19,-1
 448 1334 l 1,16,-1
EndSplineSet
Validated: 1
Substitution2: "'smcp' Lowercase to Small Capitals lookup 0 subtable" J.smcp
EndChar

StartChar: k
Encoding: 107 107 78
Width: 1119
GlyphClass: 1
Flags: W
LayerCount: 2
Fore
SplineSet
495 430 m 1,0,-1
 434 430 l 1,1,-1
 434 0 l 1,2,-1
 96 0 l 1,3,-1
 96 1560 l 1,4,-1
 434 1560 l 1,5,-1
 434 685 l 1,6,-1
 482 685 l 1,7,-1
 710 1082 l 1,8,-1
 1097 1082 l 1,9,-1
 764 594 l 1,10,-1
 1152 0 l 1,11,-1
 767 0 l 1,12,-1
 495 430 l 1,0,-1
EndSplineSet
Validated: 1
Substitution2: "'smcp' Lowercase to Small Capitals lookup 0 subtable" K.smcp
EndChar

StartChar: l
Encoding: 108 108 79
Width: 561
GlyphClass: 1
Flags: W
LayerCount: 2
Fore
SplineSet
450 0 m 1,0,-1
 111 0 l 1,1,-1
 111 1560 l 1,2,-1
 450 1560 l 1,3,-1
 450 0 l 1,0,-1
EndSplineSet
Validated: 1
Substitution2: "'smcp' Lowercase to Small Capitals lookup 0 subtable" L.smcp
EndChar

StartChar: m
Encoding: 109 109 80
Width: 1764
GlyphClass: 1
Flags: W
LayerCount: 2
Fore
SplineSet
414 1082 m 1,0,-1
 426 939 l 1,1,2
 477 1017 477 1017 554.5 1059.5 c 128,-1,3
 632 1102 632 1102 732 1102 c 0,4,5
 833 1102 833 1102 906 1058 c 128,-1,6
 979 1014 979 1014 1016 924 c 1,7,8
 1066 1009 1066 1009 1144.5 1055.5 c 128,-1,9
 1223 1102 1223 1102 1328 1102 c 0,10,11
 1486 1102 1486 1102 1576.5 988.5 c 128,-1,12
 1667 875 1667 875 1667 639 c 2,13,-1
 1667 0 l 1,14,-1
 1328 0 l 1,15,-1
 1328 639 l 2,16,17
 1328 755 1328 755 1295.5 798.5 c 128,-1,18
 1263 842 1263 842 1198 842 c 0,19,20
 1149 842 1149 842 1111.5 824.5 c 128,-1,21
 1074 807 1074 807 1048 776 c 1,22,23
 1048 759 1048 759 1049 746.5 c 128,-1,24
 1050 734 1050 734 1050 722 c 2,25,-1
 1050 0 l 1,26,-1
 712 0 l 1,27,-1
 712 639 l 2,28,29
 712 756 712 756 680 799 c 128,-1,30
 648 842 648 842 581 842 c 0,31,32
 535 842 535 842 497.5 824.5 c 128,-1,33
 460 807 460 807 434 776 c 1,34,-1
 434 0 l 1,35,-1
 96 0 l 1,36,-1
 96 1082 l 1,37,-1
 414 1082 l 1,0,-1
EndSplineSet
Validated: 1
Substitution2: "'smcp' Lowercase to Small Capitals lookup 0 subtable" M.smcp
EndChar

StartChar: n
Encoding: 110 110 81
Width: 1151
GlyphClass: 1
Flags: W
LayerCount: 2
Fore
SplineSet
407 1082 m 1,0,-1
 420 930 l 1,1,2
 473 1011 473 1011 551 1056.5 c 128,-1,3
 629 1102 629 1102 725 1102 c 0,4,5
 884 1102 884 1102 973.5 994 c 128,-1,6
 1063 886 1063 886 1063 651 c 2,7,-1
 1063 0 l 1,8,-1
 725 0 l 1,9,-1
 725 652 l 2,10,11
 725 755 725 755 692 798.5 c 128,-1,12
 659 842 659 842 596 842 c 0,13,14
 542 842 542 842 499 823 c 128,-1,15
 456 804 456 804 427 769 c 1,16,-1
 427 0 l 1,17,-1
 90 0 l 1,18,-1
 90 1082 l 1,19,-1
 407 1082 l 1,0,-1
EndSplineSet
Validated: 1
Substitution2: "'smcp' Lowercase to Small Capitals lookup 0 subtable" N.smcp
EndChar

StartChar: o
Encoding: 111 111 82
Width: 1151
GlyphClass: 1
Flags: W
LayerCount: 2
Fore
SplineSet
51 551 m 2,0,1
 51 795 51 795 189 948.5 c 128,-1,2
 327 1102 327 1102 574 1102 c 0,3,4
 822 1102 822 1102 960 948.5 c 128,-1,5
 1098 795 1098 795 1098 551 c 2,6,-1
 1098 530 l 2,7,8
 1098 285 1098 285 960 132 c 128,-1,9
 822 -21 822 -21 576 -21 c 0,10,11
 327 -21 327 -21 189 132 c 128,-1,12
 51 285 51 285 51 530 c 2,13,-1
 51 551 l 2,0,1
389 530 m 2,14,15
 389 394 389 394 431.5 316.5 c 128,-1,16
 474 239 474 239 576 239 c 0,17,18
 675 239 675 239 718 317 c 128,-1,19
 761 395 761 395 761 530 c 2,20,-1
 761 551 l 2,21,22
 761 683 761 683 718 762.5 c 128,-1,23
 675 842 675 842 574 842 c 0,24,25
 474 842 474 842 431.5 762 c 128,-1,26
 389 682 389 682 389 551 c 2,27,-1
 389 530 l 2,14,15
EndSplineSet
Validated: 1
Substitution2: "'smcp' Lowercase to Small Capitals lookup 0 subtable" O.smcp
EndChar

StartChar: p
Encoding: 112 112 83
Width: 1151
GlyphClass: 1
Flags: W
LayerCount: 2
Fore
SplineSet
1098 518 m 2,0,1
 1098 274 1098 274 988 126.5 c 128,-1,2
 878 -21 878 -21 678 -21 c 0,3,4
 600 -21 600 -21 539.5 9 c 128,-1,5
 479 39 479 39 434 96 c 1,6,-1
 434 -416 l 1,7,-1
 96 -416 l 1,8,-1
 96 1082 l 1,9,-1
 415 1082 l 1,10,-1
 425 964 l 1,11,12
 470 1030 470 1030 532.5 1066 c 128,-1,13
 595 1102 595 1102 676 1102 c 0,14,15
 877 1102 877 1102 987.5 947 c 128,-1,16
 1098 792 1098 792 1098 539 c 2,17,-1
 1098 518 l 2,0,1
761 539 m 2,18,19
 761 676 761 676 721 759 c 128,-1,20
 681 842 681 842 593 842 c 0,21,22
 536 842 536 842 496.5 821 c 128,-1,23
 457 800 457 800 434 760 c 1,24,-1
 434 308 l 1,25,26
 458 273 458 273 497.5 256 c 128,-1,27
 537 239 537 239 595 239 c 0,28,29
 684 239 684 239 722.5 312.5 c 128,-1,30
 761 386 761 386 761 518 c 2,31,-1
 761 539 l 2,18,19
EndSplineSet
Validated: 1
Substitution2: "'smcp' Lowercase to Small Capitals lookup 0 subtable" P.smcp
EndChar

StartChar: q
Encoding: 113 113 84
Width: 1151
GlyphClass: 1
Flags: W
LayerCount: 2
Fore
SplineSet
51 539 m 2,0,1
 51 792 51 792 161.5 947 c 128,-1,2
 272 1102 272 1102 473 1102 c 0,3,4
 558 1102 558 1102 623 1061.5 c 128,-1,5
 688 1021 688 1021 735 947 c 1,6,-1
 761 1082 l 1,7,-1
 1056 1082 l 1,8,-1
 1056 -416 l 1,9,-1
 718 -416 l 1,10,-1
 718 100 l 1,11,12
 672 41 672 41 610.5 10 c 128,-1,13
 549 -21 549 -21 471 -21 c 0,14,15
 271 -21 271 -21 161 127 c 128,-1,16
 51 275 51 275 51 518 c 2,17,-1
 51 539 l 2,0,1
389 518 m 2,18,19
 389 386 389 386 427.5 312.5 c 128,-1,20
 466 239 466 239 557 239 c 0,21,22
 613 239 613 239 653 256.5 c 128,-1,23
 693 274 693 274 718 309 c 1,24,-1
 718 759 l 1,25,26
 693 800 693 800 653.5 821 c 128,-1,27
 614 842 614 842 559 842 c 0,28,29
 469 842 469 842 429 759 c 128,-1,30
 389 676 389 676 389 539 c 2,31,-1
 389 518 l 2,18,19
EndSplineSet
Validated: 1
Substitution2: "'smcp' Lowercase to Small Capitals lookup 0 subtable" Q.smcp
EndChar

StartChar: r
Encoding: 114 114 85
Width: 722
GlyphClass: 1
Flags: W
LayerCount: 2
Fore
SplineSet
694 794 m 1,0,-1
 584 795 l 2,1,2
 526 795 526 795 489 773.5 c 128,-1,3
 452 752 452 752 434 713 c 1,4,-1
 434 0 l 1,5,-1
 96 0 l 1,6,-1
 96 1082 l 1,7,-1
 414 1082 l 1,8,-1
 426 923 l 1,9,10
 460 1008 460 1008 516 1055 c 128,-1,11
 572 1102 572 1102 647 1102 c 0,12,13
 670 1102 670 1102 688 1099 c 128,-1,14
 706 1096 706 1096 726 1090 c 1,15,-1
 694 794 l 1,0,-1
EndSplineSet
Validated: 1
Substitution2: "'smcp' Lowercase to Small Capitals lookup 0 subtable" R.smcp
EndChar

StartChar: s
Encoding: 115 115 86
Width: 1048
GlyphClass: 1
Flags: W
LayerCount: 2
Fore
SplineSet
660 304 m 0,0,1
 660 344 660 344 614.5 375.5 c 128,-1,2
 569 407 569 407 449 432 c 0,3,4
 260 469 260 469 164 546.5 c 128,-1,5
 68 624 68 624 68 760 c 0,6,7
 68 903 68 903 188 1002.5 c 128,-1,8
 308 1102 308 1102 513 1102 c 0,9,10
 729 1102 729 1102 857 1005.5 c 128,-1,11
 985 909 985 909 979 756 c 1,12,-1
 977 750 l 1,13,-1
 649 750 l 1,14,15
 649 814 649 814 617 847 c 128,-1,16
 585 880 585 880 512 880 c 0,17,18
 459 880 459 880 423 851 c 128,-1,19
 387 822 387 822 387 777 c 0,20,21
 387 734 387 734 428.5 704 c 128,-1,22
 470 674 470 674 596 650 c 0,23,24
 795 611 795 611 890 533.5 c 128,-1,25
 985 456 985 456 985 314 c 0,26,27
 985 168 985 168 855.5 73.5 c 128,-1,28
 726 -21 726 -21 513 -21 c 0,29,30
 292 -21 292 -21 163.5 91 c 128,-1,31
 35 203 35 203 41 341 c 1,32,-1
 43 347 l 1,33,-1
 349 347 l 1,34,35
 351 270 351 270 395.5 236 c 128,-1,36
 440 202 440 202 522 202 c 0,37,38
 590 202 590 202 625 228.5 c 128,-1,39
 660 255 660 255 660 304 c 0,0,1
EndSplineSet
Validated: 33
Substitution2: "'smcp' Lowercase to Small Capitals lookup 0 subtable" S.smcp
EndChar

StartChar: t
Encoding: 116 116 87
Width: 723
GlyphClass: 1
Flags: W
LayerCount: 2
Fore
SplineSet
484 1351 m 1,0,-1
 484 1082 l 1,1,-1
 655 1082 l 1,2,-1
 655 848 l 1,3,-1
 484 848 l 1,4,-1
 484 352 l 2,5,6
 484 294 484 294 507.5 268.5 c 128,-1,7
 531 243 531 243 571 243 c 0,8,9
 597 243 597 243 612.5 245 c 128,-1,10
 628 247 628 247 652 253 c 1,11,-1
 675 3 l 1,12,13
 624 -10 624 -10 583 -15.5 c 128,-1,14
 542 -21 542 -21 486 -21 c 0,15,16
 319 -21 319 -21 232.5 68 c 128,-1,17
 146 157 146 157 146 350 c 2,18,-1
 146 848 l 1,19,-1
 -5 848 l 1,20,-1
 -5 1082 l 1,21,-1
 146 1082 l 1,22,-1
 146 1351 l 1,23,-1
 484 1351 l 1,0,-1
EndSplineSet
Validated: 1
Substitution2: "'smcp' Lowercase to Small Capitals lookup 0 subtable" T.smcp
EndChar

StartChar: u
Encoding: 117 117 88
Width: 1151
GlyphClass: 1
Flags: W
LayerCount: 2
Fore
SplineSet
748 162 m 1,0,1
 700 74 700 74 623.5 26.5 c 128,-1,2
 547 -21 547 -21 447 -21 c 0,3,4
 279 -21 279 -21 183.5 97 c 128,-1,5
 88 215 88 215 88 462 c 2,6,-1
 88 1082 l 1,7,-1
 425 1082 l 1,8,-1
 425 460 l 2,9,10
 425 333 425 333 457.5 286 c 128,-1,11
 490 239 490 239 558 239 c 0,12,13
 612 239 612 239 653 254 c 128,-1,14
 694 269 694 269 723 299 c 1,15,-1
 723 1082 l 1,16,-1
 1061 1082 l 1,17,-1
 1061 0 l 1,18,-1
 789 0 l 1,19,-1
 748 162 l 1,0,1
EndSplineSet
Validated: 1
Substitution2: "'smcp' Lowercase to Small Capitals lookup 0 subtable" U.smcp
EndChar

StartChar: v
Encoding: 118 118 89
Width: 1053
GlyphClass: 1
Flags: W
LayerCount: 2
Fore
SplineSet
501 446 m 1,0,-1
 521 331 l 1,1,-1
 527 330 l 1,2,-1
 549 446 l 1,3,-1
 692 1082 l 1,4,-1
 1047 1082 l 1,5,-1
 695 0 l 1,6,-1
 352 0 l 1,7,-1
 0 1082 l 1,8,-1
 356 1082 l 1,9,-1
 501 446 l 1,0,-1
EndSplineSet
Validated: 1
Substitution2: "'smcp' Lowercase to Small Capitals lookup 0 subtable" V.smcp
EndChar

StartChar: w
Encoding: 119 119 90
Width: 1485
GlyphClass: 1
Flags: W
LayerCount: 2
Fore
SplineSet
1025 477 m 1,0,-1
 1031 477 l 1,1,-1
 1138 1082 l 1,2,-1
 1460 1082 l 1,3,-1
 1206 0 l 1,4,-1
 920 0 l 1,5,-1
 744 554 l 1,6,-1
 738 554 l 1,7,-1
 561 0 l 1,8,-1
 276 0 l 1,9,-1
 21 1082 l 1,10,-1
 343 1082 l 1,11,-1
 451 473 l 1,12,-1
 457 473 l 1,13,-1
 634 1082 l 1,14,-1
 847 1082 l 1,15,-1
 1025 477 l 1,0,-1
EndSplineSet
Validated: 1
Substitution2: "'smcp' Lowercase to Small Capitals lookup 0 subtable" W.smcp
EndChar

StartChar: x
Encoding: 120 120 91
Width: 1053
GlyphClass: 1
Flags: W
LayerCount: 2
Fore
SplineSet
524 763 m 1,0,-1
 530 763 l 1,1,-1
 667 1082 l 1,2,-1
 1046 1082 l 1,3,-1
 732 547 l 1,4,-1
 1057 0 l 1,5,-1
 678 0 l 1,6,-1
 534 329 l 1,7,-1
 528 329 l 1,8,-1
 384 0 l 1,9,-1
 5 0 l 1,10,-1
 330 547 l 1,11,-1
 15 1082 l 1,12,-1
 392 1082 l 1,13,-1
 524 763 l 1,0,-1
EndSplineSet
Validated: 1
Substitution2: "'smcp' Lowercase to Small Capitals lookup 0 subtable" X.smcp
EndChar

StartChar: y
Encoding: 121 121 92
Width: 1053
GlyphClass: 1
Flags: W
LayerCount: 2
Fore
SplineSet
515 477 m 1,0,-1
 516 469 l 1,1,-1
 522 469 l 1,2,-1
 701 1082 l 1,3,-1
 1061 1082 l 1,4,-1
 630 -161 l 1,5,6
 580 -281 580 -281 501 -359 c 128,-1,7
 422 -437 422 -437 250 -437 c 0,8,9
 206 -437 206 -437 178 -431.5 c 128,-1,10
 150 -426 150 -426 90 -411 c 1,11,-1
 131 -170 l 1,12,13
 145 -173 145 -173 152 -174.5 c 128,-1,14
 159 -176 159 -176 170 -176 c 0,15,16
 250 -176 250 -176 287 -152.5 c 128,-1,17
 324 -129 324 -129 342 -82 c 2,18,-1
 369 -12 l 1,19,-1
 -5 1082 l 1,20,-1
 354 1082 l 1,21,-1
 515 477 l 1,0,-1
EndSplineSet
Validated: 1
Substitution2: "'smcp' Lowercase to Small Capitals lookup 0 subtable" Y.smcp
EndChar

StartChar: z
Encoding: 122 122 93
Width: 1053
GlyphClass: 1
Flags: W
LayerCount: 2
Fore
SplineSet
492 260 m 1,0,-1
 984 260 l 1,1,-1
 984 0 l 1,2,-1
 65 0 l 1,3,-1
 65 188 l 1,4,-1
 546 822 l 1,5,-1
 86 822 l 1,6,-1
 86 1082 l 1,7,-1
 974 1082 l 1,8,-1
 974 900 l 1,9,-1
 492 260 l 1,0,-1
EndSplineSet
Validated: 1
Substitution2: "'smcp' Lowercase to Small Capitals lookup 0 subtable" Z.smcp
EndChar

StartChar: braceleft
Encoding: 123 123 94
Width: 665
GlyphClass: 1
Flags: W
LayerCount: 2
Fore
SplineSet
562 -360 m 1,0,1
 367 -305 367 -305 284.5 -185 c 128,-1,2
 202 -65 202 -65 202 106 c 2,3,-1
 202 309 l 2,4,5
 202 401 202 401 162 453 c 128,-1,6
 122 505 122 505 40 505 c 1,7,-1
 40 732 l 1,8,9
 122 732 122 732 162 783.5 c 128,-1,10
 202 835 202 835 202 929 c 2,11,-1
 202 1132 l 2,12,13
 202 1303 202 1303 284.5 1422.5 c 128,-1,14
 367 1542 367 1542 562 1597 c 1,15,-1
 625 1421 l 1,16,17
 552 1392 552 1392 523 1318 c 128,-1,18
 494 1244 494 1244 494 1132 c 2,19,-1
 494 929 l 2,20,21
 494 825 494 825 448 744.5 c 128,-1,22
 402 664 402 664 309 619 c 1,23,24
 402 572 402 572 448 491.5 c 128,-1,25
 494 411 494 411 494 309 c 2,26,-1
 494 106 l 2,27,28
 494 -6 494 -6 523 -80 c 128,-1,29
 552 -154 552 -154 625 -183 c 1,30,-1
 562 -360 l 1,0,1
EndSplineSet
Validated: 1
EndChar

StartChar: bar
Encoding: 124 124 95
Width: 523
GlyphClass: 1
Flags: W
LayerCount: 2
Fore
SplineSet
388 -270 m 1,0,-1
 142 -270 l 1,1,-1
 142 1456 l 1,2,-1
 388 1456 l 1,3,-1
 388 -270 l 1,0,-1
EndSplineSet
Validated: 1
EndChar

StartChar: braceright
Encoding: 125 125 96
Width: 665
GlyphClass: 1
Flags: W
LayerCount: 2
Fore
SplineSet
41 -183 m 1,0,1
 113 -154 113 -154 142.5 -80 c 128,-1,2
 172 -6 172 -6 172 106 c 2,3,-1
 172 309 l 2,4,5
 172 412 172 412 217.5 492.5 c 128,-1,6
 263 573 263 573 358 619 c 1,7,8
 263 664 263 664 217.5 744.5 c 128,-1,9
 172 825 172 825 172 929 c 2,10,-1
 172 1132 l 2,11,12
 172 1244 172 1244 142.5 1318 c 128,-1,13
 113 1392 113 1392 41 1421 c 1,14,-1
 104 1597 l 1,15,16
 298 1542 298 1542 381 1422.5 c 128,-1,17
 464 1303 464 1303 464 1132 c 2,18,-1
 464 929 l 2,19,20
 464 835 464 835 503.5 783.5 c 128,-1,21
 543 732 543 732 626 732 c 1,22,-1
 626 505 l 1,23,24
 543 505 543 505 503.5 453 c 128,-1,25
 464 401 464 401 464 309 c 2,26,-1
 464 106 l 2,27,28
 464 -65 464 -65 381 -185 c 128,-1,29
 298 -305 298 -305 104 -360 c 1,30,-1
 41 -183 l 1,0,1
EndSplineSet
Validated: 1
EndChar

StartChar: asciitilde
Encoding: 126 126 97
Width: 1295
GlyphClass: 1
Flags: W
LayerCount: 2
Fore
SplineSet
1197 769 m 1,0,1
 1197 594 1197 594 1108.5 480.5 c 128,-1,2
 1020 367 1020 367 882 367 c 0,3,4
 799 367 799 367 728 397.5 c 128,-1,5
 657 428 657 428 582 497 c 0,6,7
 535 540 535 540 502.5 558 c 128,-1,8
 470 576 470 576 429 576 c 0,9,10
 386 576 386 576 355.5 526 c 128,-1,11
 325 476 325 476 325 405 c 1,12,-1
 94 435 l 1,13,14
 94 610 94 610 181 723 c 128,-1,15
 268 836 268 836 407 836 c 0,16,17
 488 836 488 836 563 803.5 c 128,-1,18
 638 771 638 771 710 707 c 0,19,20
 753 665 753 665 786.5 646.5 c 128,-1,21
 820 628 820 628 859 628 c 0,22,23
 902 628 902 628 933.5 678 c 128,-1,24
 965 728 965 728 965 800 c 1,25,-1
 1197 769 l 1,0,1
EndSplineSet
Validated: 1
EndChar

StartChar: exclamdown
Encoding: 161 161 99
Width: 615
GlyphClass: 1
Flags: W
LayerCount: 2
Fore
SplineSet
480 -374 m 1,0,-1
 141 -374 l 1,1,-1
 141 566 l 1,2,-1
 480 566 l 1,3,-1
 480 -374 l 1,0,-1
480 799 m 1,4,-1
 141 799 l 1,5,-1
 141 1082 l 1,6,-1
 480 1082 l 1,7,-1
 480 799 l 1,4,-1
EndSplineSet
Validated: 1
EndChar

StartChar: cent
Encoding: 162 162 100
Width: 1210
GlyphClass: 1
Flags: W
LayerCount: 2
Fore
SplineSet
559 239 m 0,0,1
 628 239 628 239 662 276.5 c 128,-1,2
 696 314 696 314 696 385 c 1,3,-1
 1012 385 l 1,4,5
 1012 241 1012 241 930 139 c 128,-1,6
 848 37 848 37 711 -1 c 1,7,-1
 711 -245 l 1,8,-1
 511 -245 l 1,9,-1
 511 -19 l 1,10,11
 286 -3 286 -3 165.5 147 c 128,-1,12
 45 297 45 297 45 529 c 2,13,-1
 45 552 l 2,14,15
 45 783 45 783 165.5 933.5 c 128,-1,16
 286 1084 286 1084 511 1100 c 1,17,-1
 511 1318 l 1,18,-1
 711 1318 l 1,19,-1
 711 1083 l 1,20,21
 852 1044 852 1044 932 936.5 c 128,-1,22
 1012 829 1012 829 1012 668 c 1,23,-1
 696 668 l 1,24,25
 696 745 696 745 661 793.5 c 128,-1,26
 626 842 626 842 557 842 c 0,27,28
 459 842 459 842 420.5 763.5 c 128,-1,29
 382 685 382 685 382 552 c 2,30,-1
 382 529 l 2,31,32
 382 393 382 393 420.5 316 c 128,-1,33
 459 239 459 239 559 239 c 0,0,1
EndSplineSet
Validated: 1
EndChar

StartChar: sterling
Encoding: 163 163 101
Width: 1227
GlyphClass: 1
Flags: W
LayerCount: 2
Fore
SplineSet
610 575 m 1,0,-1
 613 524 l 1,1,2
 613 451 613 451 578.5 383 c 128,-1,3
 544 315 544 315 480 260 c 1,4,-1
 1172 260 l 1,5,-1
 1172 0 l 1,6,-1
 166 0 l 1,7,-1
 166 260 l 1,8,-1
 176 260 l 1,9,10
 223 272 223 272 246.5 346.5 c 128,-1,11
 270 421 270 421 270 503 c 2,12,-1
 267 575 l 1,13,-1
 103 575 l 1,14,-1
 103 836 l 1,15,-1
 257 836 l 1,16,-1
 250 1021 l 1,17,18
 250 1234 250 1234 374.5 1355.5 c 128,-1,19
 499 1477 499 1477 708 1477 c 0,20,21
 931 1477 931 1477 1053 1362 c 128,-1,22
 1175 1247 1175 1247 1171 1058 c 1,23,-1
 1169 1052 l 1,24,-1
 839 1052 l 1,25,26
 839 1137 839 1137 801.5 1177 c 128,-1,27
 764 1217 764 1217 707 1217 c 256,28,29
 650 1217 650 1217 619 1166 c 128,-1,30
 588 1115 588 1115 588 1021 c 1,31,-1
 597 836 l 1,32,-1
 922 836 l 1,33,-1
 922 575 l 1,34,-1
 610 575 l 1,0,-1
EndSplineSet
Validated: 33
EndChar

StartChar: currency
Encoding: 164 164 102
Width: 1397
GlyphClass: 1
Flags: W
LayerCount: 2
Fore
SplineSet
1061 107 m 1,0,1
 984 45 984 45 892 12.5 c 128,-1,2
 800 -20 800 -20 700 -20 c 0,3,4
 599 -20 599 -20 506.5 12.5 c 128,-1,5
 414 45 414 45 339 106 c 1,6,-1
 210 -26 l 1,7,-1
 69 118 l 1,8,-1
 204 255 l 1,9,10
 155 331 155 331 129.5 420.5 c 128,-1,11
 104 510 104 510 104 608 c 0,12,13
 104 709 104 709 132 802 c 128,-1,14
 160 895 160 895 213 973 c 1,15,-1
 69 1120 l 1,16,-1
 210 1264 l 1,17,-1
 352 1119 l 1,18,19
 426 1174 426 1174 514.5 1204 c 128,-1,20
 603 1234 603 1234 700 1234 c 0,21,22
 796 1234 796 1234 885 1203.5 c 128,-1,23
 974 1173 974 1173 1049 1117 c 1,24,-1
 1193 1265 l 1,25,-1
 1335 1120 l 1,26,-1
 1187 969 l 1,27,28
 1238 891 1238 891 1266 799.5 c 128,-1,29
 1294 708 1294 708 1294 608 c 0,30,31
 1294 511 1294 511 1268.5 422.5 c 128,-1,32
 1243 334 1243 334 1196 259 c 1,33,-1
 1335 118 l 1,34,-1
 1193 -27 l 1,35,-1
 1061 107 l 1,0,1
290 608 m 0,36,37
 290 424 290 424 409 298.5 c 128,-1,38
 528 173 528 173 700 173 c 0,39,40
 870 173 870 173 989.5 298.5 c 128,-1,41
 1109 424 1109 424 1109 608 c 0,42,43
 1109 791 1109 791 989.5 916.5 c 128,-1,44
 870 1042 870 1042 700 1042 c 0,45,46
 528 1042 528 1042 409 916.5 c 128,-1,47
 290 791 290 791 290 608 c 0,36,37
EndSplineSet
Validated: 1
EndChar

StartChar: yen
Encoding: 165 165 103
Width: 1258
GlyphClass: 1
Flags: W
LayerCount: 2
Fore
SplineSet
628 877 m 1,0,-1
 634 877 l 1,1,-1
 878 1456 l 1,2,-1
 1244 1456 l 1,3,-1
 878 742 l 1,4,-1
 1091 742 l 1,5,-1
 1091 558 l 1,6,-1
 796 558 l 1,7,-1
 796 452 l 1,8,-1
 1091 452 l 1,9,-1
 1091 269 l 1,10,-1
 796 269 l 1,11,-1
 796 0 l 1,12,-1
 459 0 l 1,13,-1
 459 269 l 1,14,-1
 136 269 l 1,15,-1
 136 452 l 1,16,-1
 459 452 l 1,17,-1
 459 558 l 1,18,-1
 136 558 l 1,19,-1
 136 742 l 1,20,-1
 385 742 l 1,21,-1
 18 1456 l 1,22,-1
 385 1456 l 1,23,-1
 628 877 l 1,0,-1
EndSplineSet
Validated: 1
EndChar

StartChar: brokenbar
Encoding: 166 166 104
Width: 524
GlyphClass: 1
Flags: W
LayerCount: 2
Fore
SplineSet
119 -270 m 1,0,-1
 119 525 l 1,1,-1
 411 525 l 1,2,-1
 411 -270 l 1,3,-1
 119 -270 l 1,0,-1
411 698 m 1,4,-1
 119 698 l 1,5,-1
 119 1456 l 1,6,-1
 411 1456 l 1,7,-1
 411 698 l 1,4,-1
EndSplineSet
Validated: 1
EndChar

StartChar: section
Encoding: 167 167 105
Width: 1301
GlyphClass: 1
Flags: W
LayerCount: 2
Fore
SplineSet
1196 500 m 0,0,1
 1196 410 1196 410 1156 343 c 128,-1,2
 1116 276 1116 276 1041 232 c 1,3,4
 1110 179 1110 179 1144.5 108.5 c 128,-1,5
 1179 38 1179 38 1179 -61 c 0,6,7
 1179 -241 1179 -241 1035.5 -342 c 128,-1,8
 892 -443 892 -443 648 -443 c 0,9,10
 410 -443 410 -443 253 -345 c 128,-1,11
 96 -247 96 -247 102 -31 c 1,12,-1
 103 -25 l 1,13,-1
 432 -25 l 1,14,15
 432 -112 432 -112 492 -147 c 128,-1,16
 552 -182 552 -182 648 -182 c 0,17,18
 742 -182 742 -182 791.5 -149.5 c 128,-1,19
 841 -117 841 -117 841 -62 c 0,20,21
 841 -6 841 -6 786 29.5 c 128,-1,22
 731 65 731 65 579 109 c 1,23,24
 332 173 332 173 213 266 c 128,-1,25
 94 359 94 359 94 528 c 0,26,27
 94 616 94 616 134 684.5 c 128,-1,28
 174 753 174 753 251 798 c 1,29,30
 180 850 180 850 145 920.5 c 128,-1,31
 110 991 110 991 110 1090 c 0,32,33
 110 1265 110 1265 255.5 1371 c 128,-1,34
 401 1477 401 1477 644 1477 c 0,35,36
 893 1477 893 1477 1033.5 1366.5 c 128,-1,37
 1174 1256 1174 1256 1169 1057 c 1,38,-1
 1167 1051 l 1,39,-1
 839 1051 l 1,40,41
 839 1124 839 1124 788 1170.5 c 128,-1,42
 737 1217 737 1217 644 1217 c 0,43,44
 545 1217 545 1217 497 1182 c 128,-1,45
 449 1147 449 1147 449 1092 c 0,46,47
 449 1029 449 1029 498.5 995.5 c 128,-1,48
 548 962 548 962 708 920 c 0,49,50
 957 858 957 858 1076.5 763.5 c 128,-1,51
 1196 669 1196 669 1196 500 c 0,0,1
597 652 m 0,52,53
 566 660 566 660 536.5 669 c 128,-1,54
 507 678 507 678 480 688 c 1,55,56
 455 667 455 667 443 636.5 c 128,-1,57
 431 606 431 606 431 568 c 0,58,59
 431 497 431 497 479.5 461 c 128,-1,60
 528 425 528 425 690 376 c 0,61,62
 723 367 723 367 752 358.5 c 128,-1,63
 781 350 781 350 808 342 c 1,64,65
 835 363 835 363 849.5 393.5 c 128,-1,66
 864 424 864 424 864 462 c 0,67,68
 864 524 864 524 807.5 564 c 128,-1,69
 751 604 751 604 597 652 c 0,52,53
EndSplineSet
Validated: 33
EndChar

StartChar: dieresis
Encoding: 168 168 106
Width: 1123
GlyphClass: 1
Flags: W
LayerCount: 2
Fore
SplineSet
953 1252 m 1,0,-1
 663 1252 l 1,1,-1
 663 1456 l 1,2,-1
 953 1456 l 1,3,-1
 953 1252 l 1,0,-1
438 1252 m 1,4,-1
 148 1252 l 1,5,-1
 148 1456 l 1,6,-1
 438 1456 l 1,7,-1
 438 1252 l 1,4,-1
EndSplineSet
Validated: 1
EndChar

StartChar: copyright
Encoding: 169 169 107
Width: 1608
GlyphClass: 1
Flags: W
LayerCount: 2
Fore
SplineSet
1108 596 m 1,0,-1
 1110 590 l 1,1,2
 1114 439 1114 439 1026 360.5 c 128,-1,3
 938 282 938 282 781 282 c 0,4,5
 621 282 621 282 526.5 388 c 128,-1,6
 432 494 432 494 432 669 c 2,7,-1
 432 788 l 2,8,9
 432 961 432 961 526.5 1068 c 128,-1,10
 621 1175 621 1175 781 1175 c 0,11,12
 938 1175 938 1175 1026.5 1095.5 c 128,-1,13
 1115 1016 1115 1016 1111 867 c 1,14,-1
 1109 861 l 1,15,-1
 961 861 l 1,16,17
 961 955 961 955 916 997.5 c 128,-1,18
 871 1040 871 1040 781 1040 c 0,19,20
 687 1040 687 1040 637 971 c 128,-1,21
 587 902 587 902 587 789 c 2,22,-1
 587 669 l 2,23,24
 587 554 587 554 637 485.5 c 128,-1,25
 687 417 687 417 781 417 c 0,26,27
 871 417 871 417 915.5 458.5 c 128,-1,28
 960 500 960 500 960 596 c 1,29,-1
 1108 596 l 1,0,-1
207 729 m 0,30,31
 207 465 207 465 378.5 284.5 c 128,-1,32
 550 104 550 104 795 104 c 0,33,34
 1039 104 1039 104 1210.5 284.5 c 128,-1,35
 1382 465 1382 465 1382 729 c 0,36,37
 1382 992 1382 992 1210.5 1171.5 c 128,-1,38
 1039 1351 1039 1351 795 1351 c 0,39,40
 549 1351 549 1351 378 1171.5 c 128,-1,41
 207 992 207 992 207 729 c 0,30,31
85 729 m 0,42,43
 85 1044 85 1044 292 1260 c 128,-1,44
 499 1476 499 1476 795 1476 c 0,45,46
 1090 1476 1090 1476 1297.5 1260 c 128,-1,47
 1505 1044 1505 1044 1505 729 c 0,48,49
 1505 413 1505 413 1297 196 c 128,-1,50
 1089 -21 1089 -21 795 -21 c 0,51,52
 499 -21 499 -21 292 196 c 128,-1,53
 85 413 85 413 85 729 c 0,42,43
EndSplineSet
Validated: 33
EndChar

StartChar: ordfeminine
Encoding: 170 170 108
Width: 904
GlyphClass: 1
Flags: W
LayerCount: 2
Fore
SplineSet
600 706 m 1,0,1
 592 727 592 727 587 750.5 c 128,-1,2
 582 774 582 774 579 800 c 1,3,4
 546 753 546 753 490.5 722.5 c 128,-1,5
 435 692 435 692 357 692 c 0,6,7
 238 692 238 692 173 753 c 128,-1,8
 108 814 108 814 108 920 c 0,9,10
 108 1031 108 1031 192.5 1091 c 128,-1,11
 277 1151 277 1151 439 1151 c 2,12,-1
 576 1151 l 1,13,-1
 576 1202 l 2,14,15
 576 1264 576 1264 546.5 1296.5 c 128,-1,16
 517 1329 517 1329 460 1329 c 0,17,18
 394 1329 394 1329 358 1303 c 128,-1,19
 322 1277 322 1277 322 1230 c 1,20,-1
 157 1243 l 1,21,-1
 156 1249 l 1,22,23
 150 1347 150 1347 235 1412 c 128,-1,24
 320 1477 320 1477 460 1477 c 0,25,26
 594 1477 594 1477 672.5 1406 c 128,-1,27
 751 1335 751 1335 751 1201 c 2,28,-1
 751 887 l 2,29,30
 751 836 751 836 757 792 c 128,-1,31
 763 748 763 748 777 706 c 1,32,-1
 600 706 l 1,0,1
400 836 m 0,33,34
 451 836 451 836 505 866 c 128,-1,35
 559 896 559 896 576 931 c 1,36,-1
 576 1034 l 1,37,-1
 440 1034 l 2,38,39
 366 1034 366 1034 324.5 1002 c 128,-1,40
 283 970 283 970 283 924 c 0,41,42
 283 881 283 881 312 858.5 c 128,-1,43
 341 836 341 836 400 836 c 0,33,34
EndSplineSet
Validated: 33
EndChar

StartChar: logicalnot
Encoding: 172 172 110
Width: 1124
GlyphClass: 1
Flags: W
LayerCount: 2
Fore
SplineSet
960 374 m 1,0,-1
 760 374 l 1,1,-1
 760 634 l 1,2,-1
 125 634 l 1,3,-1
 125 805 l 1,4,-1
 960 805 l 1,5,-1
 960 374 l 1,0,-1
EndSplineSet
Validated: 1
EndChar

StartChar: registered
Encoding: 174 174 112
Width: 1608
GlyphClass: 1
Flags: W
LayerCount: 2
Fore
SplineSet
85 729 m 0,0,1
 85 1044 85 1044 292 1260 c 128,-1,2
 499 1476 499 1476 795 1476 c 0,3,4
 1090 1476 1090 1476 1297.5 1260 c 128,-1,5
 1505 1044 1505 1044 1505 729 c 0,6,7
 1505 413 1505 413 1297 196 c 128,-1,8
 1089 -21 1089 -21 795 -21 c 0,9,10
 499 -21 499 -21 292 196 c 128,-1,11
 85 413 85 413 85 729 c 0,0,1
207 729 m 0,12,13
 207 465 207 465 378.5 284.5 c 128,-1,14
 550 104 550 104 795 104 c 0,15,16
 1039 104 1039 104 1210.5 284.5 c 128,-1,17
 1382 465 1382 465 1382 729 c 0,18,19
 1382 992 1382 992 1210.5 1171.5 c 128,-1,20
 1039 1351 1039 1351 795 1351 c 0,21,22
 549 1351 549 1351 378 1171.5 c 128,-1,23
 207 992 207 992 207 729 c 0,12,13
651 653 m 1,24,-1
 651 316 l 1,25,-1
 500 316 l 1,26,-1
 500 1166 l 1,27,-1
 781 1166 l 2,28,29
 932 1166 932 1166 1019 1097 c 128,-1,30
 1106 1028 1106 1028 1106 902 c 0,31,32
 1106 846 1106 846 1078.5 803.5 c 128,-1,33
 1051 761 1051 761 999 732 c 1,34,35
 1054 701 1054 701 1078.5 645.5 c 128,-1,36
 1103 590 1103 590 1103 515 c 2,37,-1
 1103 459 l 2,38,39
 1103 418 1103 418 1106.5 385.5 c 128,-1,40
 1110 353 1110 353 1120 332 c 1,41,-1
 1120 316 l 1,42,-1
 965 316 l 1,43,44
 956 337 956 337 954 377.5 c 128,-1,45
 952 418 952 418 952 460 c 2,46,-1
 952 514 l 2,47,48
 952 585 952 585 918.5 619 c 128,-1,49
 885 653 885 653 809 653 c 2,50,-1
 651 653 l 1,24,-1
651 787 m 1,51,-1
 779 787 l 2,52,53
 853 787 853 787 904.5 817 c 128,-1,54
 956 847 956 847 956 903 c 0,55,56
 956 975 956 975 917 1004 c 128,-1,57
 878 1033 878 1033 781 1033 c 2,58,-1
 651 1033 l 1,59,-1
 651 787 l 1,51,-1
EndSplineSet
Validated: 1
EndChar

StartChar: macron
Encoding: 175 175 113
AltUni2: 0002c9.ffffffff.0 0002c9.ffffffff.0
Width: 1065
GlyphClass: 1
Flags: W
LayerCount: 2
Fore
SplineSet
895 1285 m 1,0,-1
 161 1285 l 1,1,-1
 161 1458 l 1,2,-1
 895 1458 l 1,3,-1
 895 1285 l 1,0,-1
EndSplineSet
Validated: 1
EndChar

StartChar: degree
Encoding: 176 176 114
Width: 813
GlyphClass: 1
Flags: W
LayerCount: 2
Fore
SplineSet
125 1197 m 0,0,1
 125 1312 125 1312 207.5 1395 c 128,-1,2
 290 1478 290 1478 406 1478 c 0,3,4
 519 1478 519 1478 600 1395 c 128,-1,5
 681 1312 681 1312 681 1197 c 0,6,7
 681 1081 681 1081 600 1000.5 c 128,-1,8
 519 920 519 920 406 920 c 0,9,10
 290 920 290 920 207.5 1000.5 c 128,-1,11
 125 1081 125 1081 125 1197 c 0,0,1
280 1197 m 0,12,13
 280 1144 280 1144 317 1108.5 c 128,-1,14
 354 1073 354 1073 406 1073 c 0,15,16
 457 1073 457 1073 492 1108 c 128,-1,17
 527 1143 527 1143 527 1197 c 256,18,19
 527 1251 527 1251 492 1288 c 128,-1,20
 457 1325 457 1325 406 1325 c 0,21,22
 354 1325 354 1325 317 1288 c 128,-1,23
 280 1251 280 1251 280 1197 c 0,12,13
EndSplineSet
Validated: 1
EndChar

StartChar: plusminus
Encoding: 177 177 115
Width: 1103
GlyphClass: 1
Flags: W
LayerCount: 2
Fore
SplineSet
688 994 m 1,0,-1
 1000 994 l 1,1,-1
 1000 723 l 1,2,-1
 688 723 l 1,3,-1
 688 355 l 1,4,-1
 395 355 l 1,5,-1
 395 723 l 1,6,-1
 84 723 l 1,7,-1
 84 994 l 1,8,-1
 395 994 l 1,9,-1
 395 1333 l 1,10,-1
 688 1333 l 1,11,-1
 688 994 l 1,0,-1
937 -66 m 1,12,-1
 103 -66 l 1,13,-1
 103 198 l 1,14,-1
 937 198 l 1,15,-1
 937 -66 l 1,12,-1
EndSplineSet
Validated: 1
EndChar

StartChar: twosuperior
Encoding: 178 178 116
Width: 856
GlyphClass: 1
Flags: W
LayerCount: 2
Fore
SplineSet
746 667 m 1,0,-1
 109 667 l 1,1,-1
 109 834 l 1,2,-1
 422 1081 l 2,3,4
 478 1127 478 1127 494 1159 c 128,-1,5
 510 1191 510 1191 510 1231 c 0,6,7
 510 1266 510 1266 488.5 1289.5 c 128,-1,8
 467 1313 467 1313 421 1313 c 0,9,10
 372 1313 372 1313 348 1284.5 c 128,-1,11
 324 1256 324 1256 324 1209 c 1,12,-1
 105 1209 l 1,13,-1
 103 1215 l 1,14,15
 97 1324 97 1324 187.5 1401.5 c 128,-1,16
 278 1479 278 1479 429 1479 c 0,17,18
 577 1479 577 1479 657.5 1413.5 c 128,-1,19
 738 1348 738 1348 738 1230 c 0,20,21
 738 1146 738 1146 679.5 1079.5 c 128,-1,22
 621 1013 621 1013 493 913 c 1,23,-1
 407 840 l 1,24,-1
 409 834 l 1,25,-1
 746 834 l 1,26,-1
 746 667 l 1,0,-1
EndSplineSet
Validated: 33
EndChar

StartChar: threesuperior
Encoding: 179 179 117
Width: 846
GlyphClass: 1
Flags: W
LayerCount: 2
Fore
SplineSet
400 1139 m 2,0,1
 460 1139 460 1139 488.5 1162 c 128,-1,2
 517 1185 517 1185 517 1229 c 0,3,4
 517 1264 517 1264 492.5 1288 c 128,-1,5
 468 1312 468 1312 419 1312 c 256,6,7
 370 1312 370 1312 345 1291 c 128,-1,8
 320 1270 320 1270 320 1243 c 1,9,-1
 102 1243 l 1,10,-1
 100 1249 l 1,11,12
 94 1354 94 1354 183.5 1416 c 128,-1,13
 273 1478 273 1478 411 1478 c 0,14,15
 565 1478 565 1478 656 1418.5 c 128,-1,16
 747 1359 747 1359 747 1249 c 0,17,18
 747 1194 747 1194 711.5 1148.5 c 128,-1,19
 676 1103 676 1103 615 1078 c 1,20,21
 686 1054 686 1054 723.5 1006.5 c 128,-1,22
 761 959 761 959 761 891 c 0,23,24
 761 778 761 778 672 716.5 c 128,-1,25
 583 655 583 655 427 655 c 0,26,27
 272 655 272 655 176.5 720 c 128,-1,28
 81 785 81 785 87 900 c 1,29,-1
 89 906 l 1,30,-1
 308 906 l 1,31,32
 308 865 308 865 336.5 843.5 c 128,-1,33
 365 822 365 822 424 822 c 0,34,35
 472 822 472 822 502.5 843.5 c 128,-1,36
 533 865 533 865 533 907 c 0,37,38
 533 952 533 952 498.5 978.5 c 128,-1,39
 464 1005 464 1005 400 1005 c 2,40,-1
 299 1005 l 1,41,-1
 299 1139 l 1,42,-1
 400 1139 l 2,0,1
EndSplineSet
Validated: 33
EndChar

StartChar: acute
Encoding: 180 180 118
Width: 762
GlyphClass: 1
Flags: W
LayerCount: 2
Fore
SplineSet
313 1518 m 1,0,-1
 684 1518 l 1,1,-1
 686 1512 l 1,2,-1
 405 1252 l 1,3,-1
 107 1252 l 1,4,-1
 313 1518 l 1,0,-1
EndSplineSet
Validated: 1
EndChar

StartChar: mu
Encoding: 181 181 119
Width: 1313
GlyphClass: 1
Flags: W
LayerCount: 2
Fore
SplineSet
470 1082 m 1,0,-1
 470 462 l 2,1,2
 470 335 470 335 509.5 289 c 128,-1,3
 549 243 549 243 633 243 c 0,4,5
 698 243 698 243 743 266 c 128,-1,6
 788 289 788 289 814 334 c 1,7,-1
 814 1082 l 1,8,-1
 1151 1082 l 1,9,-1
 1151 0 l 1,10,-1
 834 0 l 1,11,-1
 829 53 l 1,12,13
 786 16 786 16 733 -2.5 c 128,-1,14
 680 -21 680 -21 619 -21 c 0,15,16
 576 -21 576 -21 539 -12.5 c 128,-1,17
 502 -4 502 -4 470 13 c 1,18,-1
 470 -416 l 1,19,-1
 132 -416 l 1,20,-1
 132 1082 l 1,21,-1
 470 1082 l 1,0,-1
EndSplineSet
Validated: 1
EndChar

StartChar: paragraph
Encoding: 182 182 120
Width: 1113
GlyphClass: 1
Flags: W
LayerCount: 2
Fore
SplineSet
635 0 m 1,0,-1
 635 520 l 1,1,-1
 552 520 l 2,2,3
 319 520 319 520 189.5 649.5 c 128,-1,4
 60 779 60 779 60 988 c 0,5,6
 60 1195 60 1195 189.5 1325.5 c 128,-1,7
 319 1456 319 1456 552 1456 c 2,8,-1
 974 1456 l 1,9,-1
 974 0 l 1,10,-1
 635 0 l 1,0,-1
EndSplineSet
Validated: 1
EndChar

StartChar: periodcentered
Encoding: 183 183 121
Width: 657
GlyphClass: 1
Flags: W
LayerCount: 2
Fore
SplineSet
496 539 m 1,0,-1
 158 539 l 1,1,-1
 158 823 l 1,2,-1
 496 823 l 1,3,-1
 496 539 l 1,0,-1
EndSplineSet
Validated: 1
EndChar

StartChar: cedilla
Encoding: 184 184 122
Width: 569
GlyphClass: 1
Flags: W
LayerCount: 2
Fore
SplineSet
373 10 m 1,0,-1
 363 -51 l 1,1,2
 427 -62 427 -62 470 -103 c 128,-1,3
 513 -144 513 -144 513 -224 c 0,4,5
 513 -338 513 -338 416 -405 c 128,-1,6
 319 -472 319 -472 139 -472 c 1,7,-1
 132 -286 l 1,8,9
 173 -286 173 -286 196.5 -267 c 128,-1,10
 220 -248 220 -248 220 -209 c 0,11,12
 220 -171 220 -171 189.5 -155.5 c 128,-1,13
 159 -140 159 -140 86 -136 c 1,14,-1
 117 10 l 1,15,-1
 373 10 l 1,0,-1
EndSplineSet
Validated: 1
EndChar

StartChar: onesuperior
Encoding: 185 185 123
Width: 579
GlyphClass: 1
Flags: W
LayerCount: 2
Fore
SplineSet
425 665 m 1,0,-1
 197 665 l 1,1,-1
 197 1284 l 1,2,-1
 70 1284 l 1,3,-1
 70 1454 l 1,4,-1
 425 1477 l 1,5,-1
 425 665 l 1,0,-1
EndSplineSet
Validated: 1
EndChar

StartChar: ordmasculine
Encoding: 186 186 124
Width: 938
GlyphClass: 1
Flags: W
LayerCount: 2
Fore
SplineSet
117 1142 m 2,0,1
 117 1290 117 1290 211 1383.5 c 128,-1,2
 305 1477 305 1477 463 1477 c 256,3,4
 621 1477 621 1477 715.5 1383.5 c 128,-1,5
 810 1290 810 1290 810 1142 c 2,6,-1
 810 1025 l 2,7,8
 810 876 810 876 716 783.5 c 128,-1,9
 622 691 622 691 465 691 c 0,10,11
 306 691 306 691 211.5 783.5 c 128,-1,12
 117 876 117 876 117 1025 c 2,13,-1
 117 1142 l 2,0,1
292 1025 m 2,14,15
 292 940 292 940 336 888.5 c 128,-1,16
 380 837 380 837 465 837 c 0,17,18
 547 837 547 837 591 888.5 c 128,-1,19
 635 940 635 940 635 1025 c 2,20,-1
 635 1142 l 2,21,22
 635 1225 635 1225 590.5 1277 c 128,-1,23
 546 1329 546 1329 463 1329 c 0,24,25
 379 1329 379 1329 335.5 1277 c 128,-1,26
 292 1225 292 1225 292 1142 c 2,27,-1
 292 1025 l 2,14,15
EndSplineSet
Validated: 1
EndChar

StartChar: questiondown
Encoding: 191 191 129
Width: 1047
GlyphClass: 1
Flags: W
LayerCount: 2
Fore
SplineSet
766 666 m 1,0,1
 764 526 764 526 715 456 c 128,-1,2
 666 386 666 386 537 296 c 0,3,4
 469 253 469 253 431 191 c 128,-1,5
 393 129 393 129 393 49 c 0,6,7
 393 -35 393 -35 437.5 -85 c 128,-1,8
 482 -135 482 -135 567 -135 c 0,9,10
 633 -135 633 -135 677.5 -94 c 128,-1,11
 722 -53 722 -53 725 28 c 1,12,-1
 1054 28 l 1,13,-1
 1056 22 l 1,14,15
 1058 -186 1058 -186 922.5 -290.5 c 128,-1,16
 787 -395 787 -395 567 -395 c 0,17,18
 327 -395 327 -395 191 -275 c 128,-1,19
 55 -155 55 -155 55 49 c 0,20,21
 55 173 55 173 129.5 278 c 128,-1,22
 204 383 204 383 319 444 c 1,23,24
 382 485 382 485 405 533.5 c 128,-1,25
 428 582 428 582 428 666 c 1,26,-1
 766 666 l 1,0,1
429 1082 m 1,27,-1
 765 1082 l 1,28,-1
 765 812 l 1,29,-1
 429 812 l 1,30,-1
 429 1082 l 1,27,-1
EndSplineSet
Validated: 33
EndChar

StartChar: AE
Encoding: 198 198 136
Width: 1916
GlyphClass: 1
Flags: W
LayerCount: 2
Fore
SplineSet
1847 0 m 1,0,-1
 950 0 l 1,1,-1
 936 329 l 1,2,-1
 553 329 l 1,3,-1
 401 0 l 1,4,-1
 11 0 l 1,5,-1
 746 1456 l 1,6,-1
 1786 1456 l 1,7,-1
 1786 1192 l 1,8,-1
 1237 1192 l 1,9,-1
 1250 876 l 1,10,-1
 1705 876 l 1,11,-1
 1705 612 l 1,12,-1
 1261 612 l 1,13,-1
 1276 264 l 1,14,-1
 1847 264 l 1,15,-1
 1847 0 l 1,0,-1
678 599 m 1,16,-1
 925 599 l 1,17,-1
 905 1074 l 1,18,-1
 899 1075 l 1,19,-1
 678 599 l 1,16,-1
EndSplineSet
Validated: 1
EndChar

StartChar: Eth
Encoding: 208 208 146
Width: 1338
GlyphClass: 1
Flags: W
LayerCount: 2
Fore
SplineSet
116 0 m 1,0,-1
 116 647 l 1,1,-1
 -4 647 l 1,2,-1
 -4 838 l 1,3,-1
 116 838 l 1,4,-1
 116 1456 l 1,5,-1
 649 1456 l 2,6,7
 906 1456 906 1456 1079 1288.5 c 128,-1,8
 1252 1121 1252 1121 1252 859 c 2,9,-1
 1252 597 l 2,10,11
 1252 334 1252 334 1079 167 c 128,-1,12
 906 0 906 0 649 0 c 2,13,-1
 116 0 l 1,0,-1
682 647 m 1,14,-1
 454 647 l 1,15,-1
 454 260 l 1,16,-1
 649 260 l 2,17,18
 764 260 764 260 838.5 354 c 128,-1,19
 913 448 913 448 913 597 c 2,20,-1
 913 861 l 2,21,22
 913 1008 913 1008 838.5 1102 c 128,-1,23
 764 1196 764 1196 649 1196 c 2,24,-1
 454 1196 l 1,25,-1
 454 838 l 1,26,-1
 682 838 l 1,27,-1
 682 647 l 1,14,-1
EndSplineSet
Validated: 1
Substitution2: "'smcp' Lowercase to Small Capitals lookup 0 subtable" Eth.smcp
EndChar

StartChar: multiply
Encoding: 215 215 153
Width: 1083
GlyphClass: 1
Flags: W
LayerCount: 2
Fore
SplineSet
53 381 m 1,0,-1
 352 686 l 1,1,-1
 53 992 l 1,2,-1
 246 1175 l 1,3,-1
 539 876 l 1,4,-1
 832 1175 l 1,5,-1
 1025 992 l 1,6,-1
 725 686 l 1,7,-1
 1025 381 l 1,8,-1
 832 198 l 1,9,-1
 539 496 l 1,10,-1
 246 198 l 1,11,-1
 53 381 l 1,0,-1
EndSplineSet
Validated: 1
EndChar

StartChar: Oslash
Encoding: 216 216 154
Width: 1416
GlyphClass: 1
Flags: W
LayerCount: 2
Fore
SplineSet
1326 597 m 2,0,1
 1326 328 1326 328 1155.5 153.5 c 128,-1,2
 985 -21 985 -21 710 -21 c 0,3,4
 632 -21 632 -21 561 -6 c 128,-1,5
 490 9 490 9 428 38 c 1,6,-1
 351 -95 l 1,7,-1
 211 -95 l 1,8,-1
 323 99 l 1,9,10
 211 182 211 182 150 311.5 c 128,-1,11
 89 441 89 441 89 597 c 2,12,-1
 89 859 l 2,13,14
 89 1127 89 1127 260.5 1302 c 128,-1,15
 432 1477 432 1477 708 1477 c 0,16,17
 809 1477 809 1477 898.5 1451 c 128,-1,18
 988 1425 988 1425 1062 1377 c 1,19,-1
 1144 1518 l 1,20,-1
 1284 1518 l 1,21,-1
 1157 1299 l 1,22,23
 1238 1215 1238 1215 1282 1102.5 c 128,-1,24
 1326 990 1326 990 1326 859 c 2,25,-1
 1326 597 l 2,0,1
426 597 m 2,26,27
 426 531 426 531 439 474 c 128,-1,28
 452 417 452 417 477 377 c 1,29,-1
 483 376 l 1,30,-1
 913 1120 l 1,31,32
 876 1166 876 1166 824.5 1191.5 c 128,-1,33
 773 1217 773 1217 708 1217 c 0,34,35
 571 1217 571 1217 498.5 1117.5 c 128,-1,36
 426 1018 426 1018 426 861 c 2,37,-1
 426 597 l 2,26,27
989 861 m 2,38,39
 989 892 989 892 985.5 922.5 c 128,-1,40
 982 953 982 953 976 975 c 1,41,-1
 970 976 l 1,42,-1
 566 278 l 1,43,44
 596 258 596 258 632 248.5 c 128,-1,45
 668 239 668 239 710 239 c 0,46,47
 843 239 843 239 916 339 c 128,-1,48
 989 439 989 439 989 597 c 2,49,-1
 989 861 l 2,38,39
EndSplineSet
Validated: 1
EndChar

StartChar: Thorn
Encoding: 222 222 160
Width: 1266
GlyphClass: 1
Flags: W
LayerCount: 2
Fore
SplineSet
455 1456 m 1,0,-1
 455 1198 l 1,1,-1
 653 1198 l 2,2,3
 919 1198 919 1198 1066.5 1071.5 c 128,-1,4
 1214 945 1214 945 1214 738 c 256,5,6
 1214 531 1214 531 1066 404.5 c 128,-1,7
 918 278 918 278 653 278 c 2,8,-1
 455 278 l 1,9,-1
 455 0 l 1,10,-1
 116 0 l 1,11,-1
 116 1456 l 1,12,-1
 455 1456 l 1,0,-1
455 938 m 1,13,-1
 455 538 l 1,14,-1
 653 538 l 2,15,16
 765 538 765 538 820 594 c 128,-1,17
 875 650 875 650 875 736 c 0,18,19
 875 823 875 823 820 880.5 c 128,-1,20
 765 938 765 938 653 938 c 2,21,-1
 455 938 l 1,13,-1
EndSplineSet
Validated: 1
EndChar

StartChar: germandbls
Encoding: 223 223 161
Width: 1330
GlyphClass: 1
Flags: W
LayerCount: 2
Fore
SplineSet
472 0 m 1,0,-1
 134 0 l 1,1,-1
 134 1112 l 2,2,3
 134 1338 134 1338 268 1459.5 c 128,-1,4
 402 1581 402 1581 645 1581 c 0,5,6
 835 1581 835 1581 962.5 1480.5 c 128,-1,7
 1090 1380 1090 1380 1090 1201 c 0,8,9
 1090 1099 1090 1099 1042.5 1008.5 c 128,-1,10
 995 918 995 918 995 842 c 0,11,12
 995 799 995 799 1133 658 c 128,-1,13
 1271 517 1271 517 1271 377 c 0,14,15
 1271 177 1271 177 1151 78 c 128,-1,16
 1031 -21 1031 -21 794 -21 c 0,17,18
 714 -21 714 -21 639.5 -8.5 c 128,-1,19
 565 4 565 4 526 27 c 1,20,-1
 585 283 l 1,21,22
 621 264 621 264 674.5 251.5 c 128,-1,23
 728 239 728 239 796 239 c 0,24,25
 857 239 857 239 896 272 c 128,-1,26
 935 305 935 305 935 364 c 0,27,28
 935 429 935 429 796.5 558.5 c 128,-1,29
 658 688 658 688 658 827 c 0,30,31
 658 923 658 923 705 1017.5 c 128,-1,32
 752 1112 752 1112 752 1187 c 0,33,34
 752 1240 752 1240 709 1281 c 128,-1,35
 666 1322 666 1322 612 1322 c 0,36,37
 550 1322 550 1322 511 1263 c 128,-1,38
 472 1204 472 1204 472 1106 c 2,39,-1
 472 0 l 1,0,-1
EndSplineSet
Validated: 1
Substitution2: "'smcp' Lowercase to Small Capitals lookup 0 subtable" germandbls.smcp
EndChar

StartChar: ae
Encoding: 230 230 168
Width: 1763
GlyphClass: 1
Flags: W
LayerCount: 2
Fore
SplineSet
1275 -21 m 0,0,1
 1149 -21 1149 -21 1050.5 16.5 c 128,-1,2
 952 54 952 54 885 124 c 1,3,4
 825 60 825 60 728 19.5 c 128,-1,5
 631 -21 631 -21 501 -21 c 0,6,7
 298 -21 298 -21 187.5 71.5 c 128,-1,8
 77 164 77 164 77 324 c 0,9,10
 77 483 77 483 209.5 569 c 128,-1,11
 342 655 342 655 597 655 c 2,12,-1
 754 655 l 1,13,-1
 754 701 l 2,14,15
 754 767 754 767 719 804.5 c 128,-1,16
 684 842 684 842 621 842 c 0,17,18
 551 842 551 842 511.5 813 c 128,-1,19
 472 784 472 784 472 740 c 1,20,-1
 143 758 l 1,21,-1
 142 764 l 1,22,23
 135 911 135 911 269 1006.5 c 128,-1,24
 403 1102 403 1102 625 1102 c 0,25,26
 722 1102 722 1102 804 1079.5 c 128,-1,27
 886 1057 886 1057 947 1013 c 1,28,29
 1008 1056 1008 1056 1087.5 1079 c 128,-1,30
 1167 1102 1167 1102 1264 1102 c 0,31,32
 1475 1102 1475 1102 1598.5 969.5 c 128,-1,33
 1722 837 1722 837 1722 612 c 2,34,-1
 1722 435 l 1,35,-1
 1102 435 l 1,36,-1
 1100 429 l 1,37,38
 1104 341 1104 341 1158 290 c 128,-1,39
 1212 239 1212 239 1321 239 c 0,40,41
 1408 239 1408 239 1469.5 255 c 128,-1,42
 1531 271 1531 271 1606 306 c 1,43,-1
 1687 100 l 1,44,45
 1620 49 1620 49 1507.5 14 c 128,-1,46
 1395 -21 1395 -21 1275 -21 c 0,0,1
565 211 m 0,47,48
 614 211 614 211 667.5 235 c 128,-1,49
 721 259 721 259 754 293 c 1,50,-1
 754 451 l 1,51,-1
 599 451 l 2,52,53
 512 451 512 451 463.5 412.5 c 128,-1,54
 415 374 415 374 415 320 c 0,55,56
 415 268 415 268 452 239.5 c 128,-1,57
 489 211 489 211 565 211 c 0,47,48
1264 842 m 0,58,59
 1178 842 1178 842 1140 791.5 c 128,-1,60
 1102 741 1102 741 1098 651 c 1,61,-1
 1100 646 l 1,62,-1
 1393 646 l 1,63,-1
 1393 672 l 2,64,65
 1393 752 1393 752 1359 797 c 128,-1,66
 1325 842 1325 842 1264 842 c 0,58,59
EndSplineSet
Validated: 33
EndChar

StartChar: eth
Encoding: 240 240 178
Width: 1226
GlyphClass: 1
Flags: W
LayerCount: 2
Fore
SplineSet
945 1286 m 1,0,1
 1051 1180 1051 1180 1109.5 1040 c 128,-1,2
 1168 900 1168 900 1168 736 c 2,3,-1
 1168 553 l 2,4,5
 1168 300 1168 300 1004.5 139.5 c 128,-1,6
 841 -21 841 -21 596 -21 c 0,7,8
 348 -21 348 -21 192.5 119.5 c 128,-1,9
 37 260 37 260 37 468 c 0,10,11
 37 694 37 694 169 827.5 c 128,-1,12
 301 961 301 961 541 961 c 0,13,14
 618 961 618 961 686.5 939.5 c 128,-1,15
 755 918 755 918 806 880 c 1,16,-1
 810 885 l 1,17,18
 794 957 794 957 755 1019 c 128,-1,19
 716 1081 716 1081 661 1131 c 1,20,-1
 438 1010 l 1,21,-1
 360 1128 l 1,22,-1
 522 1216 l 1,23,-1
 521 1222 l 1,24,25
 492 1236 492 1236 456.5 1249.5 c 128,-1,26
 421 1263 421 1263 384 1273 c 1,27,-1
 491 1517 l 1,28,29
 584 1498 584 1498 668 1464 c 128,-1,30
 752 1430 752 1430 826 1382 c 1,31,-1
 1014 1484 l 1,32,-1
 1091 1366 l 1,33,-1
 945 1286 l 1,0,1
600 239 m 0,34,35
 708 239 708 239 769 326.5 c 128,-1,36
 830 414 830 414 830 553 c 2,37,-1
 830 648 l 1,38,39
 797 679 797 679 740.5 699.5 c 128,-1,40
 684 720 684 720 610 720 c 0,41,42
 492 720 492 720 433 653.5 c 128,-1,43
 374 587 374 587 374 468 c 0,44,45
 374 367 374 367 435.5 303 c 128,-1,46
 497 239 497 239 600 239 c 0,34,35
EndSplineSet
Validated: 1
Substitution2: "'smcp' Lowercase to Small Capitals lookup 0 subtable" Eth.smcp
EndChar

StartChar: divide
Encoding: 247 247 185
Width: 1166
GlyphClass: 1
Flags: W
LayerCount: 2
Fore
SplineSet
1103 563 m 1,0,-1
 59 563 l 1,1,-1
 59 807 l 1,2,-1
 1103 807 l 1,3,-1
 1103 563 l 1,0,-1
752 961 m 1,4,-1
 413 961 l 1,5,-1
 413 1206 l 1,6,-1
 752 1206 l 1,7,-1
 752 961 l 1,4,-1
752 158 m 1,8,-1
 413 158 l 1,9,-1
 413 404 l 1,10,-1
 752 404 l 1,11,-1
 752 158 l 1,8,-1
EndSplineSet
Validated: 1
EndChar

StartChar: oslash
Encoding: 248 248 186
Width: 1152
GlyphClass: 1
Flags: W
LayerCount: 2
Fore
SplineSet
51 551 m 2,0,1
 51 795 51 795 189 948.5 c 128,-1,2
 327 1102 327 1102 574 1102 c 0,3,4
 621 1102 621 1102 665 1095.5 c 128,-1,5
 709 1089 709 1089 751 1077 c 1,6,-1
 820 1219 l 1,7,-1
 997 1219 l 1,8,-1
 894 1007 l 1,9,10
 993 934 993 934 1045.5 816 c 128,-1,11
 1098 698 1098 698 1098 551 c 2,12,-1
 1098 530 l 2,13,14
 1098 285 1098 285 960 132 c 128,-1,15
 822 -21 822 -21 576 -21 c 0,16,17
 529 -21 529 -21 486.5 -15 c 128,-1,18
 444 -9 444 -9 405 2 c 1,19,-1
 334 -145 l 1,20,-1
 157 -145 l 1,21,-1
 261 69 l 1,22,23
 158 141 158 141 104.5 260.5 c 128,-1,24
 51 380 51 380 51 530 c 2,25,-1
 51 551 l 2,0,1
389 530 m 2,26,27
 389 483 389 483 393 445 c 128,-1,28
 397 407 397 407 407 382 c 1,29,-1
 413 381 l 1,30,-1
 633 833 l 1,31,32
 619 837 619 837 604.5 839.5 c 128,-1,33
 590 842 590 842 574 842 c 0,34,35
 474 842 474 842 431.5 762 c 128,-1,36
 389 682 389 682 389 551 c 2,37,-1
 389 530 l 2,26,27
761 551 m 2,38,39
 761 592 761 592 756.5 627.5 c 128,-1,40
 752 663 752 663 745 687 c 1,41,-1
 739 688 l 1,42,-1
 524 245 l 1,43,44
 535 242 535 242 548 240.5 c 128,-1,45
 561 239 561 239 576 239 c 0,46,47
 675 239 675 239 718 317 c 128,-1,48
 761 395 761 395 761 530 c 2,49,-1
 761 551 l 2,38,39
EndSplineSet
Validated: 1
EndChar

StartChar: thorn
Encoding: 254 254 192
Width: 1149
GlyphClass: 1
Flags: W
LayerCount: 2
Fore
SplineSet
1108 518 m 2,0,1
 1108 274 1108 274 998 126.5 c 128,-1,2
 888 -21 888 -21 688 -21 c 0,3,4
 609 -21 609 -21 548.5 9 c 128,-1,5
 488 39 488 39 444 97 c 1,6,-1
 444 -416 l 1,7,-1
 106 -416 l 1,8,-1
 106 0 l 1,9,-1
 105 0 l 1,10,-1
 105 1560 l 1,11,-1
 444 1560 l 1,12,-1
 444 976 l 1,13,14
 488 1037 488 1037 548 1069.5 c 128,-1,15
 608 1102 608 1102 686 1102 c 0,16,17
 887 1102 887 1102 997.5 947 c 128,-1,18
 1108 792 1108 792 1108 539 c 2,19,-1
 1108 518 l 2,0,1
771 539 m 2,20,21
 771 676 771 676 731 759 c 128,-1,22
 691 842 691 842 603 842 c 0,23,24
 546 842 546 842 506.5 821 c 128,-1,25
 467 800 467 800 444 760 c 1,26,-1
 444 308 l 1,27,28
 468 273 468 273 507.5 256 c 128,-1,29
 547 239 547 239 605 239 c 0,30,31
 694 239 694 239 732.5 312.5 c 128,-1,32
 771 386 771 386 771 518 c 2,33,-1
 771 539 l 2,20,21
EndSplineSet
Validated: 1
EndChar

StartChar: Dcroat
Encoding: 272 272 210
Width: 1338
GlyphClass: 1
Flags: W
LayerCount: 2
Fore
SplineSet
116 0 m 1,0,-1
 116 647 l 1,1,-1
 -4 647 l 1,2,-1
 -4 838 l 1,3,-1
 116 838 l 1,4,-1
 116 1456 l 1,5,-1
 649 1456 l 2,6,7
 906 1456 906 1456 1079 1288.5 c 128,-1,8
 1252 1121 1252 1121 1252 859 c 2,9,-1
 1252 597 l 2,10,11
 1252 334 1252 334 1079 167 c 128,-1,12
 906 0 906 0 649 0 c 2,13,-1
 116 0 l 1,0,-1
682 647 m 1,14,-1
 454 647 l 1,15,-1
 454 260 l 1,16,-1
 649 260 l 2,17,18
 764 260 764 260 838.5 354 c 128,-1,19
 913 448 913 448 913 597 c 2,20,-1
 913 861 l 2,21,22
 913 1008 913 1008 838.5 1102 c 128,-1,23
 764 1196 764 1196 649 1196 c 2,24,-1
 454 1196 l 1,25,-1
 454 838 l 1,26,-1
 682 838 l 1,27,-1
 682 647 l 1,14,-1
EndSplineSet
Validated: 1
Substitution2: "'smcp' Lowercase to Small Capitals lookup 0 subtable" Dcroat.smcp
EndChar

StartChar: dcroat
Encoding: 273 273 211
Width: 1151
GlyphClass: 1
Flags: W
LayerCount: 2
Fore
SplineSet
1172 1215 m 1,0,-1
 1055 1215 l 1,1,-1
 1055 0 l 1,2,-1
 759 0 l 1,3,-1
 736 132 l 1,4,5
 687 58 687 58 621.5 18.5 c 128,-1,6
 556 -21 556 -21 471 -21 c 0,7,8
 271 -21 271 -21 161 127 c 128,-1,9
 51 275 51 275 51 518 c 2,10,-1
 51 539 l 2,11,12
 51 792 51 792 161.5 947 c 128,-1,13
 272 1102 272 1102 473 1102 c 0,14,15
 548 1102 548 1102 608.5 1067.5 c 128,-1,16
 669 1033 669 1033 717 969 c 1,17,-1
 717 1215 l 1,18,-1
 486 1215 l 1,19,-1
 486 1406 l 1,20,-1
 717 1406 l 1,21,-1
 717 1560 l 1,22,-1
 1055 1560 l 1,23,-1
 1055 1406 l 1,24,-1
 1172 1406 l 1,25,-1
 1172 1215 l 1,0,-1
389 518 m 2,26,27
 389 386 389 386 427.5 312.5 c 128,-1,28
 466 239 466 239 557 239 c 0,29,30
 610 239 610 239 650.5 258.5 c 128,-1,31
 691 278 691 278 717 316 c 1,32,-1
 717 753 l 1,33,34
 691 796 691 796 651 819 c 128,-1,35
 611 842 611 842 559 842 c 0,36,37
 469 842 469 842 429 759 c 128,-1,38
 389 676 389 676 389 539 c 2,39,-1
 389 518 l 2,26,27
EndSplineSet
Validated: 1
Substitution2: "'smcp' Lowercase to Small Capitals lookup 0 subtable" Dcroat.smcp
EndChar

StartChar: Hbar
Encoding: 294 294 232
Width: 1447
GlyphClass: 1
Flags: W
LayerCount: 2
Fore
SplineSet
1338 1213 m 1,0,-1
 1444 1213 l 1,1,-1
 1444 1030 l 1,2,-1
 1338 1030 l 1,3,-1
 1338 0 l 1,4,-1
 1001 0 l 1,5,-1
 1001 586 l 1,6,-1
 462 586 l 1,7,-1
 462 0 l 1,8,-1
 124 0 l 1,9,-1
 124 1030 l 1,10,-1
 9 1030 l 1,11,-1
 9 1213 l 1,12,-1
 124 1213 l 1,13,-1
 124 1456 l 1,14,-1
 462 1456 l 1,15,-1
 462 1213 l 1,16,-1
 1001 1213 l 1,17,-1
 1001 1456 l 1,18,-1
 1338 1456 l 1,19,-1
 1338 1213 l 1,0,-1
462 846 m 1,20,-1
 1001 846 l 1,21,-1
 1001 1030 l 1,22,-1
 462 1030 l 1,23,-1
 462 846 l 1,20,-1
EndSplineSet
Validated: 1
EndChar

StartChar: hbar
Encoding: 295 295 233
Width: 1151
GlyphClass: 1
Flags: W
LayerCount: 2
Fore
SplineSet
680 1211 m 1,0,-1
 424 1211 l 1,1,-1
 424 948 l 1,2,3
 473 1021 473 1021 543.5 1061.5 c 128,-1,4
 614 1102 614 1102 699 1102 c 0,5,6
 867 1102 867 1102 963 985 c 128,-1,7
 1059 868 1059 868 1059 622 c 2,8,-1
 1059 0 l 1,9,-1
 721 0 l 1,10,-1
 721 624 l 2,11,12
 721 748 721 748 689 795 c 128,-1,13
 657 842 657 842 592 842 c 0,14,15
 535 842 535 842 493 825.5 c 128,-1,16
 451 809 451 809 424 779 c 1,17,-1
 424 0 l 1,18,-1
 86 0 l 1,19,-1
 86 1211 l 1,20,-1
 -6 1211 l 1,21,-1
 -6 1402 l 1,22,-1
 86 1402 l 1,23,-1
 86 1560 l 1,24,-1
 424 1560 l 1,25,-1
 424 1402 l 1,26,-1
 680 1402 l 1,27,-1
 680 1211 l 1,0,-1
EndSplineSet
Validated: 1
EndChar

StartChar: dotlessi
Encoding: 305 305 243
Width: 584
GlyphClass: 1
Flags: W
LayerCount: 2
Fore
SplineSet
462 0 m 1,0,-1
 123 0 l 1,1,-1
 123 1082 l 1,2,-1
 462 1082 l 1,3,-1
 462 0 l 1,0,-1
EndSplineSet
Validated: 1
EndChar

StartChar: kgreenlandic
Encoding: 312 312 250
Width: 1242
GlyphClass: 1
Flags: W
LayerCount: 2
Fore
SplineSet
575 378 m 1,0,-1
 455 378 l 1,1,-1
 455 0 l 1,2,-1
 118 0 l 1,3,-1
 118 1082 l 1,4,-1
 455 1082 l 1,5,-1
 455 693 l 1,6,-1
 545 693 l 1,7,-1
 770 1082 l 1,8,-1
 1202 1082 l 1,9,-1
 846 577 l 1,10,-1
 856 582 l 1,11,-1
 1210 0 l 1,12,-1
 776 0 l 1,13,-1
 575 378 l 1,0,-1
EndSplineSet
Validated: 1
EndChar

StartChar: Lslash
Encoding: 321 321 259
Width: 1022
GlyphClass: 1
Flags: W
LayerCount: 2
Fore
SplineSet
447 903 m 1,0,-1
 678 967 l 1,1,-1
 678 759 l 1,2,-1
 447 695 l 1,3,-1
 447 260 l 1,4,-1
 1072 260 l 1,5,-1
 1072 0 l 1,6,-1
 109 0 l 1,7,-1
 109 603 l 1,8,-1
 -3 572 l 1,9,-1
 -3 780 l 1,10,-1
 109 811 l 1,11,-1
 109 1456 l 1,12,-1
 447 1456 l 1,13,-1
 447 903 l 1,0,-1
EndSplineSet
Validated: 1
EndChar

StartChar: lslash
Encoding: 322 322 260
Width: 611
GlyphClass: 1
Flags: W
LayerCount: 2
Fore
SplineSet
470 924 m 1,0,-1
 607 967 l 1,1,-1
 607 759 l 1,2,-1
 470 716 l 1,3,-1
 470 0 l 1,4,-1
 131 0 l 1,5,-1
 131 611 l 1,6,-1
 4 572 l 1,7,-1
 4 780 l 1,8,-1
 131 819 l 1,9,-1
 131 1560 l 1,10,-1
 470 1560 l 1,11,-1
 470 924 l 1,0,-1
EndSplineSet
Validated: 1
EndChar

StartChar: Eng
Encoding: 330 330 268
Width: 1449
GlyphClass: 1
Flags: W
LayerCount: 2
Fore
SplineSet
1331 1456 m 1,0,-1
 1331 -15 l 2,1,2
 1331 -217 1331 -217 1223 -327 c 128,-1,3
 1115 -437 1115 -437 922 -437 c 0,4,5
 877 -437 877 -437 840 -433 c 128,-1,6
 803 -429 803 -429 762 -420 c 1,7,-1
 776 -165 l 1,8,9
 804 -171 804 -171 824 -174 c 128,-1,10
 844 -177 844 -177 876 -177 c 0,11,12
 932 -177 932 -177 963 -135.5 c 128,-1,13
 994 -94 994 -94 994 -15 c 2,14,-1
 994 0 l 1,15,-1
 461 916 l 1,16,-1
 455 914 l 1,17,-1
 455 0 l 1,18,-1
 117 0 l 1,19,-1
 117 1456 l 1,20,-1
 455 1456 l 1,21,-1
 988 541 l 1,22,-1
 994 543 l 1,23,-1
 994 1456 l 1,24,-1
 1331 1456 l 1,0,-1
EndSplineSet
Validated: 1
EndChar

StartChar: eng
Encoding: 331 331 269
Width: 1151
GlyphClass: 1
Flags: W
LayerCount: 2
Fore
SplineSet
407 1082 m 1,0,-1
 420 928 l 1,1,2
 474 1010 474 1010 552.5 1056 c 128,-1,3
 631 1102 631 1102 726 1102 c 0,4,5
 885 1102 885 1102 974.5 994 c 128,-1,6
 1064 886 1064 886 1064 651 c 2,7,-1
 1064 -15 l 2,8,9
 1064 -217 1064 -217 956 -327 c 128,-1,10
 848 -437 848 -437 655 -437 c 0,11,12
 610 -437 610 -437 573 -433 c 128,-1,13
 536 -429 536 -429 495 -420 c 1,14,-1
 509 -165 l 1,15,16
 538 -171 538 -171 557 -174 c 128,-1,17
 576 -177 576 -177 609 -177 c 0,18,19
 665 -177 665 -177 695.5 -135.5 c 128,-1,20
 726 -94 726 -94 726 -15 c 2,21,-1
 726 652 l 2,22,23
 726 755 726 755 693 798.5 c 128,-1,24
 660 842 660 842 597 842 c 0,25,26
 542 842 542 842 499.5 822.5 c 128,-1,27
 457 803 457 803 427 768 c 1,28,-1
 427 0 l 1,29,-1
 90 0 l 1,30,-1
 90 1082 l 1,31,-1
 407 1082 l 1,0,-1
EndSplineSet
Validated: 1
EndChar

StartChar: OE
Encoding: 338 338 276
Width: 1995
GlyphClass: 1
Flags: W
LayerCount: 2
Fore
SplineSet
1804 0 m 1,0,-1
 1010 0 l 1,1,2
 918 -10 918 -10 853.5 -15.5 c 128,-1,3
 789 -21 789 -21 722 -21 c 0,4,5
 442 -21 442 -21 267.5 145 c 128,-1,6
 93 311 93 311 93 576 c 2,7,-1
 93 880 l 2,8,9
 93 1145 93 1145 266.5 1311 c 128,-1,10
 440 1477 440 1477 720 1477 c 0,11,12
 789 1477 789 1477 860 1471 c 128,-1,13
 931 1465 931 1465 1010 1456 c 1,14,-1
 1805 1456 l 1,15,-1
 1805 1196 l 1,16,-1
 1189 1196 l 1,17,-1
 1189 883 l 1,18,-1
 1702 883 l 1,19,-1
 1702 623 l 1,20,-1
 1189 623 l 1,21,-1
 1189 260 l 1,22,-1
 1804 260 l 1,23,-1
 1804 0 l 1,0,-1
722 239 m 0,24,25
 755 239 755 239 787 240.5 c 128,-1,26
 819 242 819 242 851 245 c 1,27,-1
 851 1211 l 1,28,29
 818 1213 818 1213 785.5 1215 c 128,-1,30
 753 1217 753 1217 720 1217 c 0,31,32
 582 1217 582 1217 506 1131.5 c 128,-1,33
 430 1046 430 1046 430 882 c 2,34,-1
 430 576 l 2,35,36
 430 411 430 411 507 325 c 128,-1,37
 584 239 584 239 722 239 c 0,24,25
EndSplineSet
Validated: 1
EndChar

StartChar: oe
Encoding: 339 339 277
Width: 1845
GlyphClass: 1
Flags: W
LayerCount: 2
Fore
SplineSet
1356 -21 m 0,0,1
 1230 -21 1230 -21 1130.5 19.5 c 128,-1,2
 1031 60 1031 60 963 135 c 1,3,4
 895 59 895 59 797 19 c 128,-1,5
 699 -21 699 -21 576 -21 c 0,6,7
 327 -21 327 -21 189 132 c 128,-1,8
 51 285 51 285 51 530 c 2,9,-1
 51 551 l 2,10,11
 51 795 51 795 189 948.5 c 128,-1,12
 327 1102 327 1102 574 1102 c 0,13,14
 697 1102 697 1102 795 1061.5 c 128,-1,15
 893 1021 893 1021 962 947 c 1,16,17
 1027 1022 1027 1022 1122.5 1062 c 128,-1,18
 1218 1102 1218 1102 1343 1102 c 0,19,20
 1562 1102 1562 1102 1682.5 971 c 128,-1,21
 1803 840 1803 840 1803 612 c 2,22,-1
 1803 435 l 1,23,-1
 1183 435 l 1,24,-1
 1181 429 l 1,25,26
 1189 344 1189 344 1244 291.5 c 128,-1,27
 1299 239 1299 239 1402 239 c 0,28,29
 1499 239 1499 239 1563.5 255 c 128,-1,30
 1628 271 1628 271 1711 306 c 1,31,-1
 1792 100 l 1,32,33
 1722 49 1722 49 1604 14 c 128,-1,34
 1486 -21 1486 -21 1356 -21 c 0,0,1
389 530 m 2,35,36
 389 394 389 394 431.5 316.5 c 128,-1,37
 474 239 474 239 576 239 c 0,38,39
 675 239 675 239 718 317 c 128,-1,40
 761 395 761 395 761 530 c 2,41,-1
 761 551 l 2,42,43
 761 683 761 683 718 762.5 c 128,-1,44
 675 842 675 842 574 842 c 0,45,46
 474 842 474 842 431.5 762 c 128,-1,47
 389 682 389 682 389 551 c 2,48,-1
 389 530 l 2,35,36
1343 842 m 0,49,50
 1262 842 1262 842 1223.5 790.5 c 128,-1,51
 1185 739 1185 739 1179 651 c 1,52,-1
 1181 646 l 1,53,-1
 1473 646 l 1,54,-1
 1473 672 l 2,55,56
 1473 756 1473 756 1443.5 799 c 128,-1,57
 1414 842 1414 842 1343 842 c 0,49,50
EndSplineSet
Validated: 1
EndChar

StartChar: Tbar
Encoding: 358 358 296
Width: 1150
GlyphClass: 1
Flags: W
LayerCount: 2
Fore
SplineSet
930 723 m 1,0,-1
 744 723 l 1,1,-1
 744 0 l 1,2,-1
 406 0 l 1,3,-1
 406 723 l 1,4,-1
 244 723 l 1,5,-1
 244 914 l 1,6,-1
 406 914 l 1,7,-1
 406 1196 l 1,8,-1
 28 1196 l 1,9,-1
 28 1456 l 1,10,-1
 1129 1456 l 1,11,-1
 1129 1196 l 1,12,-1
 744 1196 l 1,13,-1
 744 914 l 1,14,-1
 930 914 l 1,15,-1
 930 723 l 1,0,-1
EndSplineSet
Validated: 1
Substitution2: "'smcp' Lowercase to Small Capitals lookup 0 subtable" Tbar.smcp
EndChar

StartChar: tbar
Encoding: 359 359 297
Width: 723
GlyphClass: 1
Flags: W
LayerCount: 2
Fore
SplineSet
484 1351 m 1,0,-1
 484 1082 l 1,1,-1
 655 1082 l 1,2,-1
 655 848 l 1,3,-1
 484 848 l 1,4,-1
 484 698 l 1,5,-1
 668 698 l 1,6,-1
 668 507 l 1,7,-1
 484 507 l 1,8,-1
 484 352 l 2,9,10
 484 294 484 294 507.5 268.5 c 128,-1,11
 531 243 531 243 571 243 c 0,12,13
 597 243 597 243 612.5 245 c 128,-1,14
 628 247 628 247 652 253 c 1,15,-1
 675 3 l 1,16,17
 624 -10 624 -10 583 -15.5 c 128,-1,18
 542 -21 542 -21 486 -21 c 0,19,20
 319 -21 319 -21 232.5 68 c 128,-1,21
 146 157 146 157 146 350 c 2,22,-1
 146 507 l 1,23,-1
 -18 507 l 1,24,-1
 -18 698 l 1,25,-1
 146 698 l 1,26,-1
 146 848 l 1,27,-1
 -5 848 l 1,28,-1
 -5 1082 l 1,29,-1
 146 1082 l 1,30,-1
 146 1351 l 1,31,-1
 484 1351 l 1,0,-1
EndSplineSet
Validated: 1
Substitution2: "'smcp' Lowercase to Small Capitals lookup 0 subtable" Tbar.smcp
EndChar

StartChar: longs
Encoding: 383 383 321
Width: 539
GlyphClass: 1
Flags: W
LayerCount: 2
Fore
SplineSet
94 0 m 1,0,-1
 94 1194 l 2,1,2
 94 1380 94 1380 206 1480.5 c 128,-1,3
 318 1581 318 1581 522 1581 c 0,4,5
 560 1581 560 1581 600 1575.5 c 128,-1,6
 640 1570 640 1570 689 1560 c 1,7,-1
 665 1311 l 1,8,9
 636 1316 636 1316 615 1318.5 c 128,-1,10
 594 1321 594 1321 564 1321 c 0,11,12
 500 1321 500 1321 466 1288 c 128,-1,13
 432 1255 432 1255 432 1194 c 2,14,-1
 432 0 l 1,15,-1
 94 0 l 1,0,-1
EndSplineSet
Validated: 1
EndChar

StartChar: florin
Encoding: 402 402 322
Width: 758
GlyphClass: 1
Flags: W
LayerCount: 2
Fore
SplineSet
720 848 m 1,0,-1
 506 848 l 1,1,-1
 504 -15 l 2,2,3
 504 -217 504 -217 396 -327 c 128,-1,4
 288 -437 288 -437 95 -437 c 0,5,6
 50 -437 50 -437 14 -433 c 128,-1,7
 -22 -429 -22 -429 -64 -420 c 1,8,-1
 -49 -165 l 1,9,10
 -21 -171 -21 -171 -2 -174 c 128,-1,11
 17 -177 17 -177 49 -177 c 0,12,13
 106 -177 106 -177 136.5 -135.5 c 128,-1,14
 167 -94 167 -94 167 -15 c 2,15,-1
 167 848 l 1,16,-1
 11 848 l 1,17,-1
 11 1082 l 1,18,-1
 167 1082 l 1,19,-1
 167 1194 l 2,20,21
 167 1381 167 1381 279 1481 c 128,-1,22
 391 1581 391 1581 596 1581 c 0,23,24
 634 1581 634 1581 674 1575.5 c 128,-1,25
 714 1570 714 1570 763 1560 c 1,26,-1
 738 1311 l 1,27,28
 711 1316 711 1316 689.5 1318.5 c 128,-1,29
 668 1321 668 1321 637 1321 c 0,30,31
 574 1321 574 1321 540 1288 c 128,-1,32
 506 1255 506 1255 506 1194 c 2,33,-1
 506 1082 l 1,34,-1
 720 1082 l 1,35,-1
 720 848 l 1,0,-1
EndSplineSet
Validated: 1
EndChar

StartChar: Ohorn
Encoding: 416 416 323
Width: 1452
GlyphClass: 1
Flags: W
LayerCount: 2
Fore
SplineSet
1321 597 m 2,0,1
 1321 328 1321 328 1150.5 153.5 c 128,-1,2
 980 -21 980 -21 705 -21 c 0,3,4
 428 -21 428 -21 256 153.5 c 128,-1,5
 84 328 84 328 84 597 c 2,6,-1
 84 859 l 2,7,8
 84 1127 84 1127 255.5 1302 c 128,-1,9
 427 1477 427 1477 703 1477 c 0,10,11
 844 1477 844 1477 962 1427 c 128,-1,12
 1080 1377 1080 1377 1163 1287 c 1,13,14
 1256 1320 1256 1320 1304 1399 c 128,-1,15
 1352 1478 1352 1478 1352 1596 c 1,16,-1
 1576 1596 l 1,17,18
 1576 1406 1576 1406 1500 1276.5 c 128,-1,19
 1424 1147 1424 1147 1282 1088 c 1,20,21
 1301 1034 1301 1034 1311 976.5 c 128,-1,22
 1321 919 1321 919 1321 859 c 2,23,-1
 1321 597 l 2,0,1
984 861 m 2,24,25
 984 1017 984 1017 910.5 1117 c 128,-1,26
 837 1217 837 1217 703 1217 c 0,27,28
 566 1217 566 1217 493.5 1117.5 c 128,-1,29
 421 1018 421 1018 421 861 c 2,30,-1
 421 597 l 2,31,32
 421 439 421 439 494.5 339 c 128,-1,33
 568 239 568 239 705 239 c 0,34,35
 838 239 838 239 911 339 c 128,-1,36
 984 439 984 439 984 597 c 2,37,-1
 984 861 l 2,24,25
EndSplineSet
Validated: 1
EndChar

StartChar: ohorn
Encoding: 417 417 324
Width: 1199
GlyphClass: 1
Flags: W
LayerCount: 2
Fore
SplineSet
51 551 m 2,0,1
 51 795 51 795 189 948.5 c 128,-1,2
 327 1102 327 1102 574 1102 c 0,3,4
 689 1102 689 1102 782 1066.5 c 128,-1,5
 875 1031 875 1031 942 966 c 1,6,7
 990 1008 990 1008 1014.5 1076 c 128,-1,8
 1039 1144 1039 1144 1039 1237 c 1,9,-1
 1265 1237 l 1,10,11
 1265 1090 1265 1090 1207.5 984 c 128,-1,12
 1150 878 1150 878 1043 823 c 1,13,14
 1070 763 1070 763 1084 694 c 128,-1,15
 1098 625 1098 625 1098 551 c 2,16,-1
 1098 530 l 2,17,18
 1098 285 1098 285 960 132 c 128,-1,19
 822 -21 822 -21 576 -21 c 0,20,21
 327 -21 327 -21 189 132 c 128,-1,22
 51 285 51 285 51 530 c 2,23,-1
 51 551 l 2,0,1
389 530 m 2,24,25
 389 394 389 394 431.5 316.5 c 128,-1,26
 474 239 474 239 576 239 c 0,27,28
 675 239 675 239 718 317 c 128,-1,29
 761 395 761 395 761 530 c 2,30,-1
 761 551 l 2,31,32
 761 683 761 683 718 762.5 c 128,-1,33
 675 842 675 842 574 842 c 0,34,35
 474 842 474 842 431.5 762 c 128,-1,36
 389 682 389 682 389 551 c 2,37,-1
 389 530 l 2,24,25
EndSplineSet
Validated: 1
EndChar

StartChar: Uhorn
Encoding: 431 431 325
Width: 1475
GlyphClass: 1
Flags: W
LayerCount: 2
Fore
SplineSet
1309 1456 m 1,0,-1
 1309 1272 l 1,1,-1
 1315 1271 l 1,2,3
 1401 1288 1401 1288 1430.5 1371.5 c 128,-1,4
 1460 1455 1460 1455 1460 1616 c 1,5,-1
 1683 1616 l 1,6,7
 1683 1366 1683 1366 1595.5 1229 c 128,-1,8
 1508 1092 1508 1092 1309 1067 c 1,9,-1
 1309 512 l 2,10,11
 1309 262 1309 262 1143 120.5 c 128,-1,12
 977 -21 977 -21 710 -21 c 0,13,14
 441 -21 441 -21 274 120.5 c 128,-1,15
 107 262 107 262 107 512 c 2,16,-1
 107 1456 l 1,17,-1
 446 1456 l 1,18,-1
 446 512 l 2,19,20
 446 377 446 377 516 308 c 128,-1,21
 586 239 586 239 710 239 c 0,22,23
 833 239 833 239 901.5 307.5 c 128,-1,24
 970 376 970 376 970 512 c 2,25,-1
 970 1456 l 1,26,-1
 1309 1456 l 1,0,-1
EndSplineSet
Validated: 1
EndChar

StartChar: uhorn
Encoding: 432 432 326
Width: 1146
GlyphClass: 1
Flags: W
LayerCount: 2
Fore
SplineSet
1400 1181 m 1,0,-1
 1402 1176 l 1,1,2
 1405 1002 1405 1002 1321.5 901.5 c 128,-1,3
 1238 801 1238 801 1061 776 c 1,4,-1
 1061 0 l 1,5,-1
 789 0 l 1,6,-1
 748 162 l 1,7,8
 700 74 700 74 623.5 26.5 c 128,-1,9
 547 -21 547 -21 447 -21 c 0,10,11
 279 -21 279 -21 183.5 97 c 128,-1,12
 88 215 88 215 88 462 c 2,13,-1
 88 1082 l 1,14,-1
 425 1082 l 1,15,-1
 425 460 l 2,16,17
 425 333 425 333 457.5 286 c 128,-1,18
 490 239 490 239 558 239 c 0,19,20
 612 239 612 239 653 254 c 128,-1,21
 694 269 694 269 723 299 c 1,22,-1
 723 1082 l 1,23,-1
 1061 1082 l 1,24,-1
 1061 953 l 1,25,-1
 1067 952 l 1,26,27
 1141 965 1141 965 1172.5 1021.5 c 128,-1,28
 1204 1078 1204 1078 1204 1181 c 1,29,-1
 1400 1181 l 1,0,-1
EndSplineSet
Validated: 33
EndChar

StartChar: uni0237
Encoding: 567 567 336
Width: 604
GlyphClass: 1
Flags: W
LayerCount: 2
Fore
SplineSet
476 1082 m 1,0,-1
 476 -15 l 2,1,2
 476 -217 476 -217 368 -327 c 128,-1,3
 260 -437 260 -437 67 -437 c 0,4,5
 22 -437 22 -437 -14 -433 c 128,-1,6
 -50 -429 -50 -429 -92 -420 c 1,7,-1
 -77 -165 l 1,8,9
 -49 -171 -49 -171 -29 -174 c 128,-1,10
 -9 -177 -9 -177 21 -177 c 0,11,12
 78 -177 78 -177 108.5 -135.5 c 128,-1,13
 139 -94 139 -94 139 -15 c 2,14,-1
 139 1082 l 1,15,-1
 476 1082 l 1,0,-1
EndSplineSet
Validated: 1
EndChar

StartChar: circumflex
Encoding: 710 710 338
Width: 1033
GlyphClass: 1
Flags: W
LayerCount: 2
Fore
SplineSet
918 1274 m 1,0,-1
 918 1252 l 1,1,-1
 653 1252 l 1,2,-1
 516 1378 l 1,3,-1
 380 1252 l 1,4,-1
 120 1252 l 1,5,-1
 120 1278 l 1,6,-1
 420 1518 l 1,7,-1
 613 1518 l 1,8,-1
 918 1274 l 1,0,-1
EndSplineSet
Validated: 1
EndChar

StartChar: caron
Encoding: 711 711 339
Width: 985
GlyphClass: 1
Flags: W
LayerCount: 2
Fore
SplineSet
492 1412 m 1,0,-1
 594 1528 l 1,1,-1
 903 1528 l 1,2,-1
 903 1512 l 1,3,-1
 611 1252 l 1,4,-1
 372 1252 l 1,5,-1
 78 1514 l 1,6,-1
 78 1528 l 1,7,-1
 390 1528 l 1,8,-1
 492 1412 l 1,0,-1
EndSplineSet
Validated: 1
EndChar

StartChar: breve
Encoding: 728 728 340
Width: 927
GlyphClass: 1
Flags: W
LayerCount: 2
Fore
SplineSet
825 1456 m 1,0,-1
 827 1450 l 1,1,2
 832 1317 832 1317 732 1233 c 128,-1,3
 632 1149 632 1149 464 1149 c 0,4,5
 295 1149 295 1149 195 1233 c 128,-1,6
 95 1317 95 1317 101 1450 c 1,7,-1
 103 1456 l 1,8,-1
 346 1456 l 1,9,10
 346 1409 346 1409 374.5 1379 c 128,-1,11
 403 1349 403 1349 464 1349 c 0,12,13
 524 1349 524 1349 552.5 1379 c 128,-1,14
 581 1409 581 1409 581 1456 c 1,15,-1
 825 1456 l 1,0,-1
EndSplineSet
Validated: 33
EndChar

StartChar: dotaccent
Encoding: 729 729 341
Width: 664
GlyphClass: 1
Flags: W
LayerCount: 2
Fore
SplineSet
508 1215 m 1,0,-1
 127 1215 l 1,1,-1
 127 1475 l 1,2,-1
 508 1475 l 1,3,-1
 508 1215 l 1,0,-1
EndSplineSet
Validated: 1
EndChar

StartChar: ring
Encoding: 730 730 342
Width: 674
GlyphClass: 1
Flags: W
LayerCount: 2
Fore
SplineSet
149 1304 m 0,0,1
 149 1377 149 1377 204.5 1427 c 128,-1,2
 260 1477 260 1477 343 1477 c 0,3,4
 424 1477 424 1477 479 1427 c 128,-1,5
 534 1377 534 1377 534 1304 c 0,6,7
 534 1230 534 1230 479 1182 c 128,-1,8
 424 1134 424 1134 343 1134 c 0,9,10
 260 1134 260 1134 204.5 1182 c 128,-1,11
 149 1230 149 1230 149 1304 c 0,0,1
272 1304 m 0,12,13
 272 1273 272 1273 292 1253.5 c 128,-1,14
 312 1234 312 1234 343 1234 c 0,15,16
 372 1234 372 1234 390.5 1253 c 128,-1,17
 409 1272 409 1272 409 1304 c 256,18,19
 409 1336 409 1336 390.5 1356 c 128,-1,20
 372 1376 372 1376 343 1376 c 0,21,22
 312 1376 312 1376 292 1356 c 128,-1,23
 272 1336 272 1336 272 1304 c 0,12,13
EndSplineSet
Validated: 1
EndChar

StartChar: ogonek
Encoding: 731 731 343
Width: 645
GlyphClass: 1
Flags: W
LayerCount: 2
Fore
SplineSet
412 0 m 1,0,1
 368 -53 368 -53 350 -85 c 128,-1,2
 332 -117 332 -117 332 -164 c 0,3,4
 332 -183 332 -183 346 -203 c 128,-1,5
 360 -223 360 -223 412 -223 c 0,6,7
 440 -223 440 -223 461 -218 c 128,-1,8
 482 -213 482 -213 503 -205 c 1,9,-1
 539 -373 l 1,10,11
 503 -392 503 -392 458.5 -404.5 c 128,-1,12
 414 -417 414 -417 353 -417 c 0,13,14
 238 -417 238 -417 164 -360.5 c 128,-1,15
 90 -304 90 -304 90 -203 c 0,16,17
 90 -128 90 -128 129 -60.5 c 128,-1,18
 168 7 168 7 250 60 c 1,19,-1
 412 0 l 1,0,1
EndSplineSet
Validated: 1
EndChar

StartChar: tilde
Encoding: 732 732 344
Width: 987
GlyphClass: 1
Flags: W
LayerCount: 2
Fore
SplineSet
887 1480 m 1,0,1
 887 1384 887 1384 827 1315.5 c 128,-1,2
 767 1247 767 1247 677 1247 c 0,3,4
 607 1247 607 1247 512.5 1289 c 128,-1,5
 418 1331 418 1331 366 1331 c 0,6,7
 333 1331 333 1331 311 1298.5 c 128,-1,8
 289 1266 289 1266 289 1221 c 1,9,-1
 111 1271 l 1,10,11
 111 1365 111 1365 170.5 1434.5 c 128,-1,12
 230 1504 230 1504 320 1504 c 0,13,14
 376 1504 376 1504 477.5 1462.5 c 128,-1,15
 579 1421 579 1421 631 1421 c 0,16,17
 662 1421 662 1421 685.5 1453 c 128,-1,18
 709 1485 709 1485 709 1531 c 1,19,-1
 887 1480 l 1,0,1
EndSplineSet
Validated: 1
EndChar

StartChar: hungarumlaut
Encoding: 733 733 345
Width: 933
GlyphClass: 1
Flags: W
LayerCount: 2
Fore
SplineSet
786 1518 m 1,0,-1
 1088 1518 l 1,1,-1
 1090 1512 l 1,2,-1
 812 1252 l 1,3,-1
 548 1252 l 1,4,-1
 546 1257 l 1,5,-1
 786 1518 l 1,0,-1
368 1518 m 1,6,-1
 673 1518 l 1,7,-1
 675 1513 l 1,8,-1
 435 1252 l 1,9,-1
 162 1252 l 1,10,-1
 368 1518 l 1,6,-1
EndSplineSet
Validated: 1
EndChar

StartChar: uni02F3
Encoding: 755 755 346
Width: 659
GlyphClass: 1
Flags: W
LayerCount: 2
Fore
SplineSet
147 -225 m 0,0,1
 147 -151 147 -151 203 -101.5 c 128,-1,2
 259 -52 259 -52 343 -52 c 0,3,4
 425 -52 425 -52 480.5 -101.5 c 128,-1,5
 536 -151 536 -151 536 -225 c 0,6,7
 536 -298 536 -298 480.5 -346.5 c 128,-1,8
 425 -395 425 -395 343 -395 c 0,9,10
 259 -395 259 -395 203 -346.5 c 128,-1,11
 147 -298 147 -298 147 -225 c 0,0,1
272 -225 m 0,12,13
 272 -255 272 -255 291.5 -275 c 128,-1,14
 311 -295 311 -295 343 -295 c 0,15,16
 373 -295 373 -295 391.5 -275.5 c 128,-1,17
 410 -256 410 -256 410 -225 c 0,18,19
 410 -192 410 -192 391.5 -172.5 c 128,-1,20
 373 -153 373 -153 343 -153 c 0,21,22
 311 -153 311 -153 291.5 -172.5 c 128,-1,23
 272 -192 272 -192 272 -225 c 0,12,13
EndSplineSet
Validated: 1
EndChar

StartChar: hook
Encoding: 777 777 350
Width: 0
GlyphClass: 1
Flags: W
LayerCount: 2
Fore
SplineSet
-750 1276 m 1,0,-1
 -772 1402 l 1,1,2
 -700 1404 -700 1404 -668 1419 c 128,-1,3
 -636 1434 -636 1434 -641 1462 c 1,4,-1
 -641 1468 l 1,5,6
 -636 1503 -636 1503 -670 1517 c 128,-1,7
 -704 1531 -704 1531 -770 1531 c 1,8,-1
 -763 1676 l 1,9,10
 -559 1676 -559 1676 -451 1624 c 128,-1,11
 -343 1572 -343 1572 -343 1479 c 0,12,13
 -343 1417 -343 1417 -386.5 1381.5 c 128,-1,14
 -430 1346 -430 1346 -493 1338 c 1,15,-1
 -493 1276 l 1,16,-1
 -750 1276 l 1,0,-1
EndSplineSet
Validated: 1
EndChar

StartChar: uni030F
Encoding: 783 783 351
Width: 0
GlyphClass: 1
Flags: W
LayerCount: 2
Fore
SplineSet
-519 1257 m 1,0,-1
 -521 1252 l 1,1,-1
 -785 1252 l 1,2,-1
 -1063 1512 l 1,3,-1
 -1061 1518 l 1,4,-1
 -759 1518 l 1,5,-1
 -519 1257 l 1,0,-1
-134 1252 m 1,6,-1
 -408 1252 l 1,7,-1
 -648 1513 l 1,8,-1
 -646 1518 l 1,9,-1
 -341 1518 l 1,10,-1
 -134 1252 l 1,6,-1
EndSplineSet
Validated: 1
EndChar

StartChar: dotbelow
Encoding: 803 803 352
Width: 0
GlyphClass: 1
Flags: W
LayerCount: 2
Fore
SplineSet
-407 -362 m 1,0,-1
 -788 -362 l 1,1,-1
 -788 -102 l 1,2,-1
 -407 -102 l 1,3,-1
 -407 -362 l 1,0,-1
EndSplineSet
Validated: 1
EndChar

StartChar: tonos
Encoding: 900 900 353
Width: 779
GlyphClass: 1
Flags: W
LayerCount: 2
Fore
SplineSet
335 1558 m 1,0,-1
 647 1558 l 1,1,-1
 429 1272 l 1,2,-1
 258 1272 l 1,3,-1
 335 1558 l 1,0,-1
EndSplineSet
Validated: 1
EndChar

StartChar: dieresistonos
Encoding: 901 901 354
Width: 1163
GlyphClass: 1
Flags: W
LayerCount: 2
Fore
SplineSet
997 1252 m 1,0,-1
 717 1252 l 1,1,-1
 717 1456 l 1,2,-1
 997 1456 l 1,3,-1
 997 1252 l 1,0,-1
429 1252 m 1,4,-1
 149 1252 l 1,5,-1
 149 1456 l 1,6,-1
 429 1456 l 1,7,-1
 429 1252 l 1,4,-1
531 1770 m 1,8,-1
 844 1770 l 1,9,-1
 643 1484 l 1,10,-1
 494 1484 l 1,11,-1
 531 1770 l 1,8,-1
EndSplineSet
Validated: 1
EndChar

StartChar: Gamma
Encoding: 915 915 366
Width: 1144
GlyphClass: 1
Flags: W
LayerCount: 2
Fore
SplineSet
1093 1196 m 1,0,-1
 455 1196 l 1,1,-1
 455 0 l 1,2,-1
 116 0 l 1,3,-1
 116 1456 l 1,4,-1
 1093 1456 l 1,5,-1
 1093 1196 l 1,0,-1
EndSplineSet
Validated: 1
EndChar

StartChar: Delta
Encoding: 916 916 367
AltUni2: 002206.ffffffff.0 002206.ffffffff.0
Width: 1517
GlyphClass: 1
Flags: W
LayerCount: 2
Fore
SplineSet
766 1456 m 1,0,-1
 766 1455 l 1,1,-1
 767 1456 l 1,2,-1
 948 1456 l 1,3,-1
 1520 0 l 1,4,-1
 18 0 l 1,5,-1
 585 1456 l 1,6,-1
 766 1456 l 1,0,-1
469 260 m 1,7,-1
 1067 260 l 1,8,-1
 769 1061 l 1,9,-1
 763 1061 l 1,10,-1
 469 260 l 1,7,-1
EndSplineSet
Validated: 1
EndChar

StartChar: Theta
Encoding: 920 920 371
Width: 1416
GlyphClass: 1
Flags: W
LayerCount: 2
Fore
SplineSet
870 589 m 1,0,-1
 555 589 l 1,1,-1
 555 848 l 1,2,-1
 870 848 l 1,3,-1
 870 589 l 1,0,-1
1326 597 m 2,4,5
 1326 328 1326 328 1155.5 153.5 c 128,-1,6
 985 -21 985 -21 710 -21 c 0,7,8
 433 -21 433 -21 261 153.5 c 128,-1,9
 89 328 89 328 89 597 c 2,10,-1
 89 859 l 2,11,12
 89 1127 89 1127 260.5 1302 c 128,-1,13
 432 1477 432 1477 708 1477 c 0,14,15
 982 1477 982 1477 1154 1302 c 128,-1,16
 1326 1127 1326 1127 1326 859 c 2,17,-1
 1326 597 l 2,4,5
989 861 m 2,18,19
 989 1017 989 1017 915.5 1117 c 128,-1,20
 842 1217 842 1217 708 1217 c 0,21,22
 571 1217 571 1217 498.5 1117.5 c 128,-1,23
 426 1018 426 1018 426 861 c 2,24,-1
 426 597 l 2,25,26
 426 439 426 439 499.5 339 c 128,-1,27
 573 239 573 239 710 239 c 0,28,29
 843 239 843 239 916 339 c 128,-1,30
 989 439 989 439 989 597 c 2,31,-1
 989 861 l 2,18,19
EndSplineSet
Validated: 1
EndChar

StartChar: Lambda
Encoding: 923 923 374
Width: 1319
GlyphClass: 1
Flags: W
LayerCount: 2
Fore
SplineSet
361 0 m 1,0,-1
 5 0 l 1,1,-1
 478 1456 l 1,2,-1
 841 1456 l 1,3,-1
 1314 0 l 1,4,-1
 959 0 l 1,5,-1
 683 1061 l 1,6,-1
 663 1147 l 1,7,-1
 657 1147 l 1,8,-1
 638 1065 l 1,9,-1
 361 0 l 1,0,-1
EndSplineSet
Validated: 1
EndChar

StartChar: Xi
Encoding: 926 926 377
Width: 1157
GlyphClass: 1
Flags: W
LayerCount: 2
Fore
SplineSet
85 260 m 1,0,-1
 1088 260 l 1,1,-1
 1088 0 l 1,2,-1
 85 0 l 1,3,-1
 85 260 l 1,0,-1
212 856 m 1,4,-1
 964 856 l 1,5,-1
 964 608 l 1,6,-1
 212 608 l 1,7,-1
 212 856 l 1,4,-1
118 1456 m 1,8,-1
 1033 1456 l 1,9,-1
 1033 1196 l 1,10,-1
 118 1196 l 1,11,-1
 118 1456 l 1,8,-1
EndSplineSet
Validated: 1
EndChar

StartChar: Pi
Encoding: 928 928 379
Width: 1446
GlyphClass: 1
Flags: W
LayerCount: 2
Fore
SplineSet
1330 0 m 1,0,-1
 993 0 l 1,1,-1
 993 1196 l 1,2,-1
 454 1196 l 1,3,-1
 454 0 l 1,4,-1
 116 0 l 1,5,-1
 116 1456 l 1,6,-1
 1330 1456 l 1,7,-1
 1330 0 l 1,0,-1
EndSplineSet
Validated: 1
EndChar

StartChar: Sigma
Encoding: 931 931 381
Width: 1157
GlyphClass: 1
Flags: W
LayerCount: 2
Fore
SplineSet
855 731 m 1,0,-1
 530 260 l 1,1,-1
 1109 260 l 1,2,-1
 1109 0 l 1,3,-1
 73 0 l 1,4,-1
 73 152 l 1,5,-1
 498 738 l 1,6,-1
 73 1306 l 1,7,-1
 73 1456 l 1,8,-1
 1094 1456 l 1,9,-1
 1094 1196 l 1,10,-1
 535 1196 l 1,11,-1
 855 745 l 1,12,-1
 855 731 l 1,0,-1
EndSplineSet
Validated: 1
EndChar

StartChar: Phi
Encoding: 934 934 384
Width: 1541
GlyphClass: 1
Flags: W
LayerCount: 2
Fore
SplineSet
952 1269 m 1,0,1
 1208 1250 1208 1250 1362 1102 c 128,-1,2
 1516 954 1516 954 1516 719 c 0,3,4
 1516 491 1516 491 1362 347.5 c 128,-1,5
 1208 204 1208 204 952 186 c 1,6,-1
 952 0 l 1,7,-1
 615 0 l 1,8,-1
 615 186 l 1,9,10
 356 203 356 203 201 345.5 c 128,-1,11
 46 488 46 488 46 717 c 0,12,13
 46 953 46 953 201 1101.5 c 128,-1,14
 356 1250 356 1250 615 1269 c 1,15,-1
 615 1456 l 1,16,-1
 952 1456 l 1,17,-1
 952 1269 l 1,0,1
377 717 m 0,18,19
 377 609 377 609 439.5 547.5 c 128,-1,20
 502 486 502 486 609 476 c 1,21,-1
 615 478 l 1,22,-1
 615 977 l 1,23,-1
 609 979 l 1,24,25
 502 968 502 968 439.5 901 c 128,-1,26
 377 834 377 834 377 717 c 0,18,19
1185 719 m 0,27,28
 1185 834 1185 834 1123.5 901 c 128,-1,29
 1062 968 1062 968 958 979 c 1,30,-1
 952 976 l 1,31,-1
 952 478 l 1,32,-1
 958 476 l 1,33,34
 1062 486 1062 486 1123.5 548.5 c 128,-1,35
 1185 611 1185 611 1185 719 c 0,27,28
EndSplineSet
Validated: 1
EndChar

StartChar: Psi
Encoding: 936 936 386
Width: 1517
GlyphClass: 1
Flags: W
LayerCount: 2
Fore
SplineSet
938 632 m 1,0,-1
 944 630 l 1,1,2
 1045 643 1045 643 1092.5 726.5 c 128,-1,3
 1140 810 1140 810 1140 969 c 2,4,-1
 1140 1456 l 1,5,-1
 1479 1456 l 1,6,-1
 1479 969 l 2,7,8
 1479 701 1479 701 1334.5 542 c 128,-1,9
 1190 383 1190 383 938 358 c 1,10,-1
 938 0 l 1,11,-1
 601 0 l 1,12,-1
 601 356 l 1,13,14
 339 376 339 376 190 535.5 c 128,-1,15
 41 695 41 695 41 969 c 2,16,-1
 41 1456 l 1,17,-1
 378 1456 l 1,18,-1
 378 969 l 2,19,20
 378 817 378 817 433 732 c 128,-1,21
 488 647 488 647 595 631 c 1,22,-1
 601 633 l 1,23,-1
 601 1456 l 1,24,-1
 938 1456 l 1,25,-1
 938 632 l 1,0,-1
EndSplineSet
Validated: 1
EndChar

StartChar: Omega
Encoding: 937 937 387
AltUni2: 002126.ffffffff.0 002126.ffffffff.0
Width: 1380
GlyphClass: 1
Flags: W
LayerCount: 2
Fore
SplineSet
735 268 m 1,0,1
 803 308 803 308 843 433 c 128,-1,2
 883 558 883 558 883 788 c 2,3,-1
 883 869 l 2,4,5
 883 1037 883 1037 830 1125 c 128,-1,6
 777 1213 777 1213 682 1213 c 0,7,8
 588 1213 588 1213 536 1124.5 c 128,-1,9
 484 1036 484 1036 484 869 c 2,10,-1
 484 788 l 2,11,12
 484 556 484 556 524.5 431.5 c 128,-1,13
 565 307 565 307 637 268 c 1,14,-1
 637 0 l 1,15,-1
 130 0 l 1,16,-1
 130 264 l 1,17,-1
 380 264 l 1,18,19
 255 351 255 351 177.5 488.5 c 128,-1,20
 100 626 100 626 100 788 c 2,21,-1
 100 867 l 2,22,23
 100 1135 100 1135 261.5 1306 c 128,-1,24
 423 1477 423 1477 682 1477 c 0,25,26
 940 1477 940 1477 1103 1305.5 c 128,-1,27
 1266 1134 1266 1134 1266 867 c 2,28,-1
 1266 788 l 2,29,30
 1266 626 1266 626 1188 488.5 c 128,-1,31
 1110 351 1110 351 987 264 c 1,32,-1
 1244 264 l 1,33,-1
 1244 0 l 1,34,-1
 735 0 l 1,35,-1
 735 268 l 1,0,1
EndSplineSet
Validated: 1
EndChar

StartChar: alpha
Encoding: 945 945 395
Width: 1152
GlyphClass: 1
Flags: W
LayerCount: 2
Fore
SplineSet
1042 1081 m 1,0,-1
 1042 350 l 2,1,2
 1042 290 1042 290 1058.5 265.5 c 128,-1,3
 1075 241 1075 241 1111 241 c 0,4,5
 1124 241 1124 241 1131.5 242 c 128,-1,6
 1139 243 1139 243 1148 248 c 1,7,-1
 1173 3 l 1,8,9
 1135 -10 1135 -10 1102 -15.5 c 128,-1,10
 1069 -21 1069 -21 1026 -21 c 0,11,12
 923 -21 923 -21 850.5 21 c 128,-1,13
 778 63 778 63 741 148 c 1,14,15
 696 66 696 66 631.5 22.5 c 128,-1,16
 567 -21 567 -21 481 -21 c 0,17,18
 281 -21 281 -21 170.5 127 c 128,-1,19
 60 275 60 275 60 518 c 2,20,-1
 60 539 l 2,21,22
 60 792 60 792 170.5 947 c 128,-1,23
 281 1102 281 1102 483 1102 c 0,24,25
 564 1102 564 1102 625.5 1060 c 128,-1,26
 687 1018 687 1018 731 940 c 1,27,-1
 774 1081 l 1,28,-1
 1042 1081 l 1,0,-1
399 518 m 2,29,30
 399 385 399 385 437 312 c 128,-1,31
 475 239 475 239 566 239 c 0,32,33
 614 239 614 239 649 255.5 c 128,-1,34
 684 272 684 272 706 305 c 1,35,36
 705 315 705 315 705 324.5 c 128,-1,37
 705 334 705 334 705 350 c 2,38,-1
 705 768 l 1,39,40
 682 804 682 804 648.5 823 c 128,-1,41
 615 842 615 842 568 842 c 0,42,43
 479 842 479 842 439 759 c 128,-1,44
 399 676 399 676 399 539 c 2,45,-1
 399 518 l 2,29,30
EndSplineSet
Validated: 1
EndChar

StartChar: beta
Encoding: 946 946 396
Width: 1243
GlyphClass: 1
Flags: W
LayerCount: 2
Fore
SplineSet
637 1477 m 0,0,1
 862 1477 862 1477 993.5 1374.5 c 128,-1,2
 1125 1272 1125 1272 1125 1082 c 0,3,4
 1125 979 1125 979 1074 895 c 128,-1,5
 1023 811 1023 811 932 762 c 1,6,7
 1055 719 1055 719 1121.5 628.5 c 128,-1,8
 1188 538 1188 538 1188 408 c 0,9,10
 1188 203 1188 203 1072 91 c 128,-1,11
 956 -21 956 -21 746 -21 c 0,12,13
 675 -21 675 -21 603.5 -3.5 c 128,-1,14
 532 14 532 14 471 50 c 1,15,-1
 471 -415 l 1,16,-1
 134 -415 l 1,17,-1
 134 1018 l 2,18,19
 134 1226 134 1226 278 1351.5 c 128,-1,20
 422 1477 422 1477 637 1477 c 0,0,1
633 857 m 2,21,22
 713 857 713 857 750.5 905.5 c 128,-1,23
 788 954 788 954 788 1051 c 0,24,25
 788 1121 788 1121 749 1169 c 128,-1,26
 710 1217 710 1217 637 1217 c 0,27,28
 562 1217 562 1217 516.5 1163.5 c 128,-1,29
 471 1110 471 1110 471 1018 c 2,30,-1
 471 280 l 1,31,32
 506 260 506 260 553.5 249.5 c 128,-1,33
 601 239 601 239 658 239 c 0,34,35
 746 239 746 239 798.5 289 c 128,-1,36
 851 339 851 339 851 415 c 0,37,38
 851 523 851 523 800 574.5 c 128,-1,39
 749 626 749 626 649 626 c 2,40,-1
 577 626 l 1,41,-1
 577 857 l 1,42,-1
 633 857 l 2,21,22
EndSplineSet
Validated: 1
EndChar

StartChar: gamma
Encoding: 947 947 397
Width: 1053
GlyphClass: 1
Flags: W
LayerCount: 2
Fore
SplineSet
692 1082 m 1,0,-1
 1047 1082 l 1,1,-1
 695 0 l 1,2,-1
 692 0 l 1,3,-1
 692 -417 l 1,4,-1
 354 -417 l 1,5,-1
 354 0 l 1,6,-1
 352 0 l 1,7,-1
 0 1082 l 1,8,-1
 356 1082 l 1,9,-1
 501 446 l 1,10,-1
 521 331 l 1,11,-1
 527 330 l 1,12,-1
 549 446 l 1,13,-1
 692 1082 l 1,0,-1
EndSplineSet
Validated: 1
EndChar

StartChar: delta
Encoding: 948 948 398
Width: 1151
GlyphClass: 1
Flags: W
LayerCount: 2
Fore
SplineSet
999 1456 m 1,0,-1
 999 1196 l 1,1,-1
 618 1196 l 1,2,-1
 616 1190 l 1,3,-1
 798 1048 l 1,4,5
 929 951 929 951 1013.5 831 c 128,-1,6
 1098 711 1098 711 1098 551 c 2,7,-1
 1098 530 l 2,8,9
 1098 285 1098 285 960 132 c 128,-1,10
 822 -21 822 -21 576 -21 c 0,11,12
 327 -21 327 -21 189 120.5 c 128,-1,13
 51 262 51 262 51 490 c 2,14,-1
 51 511 l 2,15,16
 51 705 51 705 161 839.5 c 128,-1,17
 271 974 271 974 432 1003 c 1,18,-1
 440 1004 l 1,19,-1
 441 1010 l 1,20,-1
 152 1249 l 1,21,-1
 152 1456 l 1,22,-1
 999 1456 l 1,0,-1
574 842 m 0,23,24
 474 842 474 842 431.5 762 c 128,-1,25
 389 682 389 682 389 551 c 2,26,-1
 389 530 l 2,27,28
 389 394 389 394 431.5 316.5 c 128,-1,29
 474 239 474 239 576 239 c 0,30,31
 675 239 675 239 718 317 c 128,-1,32
 761 395 761 395 761 530 c 2,33,-1
 761 551 l 2,34,35
 761 683 761 683 718 762.5 c 128,-1,36
 675 842 675 842 574 842 c 0,23,24
EndSplineSet
Validated: 1
EndChar

StartChar: epsilon
Encoding: 949 949 399
Width: 1159
GlyphClass: 1
Flags: W
LayerCount: 2
Fore
SplineSet
607 450 m 2,0,1
 523 450 523 450 476 423 c 128,-1,2
 429 396 429 396 429 336 c 0,3,4
 429 289 429 289 473 254.5 c 128,-1,5
 517 220 517 220 598 220 c 0,6,7
 683 220 683 220 726.5 248 c 128,-1,8
 770 276 770 276 770 320 c 1,9,-1
 1097 320 l 1,10,-1
 1099 314 l 1,11,12
 1104 152 1104 152 961 66 c 128,-1,13
 818 -20 818 -20 621 -20 c 0,14,15
 392 -20 392 -20 242.5 68 c 128,-1,16
 93 156 93 156 93 306 c 0,17,18
 93 396 93 396 146 460 c 128,-1,19
 199 524 199 524 300 557 c 1,20,21
 212 593 212 593 162 653.5 c 128,-1,22
 112 714 112 714 112 786 c 0,23,24
 112 935 112 935 252 1018 c 128,-1,25
 392 1101 392 1101 621 1101 c 0,26,27
 820 1101 820 1101 953.5 1011.5 c 128,-1,28
 1087 922 1087 922 1082 774 c 1,29,-1
 1080 768 l 1,30,-1
 753 768 l 1,31,32
 753 814 753 814 710.5 837.5 c 128,-1,33
 668 861 668 861 599 861 c 0,34,35
 523 861 523 861 486 829.5 c 128,-1,36
 449 798 449 798 449 755 c 0,37,38
 449 709 449 709 491.5 683 c 128,-1,39
 534 657 534 657 607 657 c 2,40,-1
 782 657 l 1,41,-1
 782 450 l 1,42,-1
 607 450 l 2,0,1
EndSplineSet
Validated: 33
EndChar

StartChar: zeta
Encoding: 950 950 400
Width: 1014
GlyphClass: 1
Flags: W
LayerCount: 2
Fore
SplineSet
966 1456 m 1,0,-1
 966 1278 l 1,1,-1
 597 843 l 2,2,3
 497 725 497 725 456 640 c 128,-1,4
 415 555 415 555 415 440 c 0,5,6
 415 346 415 346 462.5 300 c 128,-1,7
 510 254 510 254 613 254 c 2,8,-1
 678 254 l 2,9,10
 818 254 818 254 900 176.5 c 128,-1,11
 982 99 982 99 982 -37 c 0,12,13
 980 -170 980 -170 886.5 -278 c 128,-1,14
 793 -386 793 -386 623 -427 c 1,15,-1
 519 -201 l 1,16,17
 584 -174 584 -174 619.5 -143.5 c 128,-1,18
 655 -113 655 -113 655 -69 c 0,19,20
 655 -36 655 -36 628.5 -18 c 128,-1,21
 602 0 602 0 538 0 c 2,22,-1
 490 0 l 2,23,24
 291 0 291 0 185.5 111.5 c 128,-1,25
 80 223 80 223 80 381 c 0,26,27
 80 553 80 553 142 678 c 128,-1,28
 204 803 204 803 345 978 c 2,29,-1
 523 1193 l 1,30,-1
 520 1198 l 1,31,-1
 54 1198 l 1,32,-1
 54 1456 l 1,33,-1
 966 1456 l 1,0,-1
EndSplineSet
Validated: 1
EndChar

StartChar: eta
Encoding: 951 951 401
Width: 1151
GlyphClass: 1
Flags: W
LayerCount: 2
Fore
SplineSet
407 1082 m 1,0,-1
 420 928 l 1,1,2
 474 1010 474 1010 552.5 1056 c 128,-1,3
 631 1102 631 1102 726 1102 c 0,4,5
 885 1102 885 1102 974.5 994 c 128,-1,6
 1064 886 1064 886 1064 651 c 2,7,-1
 1064 -416 l 1,8,-1
 726 -416 l 1,9,-1
 726 652 l 2,10,11
 726 755 726 755 693 798.5 c 128,-1,12
 660 842 660 842 597 842 c 0,13,14
 542 842 542 842 499.5 822.5 c 128,-1,15
 457 803 457 803 427 768 c 1,16,-1
 427 0 l 1,17,-1
 90 0 l 1,18,-1
 90 1082 l 1,19,-1
 407 1082 l 1,0,-1
EndSplineSet
Validated: 1
EndChar

StartChar: theta
Encoding: 952 952 402
Width: 1231
GlyphClass: 1
Flags: W
LayerCount: 2
Fore
SplineSet
1106 535 m 2,0,1
 1106 274 1106 274 967 126.5 c 128,-1,2
 828 -21 828 -21 600 -21 c 0,3,4
 370 -21 370 -21 231 126.5 c 128,-1,5
 92 274 92 274 92 535 c 2,6,-1
 92 921 l 2,7,8
 92 1182 92 1182 230 1329.5 c 128,-1,9
 368 1477 368 1477 598 1477 c 0,10,11
 826 1477 826 1477 966 1329 c 128,-1,12
 1106 1181 1106 1181 1106 921 c 2,13,-1
 1106 535 l 2,0,1
769 611 m 1,14,-1
 429 611 l 1,15,-1
 429 514 l 2,16,17
 429 378 429 378 473.5 308.5 c 128,-1,18
 518 239 518 239 600 239 c 0,19,20
 680 239 680 239 724.5 308.5 c 128,-1,21
 769 378 769 378 769 514 c 2,22,-1
 769 611 l 1,14,-1
429 858 m 1,23,-1
 769 858 l 1,24,-1
 769 944 l 2,25,26
 769 1077 769 1077 723.5 1147 c 128,-1,27
 678 1217 678 1217 598 1217 c 0,28,29
 517 1217 517 1217 473 1147 c 128,-1,30
 429 1077 429 1077 429 944 c 2,31,-1
 429 858 l 1,23,-1
EndSplineSet
Validated: 1
EndChar

StartChar: iota
Encoding: 953 953 403
Width: 685
GlyphClass: 1
Flags: W
LayerCount: 2
Fore
SplineSet
445 1081 m 1,0,-1
 445 350 l 2,1,2
 445 289 445 289 465 264.5 c 128,-1,3
 485 240 485 240 533 240 c 0,4,5
 564 240 564 240 578.5 242 c 128,-1,6
 593 244 593 244 634 253 c 1,7,-1
 657 3 l 1,8,9
 609 -10 609 -10 568 -15.5 c 128,-1,10
 527 -21 527 -21 471 -21 c 0,11,12
 296 -21 296 -21 201 72.5 c 128,-1,13
 106 166 106 166 106 350 c 2,14,-1
 106 1081 l 1,15,-1
 445 1081 l 1,0,-1
EndSplineSet
Validated: 1
EndChar

StartChar: lambda
Encoding: 955 955 405
Width: 1071
GlyphClass: 1
Flags: W
LayerCount: 2
Fore
SplineSet
351 0 m 1,0,-1
 -9 0 l 1,1,-1
 357 1072 l 1,2,-1
 305 1167 l 2,3,4
 285 1208 285 1208 247 1232.5 c 128,-1,5
 209 1257 209 1257 159 1257 c 0,6,7
 145 1257 145 1257 124.5 1255 c 128,-1,8
 104 1253 104 1253 94 1251 c 1,9,-1
 85 1492 l 1,10,11
 137 1506 137 1506 169.5 1512 c 128,-1,12
 202 1518 202 1518 246 1518 c 0,13,14
 418 1518 418 1518 499 1439.5 c 128,-1,15
 580 1361 580 1361 626 1243 c 2,16,-1
 991 368 l 2,17,18
 1007 324 1007 324 1034 294 c 128,-1,19
 1061 264 1061 264 1101 253 c 0,20,21
 1110 250 1110 250 1125.5 249 c 128,-1,22
 1141 248 1141 248 1156 248 c 1,23,-1
 1128 -4 l 1,24,25
 1085 -10 1085 -10 1044 -11.5 c 128,-1,26
 1003 -13 1003 -13 960 -9 c 0,27,28
 826 4 826 4 751.5 110 c 128,-1,29
 677 216 677 216 637 343 c 1,30,-1
 526 659 l 1,31,-1
 520 658 l 1,32,-1
 511 604 l 1,33,-1
 351 0 l 1,0,-1
EndSplineSet
Validated: 33
EndChar

StartChar: xi
Encoding: 958 958 408
Width: 1125
GlyphClass: 1
Flags: W
LayerCount: 2
Fore
SplineSet
1010 1456 m 1,0,-1
 1010 1186 l 1,1,-1
 731 1186 l 2,2,3
 632 1184 632 1184 584.5 1152.5 c 128,-1,4
 537 1121 537 1121 537 1063 c 0,5,6
 537 998 537 998 581.5 959 c 128,-1,7
 626 920 626 920 720 920 c 2,8,-1
 875 920 l 1,9,-1
 875 649 l 1,10,-1
 732 649 l 2,11,12
 591 649 591 649 517 591 c 128,-1,13
 443 533 443 533 443 424 c 0,14,15
 443 346 443 346 497.5 298 c 128,-1,16
 552 250 552 250 648 250 c 2,17,-1
 800 250 l 2,18,19
 949 250 949 250 1034 177 c 128,-1,20
 1119 104 1119 104 1119 -37 c 0,21,22
 1117 -194 1117 -194 1029.5 -296 c 128,-1,23
 942 -398 942 -398 760 -448 c 1,24,-1
 678 -255 l 1,25,26
 734 -231 734 -231 774 -197.5 c 128,-1,27
 814 -164 814 -164 814 -110 c 0,28,29
 814 -68 814 -68 785 -44.5 c 128,-1,30
 756 -21 756 -21 694 -21 c 2,31,-1
 624 -21 l 2,32,33
 384 -21 384 -21 244.5 97 c 128,-1,34
 105 215 105 215 105 428 c 0,35,36
 105 555 105 555 178 644 c 128,-1,37
 251 733 251 733 391 780 c 1,38,39
 298 811 298 811 249 865.5 c 128,-1,40
 200 920 200 920 200 998 c 0,41,42
 200 1064 200 1064 239 1110 c 128,-1,43
 278 1156 278 1156 351 1181 c 1,44,-1
 348 1186 l 1,45,-1
 140 1186 l 1,46,-1
 140 1456 l 1,47,-1
 1010 1456 l 1,0,-1
EndSplineSet
Validated: 1
EndChar

StartChar: pi
Encoding: 960 960 410
Width: 1440
GlyphClass: 1
Flags: W
LayerCount: 2
Fore
SplineSet
1276 840 m 1,0,-1
 1046 840 l 1,1,-1
 1046 350 l 2,2,3
 1046 289 1046 289 1066 264.5 c 128,-1,4
 1086 240 1086 240 1134 240 c 0,5,6
 1165 240 1165 240 1179.5 242 c 128,-1,7
 1194 244 1194 244 1235 253 c 1,8,-1
 1258 3 l 1,9,10
 1210 -10 1210 -10 1169 -15.5 c 128,-1,11
 1128 -21 1128 -21 1072 -21 c 0,12,13
 897 -21 897 -21 802 72.5 c 128,-1,14
 707 166 707 166 707 350 c 2,15,-1
 707 840 l 1,16,-1
 576 840 l 1,17,-1
 576 0 l 1,18,-1
 239 0 l 1,19,-1
 239 840 l 1,20,-1
 78 840 l 1,21,-1
 78 1082 l 1,22,-1
 1276 1082 l 1,23,-1
 1276 840 l 1,0,-1
EndSplineSet
Validated: 1
EndChar

StartChar: rho
Encoding: 961 961 411
Width: 1151
GlyphClass: 1
Flags: W
LayerCount: 2
Fore
SplineSet
1099 518 m 2,0,1
 1099 275 1099 275 988.5 127 c 128,-1,2
 878 -21 878 -21 678 -21 c 0,3,4
 599 -21 599 -21 539 9.5 c 128,-1,5
 479 40 479 40 434 99 c 1,6,-1
 434 -416 l 1,7,-1
 96 -416 l 1,8,-1
 96 579 l 2,9,10
 96 807 96 807 232.5 954.5 c 128,-1,11
 369 1102 369 1102 614 1102 c 0,12,13
 844 1102 844 1102 971.5 947 c 128,-1,14
 1099 792 1099 792 1099 539 c 2,15,-1
 1099 518 l 2,0,1
761 539 m 2,16,17
 761 675 761 675 720 758.5 c 128,-1,18
 679 842 679 842 592 842 c 0,19,20
 511 842 511 842 472.5 762.5 c 128,-1,21
 434 683 434 683 434 544 c 1,22,-1
 433 543 l 1,23,-1
 434 543 l 1,24,-1
 434 308 l 1,25,26
 458 273 458 273 497.5 256 c 128,-1,27
 537 239 537 239 595 239 c 0,28,29
 684 239 684 239 722.5 312.5 c 128,-1,30
 761 386 761 386 761 518 c 2,31,-1
 761 539 l 2,16,17
EndSplineSet
Validated: 1
EndChar

StartChar: sigma1
Encoding: 962 962 412
Width: 1027
GlyphClass: 1
Flags: W
LayerCount: 2
Fore
SplineSet
557 1102 m 0,0,1
 763 1102 763 1102 886 987.5 c 128,-1,2
 1009 873 1009 873 1005 674 c 1,3,-1
 1003 668 l 1,4,-1
 695 668 l 1,5,6
 695 745 695 745 660 793.5 c 128,-1,7
 625 842 625 842 557 842 c 0,8,9
 458 842 458 842 420 763.5 c 128,-1,10
 382 685 382 685 382 552 c 2,11,-1
 382 529 l 2,12,13
 382 395 382 395 438.5 334 c 128,-1,14
 495 273 495 273 630 254 c 0,15,16
 824 223 824 223 911.5 152.5 c 128,-1,17
 999 82 999 82 999 -58 c 0,18,19
 996 -191 996 -191 902.5 -299 c 128,-1,20
 809 -407 809 -407 640 -448 c 1,21,-1
 535 -222 l 1,22,23
 600 -194 600 -194 635.5 -163.5 c 128,-1,24
 671 -133 671 -133 671 -89 c 0,25,26
 671 -53 671 -53 636.5 -31.5 c 128,-1,27
 602 -10 602 -10 531 5 c 1,28,29
 283 41 283 41 164 171 c 128,-1,30
 45 301 45 301 45 529 c 2,31,-1
 45 552 l 2,32,33
 45 796 45 796 178 949 c 128,-1,34
 311 1102 311 1102 557 1102 c 0,0,1
EndSplineSet
Validated: 33
EndChar

StartChar: sigma
Encoding: 963 963 413
Width: 1176
GlyphClass: 1
Flags: W
LayerCount: 2
Fore
SplineSet
1150 822 m 1,0,-1
 902 822 l 1,1,2
 978 760 978 760 1025.5 678.5 c 128,-1,3
 1073 597 1073 597 1073 510 c 2,4,-1
 1073 489 l 2,5,6
 1073 262 1073 262 941.5 120.5 c 128,-1,7
 810 -21 810 -21 574 -21 c 0,8,9
 325 -21 325 -21 187 132 c 128,-1,10
 49 285 49 285 49 530 c 2,11,-1
 49 551 l 2,12,13
 49 786 49 786 187 934 c 128,-1,14
 325 1082 325 1082 572 1082 c 1,15,16
 572 1081 572 1081 572 1081 c 129,-1,17
 572 1081 572 1081 573 1081 c 1,18,-1
 573 1082 l 1,19,-1
 1150 1082 l 1,20,-1
 1150 822 l 1,0,-1
386 530 m 2,21,22
 386 395 386 395 429 317 c 128,-1,23
 472 239 472 239 574 239 c 0,24,25
 661 239 661 239 698.5 317 c 128,-1,26
 736 395 736 395 736 530 c 2,27,-1
 736 551 l 2,28,29
 736 674 736 674 699 748 c 128,-1,30
 662 822 662 822 573 822 c 0,31,32
 473 822 473 822 429.5 747.5 c 128,-1,33
 386 673 386 673 386 551 c 2,34,-1
 386 530 l 2,21,22
EndSplineSet
Validated: 1
EndChar

StartChar: tau
Encoding: 964 964 414
Width: 1077
GlyphClass: 1
Flags: W
LayerCount: 2
Fore
SplineSet
1052 824 m 1,0,-1
 710 824 l 1,1,-1
 710 0 l 1,2,-1
 372 0 l 1,3,-1
 372 824 l 1,4,-1
 35 824 l 1,5,-1
 35 1082 l 1,6,-1
 1052 1082 l 1,7,-1
 1052 824 l 1,0,-1
EndSplineSet
Validated: 1
EndChar

StartChar: upsilon
Encoding: 965 965 415
Width: 1151
GlyphClass: 1
Flags: W
LayerCount: 2
Fore
SplineSet
436 1082 m 1,0,-1
 436 470 l 2,1,2
 436 345 436 345 477 292 c 128,-1,3
 518 239 518 239 587 239 c 0,4,5
 675 239 675 239 714 332.5 c 128,-1,6
 753 426 753 426 753 566 c 0,7,8
 750 694 750 694 727 823.5 c 128,-1,9
 704 953 704 953 663 1082 c 1,10,-1
 976 1082 l 1,11,12
 1026 979 1026 979 1057.5 849 c 128,-1,13
 1089 719 1089 719 1089 566 c 0,14,15
 1089 292 1089 292 975 135.5 c 128,-1,16
 861 -21 861 -21 597 -21 c 0,17,18
 363 -21 363 -21 231 101 c 128,-1,19
 99 223 99 223 99 472 c 2,20,-1
 99 1082 l 1,21,-1
 436 1082 l 1,0,-1
EndSplineSet
Validated: 1
EndChar

StartChar: phi
Encoding: 966 966 416
Width: 1567
GlyphClass: 1
Flags: W
LayerCount: 2
Fore
SplineSet
944 1082 m 2,0,1
 1230 1082 1230 1082 1369.5 916 c 128,-1,2
 1509 750 1509 750 1509 545 c 0,3,4
 1509 324 1509 324 1375 172 c 128,-1,5
 1241 20 1241 20 944 -12 c 1,6,-1
 944 -478 l 1,7,-1
 606 -478 l 1,8,-1
 606 -9 l 1,9,10
 307 30 307 30 173 198 c 128,-1,11
 39 366 39 366 39 607 c 0,12,13
 39 748 39 748 76.5 867.5 c 128,-1,14
 114 987 114 987 175 1082 c 1,15,-1
 476 1082 l 1,16,17
 430 955 430 955 403.5 838 c 128,-1,18
 377 721 377 721 376 607 c 0,19,20
 376 467 376 467 427 381 c 128,-1,21
 478 295 478 295 600 268 c 1,22,-1
 606 269 l 1,23,-1
 606 1082 l 1,24,-1
 944 1082 l 2,0,1
1172 545 m 0,25,26
 1170 671 1170 671 1113 745.5 c 128,-1,27
 1056 820 1056 820 950 815 c 1,28,-1
 944 813 l 1,29,-1
 944 262 l 1,30,-1
 950 260 l 1,31,32
 1070 281 1070 281 1121 353 c 128,-1,33
 1172 425 1172 425 1172 545 c 0,25,26
EndSplineSet
Validated: 33
EndChar

StartChar: chi
Encoding: 967 967 417
Width: 1071
GlyphClass: 1
Flags: W
LayerCount: 2
Fore
SplineSet
147 1099 m 0,0,1
 320 1099 320 1099 401 1020.5 c 128,-1,2
 482 942 482 942 528 824 c 1,3,-1
 576 714 l 1,4,-1
 582 713 l 1,5,-1
 761 1082 l 1,6,-1
 1104 1082 l 1,7,-1
 738 344 l 1,8,-1
 912 -51 l 1,9,10
 926 -93 926 -93 954 -123.5 c 128,-1,11
 982 -154 982 -154 1021 -166 c 0,12,13
 1030 -169 1030 -169 1045.5 -170.5 c 128,-1,14
 1061 -172 1061 -172 1076 -172 c 1,15,-1
 1049 -423 l 1,16,17
 1008 -430 1008 -430 966.5 -431.5 c 128,-1,18
 925 -433 925 -433 881 -428 c 0,19,20
 770 -414 770 -414 708.5 -317 c 128,-1,21
 647 -220 647 -220 591 -76 c 1,22,-1
 565 -17 l 1,23,-1
 559 -17 l 1,24,-1
 362 -416 l 1,25,-1
 35 -416 l 1,26,-1
 405 348 l 1,27,-1
 230 748 l 2,28,29
 211 795 211 795 165.5 816.5 c 128,-1,30
 120 838 120 838 60 838 c 0,31,32
 46 838 46 838 26 836 c 128,-1,33
 6 834 6 834 -4 832 c 1,34,-1
 -13 1073 l 1,35,36
 38 1087 38 1087 70.5 1093 c 128,-1,37
 103 1099 103 1099 147 1099 c 0,0,1
EndSplineSet
Validated: 33
EndChar

StartChar: psi
Encoding: 968 968 418
Width: 1569
GlyphClass: 1
Flags: W
LayerCount: 2
Fore
SplineSet
945 1082 m 1,0,-1
 945 269 l 1,1,-1
 951 268 l 1,2,3
 1068 295 1068 295 1120.5 381.5 c 128,-1,4
 1173 468 1173 468 1173 607 c 0,5,6
 1171 721 1171 721 1144.5 838 c 128,-1,7
 1118 955 1118 955 1073 1082 c 1,8,-1
 1374 1082 l 1,9,10
 1434 987 1434 987 1472 867.5 c 128,-1,11
 1510 748 1510 748 1510 607 c 0,12,13
 1510 363 1510 363 1375.5 194.5 c 128,-1,14
 1241 26 1241 26 945 -11 c 1,15,-1
 945 -478 l 1,16,-1
 608 -478 l 1,17,-1
 608 -9 l 1,18,19
 345 25 345 25 201 171.5 c 128,-1,20
 57 318 57 318 57 587 c 2,21,-1
 57 1082 l 1,22,-1
 395 1082 l 1,23,-1
 395 584 l 2,24,25
 395 445 395 445 450 368 c 128,-1,26
 505 291 505 291 602 269 c 1,27,-1
 608 270 l 1,28,-1
 608 1082 l 1,29,-1
 945 1082 l 1,0,-1
EndSplineSet
Validated: 1
EndChar

StartChar: omega
Encoding: 969 969 419
Width: 1770
GlyphClass: 1
Flags: W
LayerCount: 2
Fore
SplineSet
532 1082 m 1,0,1
 473 954 473 954 439.5 824.5 c 128,-1,2
 406 695 406 695 403 566 c 0,3,4
 403 425 403 425 437 332 c 128,-1,5
 471 239 471 239 552 239 c 0,6,7
 620 239 620 239 662 301.5 c 128,-1,8
 704 364 704 364 704 501 c 2,9,-1
 704 872 l 1,10,-1
 1065 872 l 1,11,-1
 1065 501 l 2,12,13
 1065 364 1065 364 1107 301.5 c 128,-1,14
 1149 239 1149 239 1217 239 c 0,15,16
 1296 239 1296 239 1331 332.5 c 128,-1,17
 1366 426 1366 426 1366 566 c 1,18,19
 1362 695 1362 695 1328.5 824.5 c 128,-1,20
 1295 954 1295 954 1236 1082 c 1,21,-1
 1548 1082 l 1,22,23
 1617 980 1617 980 1659.5 850 c 128,-1,24
 1702 720 1702 720 1702 566 c 0,25,26
 1702 292 1702 292 1592 135.5 c 128,-1,27
 1482 -21 1482 -21 1227 -21 c 0,28,29
 1113 -21 1113 -21 1025 32 c 128,-1,30
 937 85 937 85 884 188 c 1,31,32
 830 85 830 85 742 32 c 128,-1,33
 654 -21 654 -21 542 -21 c 0,34,35
 286 -21 286 -21 176 135.5 c 128,-1,36
 66 292 66 292 66 566 c 0,37,38
 66 719 66 719 108 848.5 c 128,-1,39
 150 978 150 978 220 1082 c 1,40,-1
 532 1082 l 1,0,1
EndSplineSet
Validated: 1
EndChar

StartChar: uni03D1
Encoding: 977 977 425
Width: 1461
GlyphClass: 2
Flags: W
LayerCount: 2
Fore
SplineSet
559 932 m 1,0,-1
 559 1057 l 2,1,2
 559 1248 559 1248 672.5 1362.5 c 128,-1,3
 786 1477 786 1477 968 1477 c 0,4,5
 1146 1477 1146 1477 1250.5 1365 c 128,-1,6
 1355 1253 1355 1253 1355 1057 c 2,7,-1
 1355 535 l 2,8,9
 1355 283 1355 283 1189.5 131 c 128,-1,10
 1024 -21 1024 -21 754 -21 c 0,11,12
 475 -21 475 -21 301 136.5 c 128,-1,13
 127 294 127 294 127 535 c 2,14,-1
 127 1252 l 1,15,-1
 488 1254 l 1,16,-1
 488 535 l 2,17,18
 488 408 488 408 559.5 329 c 128,-1,19
 631 250 631 250 754 250 c 0,20,21
 864 250 864 250 927.5 322.5 c 128,-1,22
 991 395 991 395 995 524 c 1,23,24
 811 540 811 540 685 654.5 c 128,-1,25
 559 769 559 769 559 932 c 1,26,-1
 559 932 l 1,0,-1
995 1098 m 2,27,28
 995 1142 995 1142 982 1164 c 128,-1,29
 969 1186 969 1186 945 1186 c 0,30,31
 912 1186 912 1186 893 1163 c 128,-1,32
 874 1140 874 1140 874 1098 c 2,33,-1
 874 930 l 2,34,35
 874 866 874 866 905 820.5 c 128,-1,36
 936 775 936 775 989 766 c 1,37,-1
 995 768 l 1,38,-1
 995 1098 l 2,27,28
EndSplineSet
Validated: 5
EndChar

StartChar: uni03D2
Encoding: 978 978 426
Width: 1258
GlyphClass: 1
Flags: W
LayerCount: 2
Fore
SplineSet
784 1184 m 2,0,1
 849 1352 849 1352 932 1419.5 c 128,-1,2
 1015 1487 1015 1487 1170 1487 c 0,3,4
 1199 1487 1199 1487 1224.5 1483 c 128,-1,5
 1250 1479 1250 1479 1270 1471 c 1,6,-1
 1245 1215 l 2,7,8
 1242 1215 1242 1215 1220.5 1216.5 c 128,-1,9
 1199 1218 1199 1218 1189 1218 c 0,10,11
 1149 1218 1149 1218 1121 1187 c 128,-1,12
 1093 1156 1093 1156 1073 1108 c 2,13,-1
 794 425 l 1,14,-1
 793 425 l 1,15,-1
 793 0 l 1,16,-1
 456 0 l 1,17,-1
 456 444 l 1,18,-1
 187 1108 l 2,19,20
 164 1157 164 1157 136 1187.5 c 128,-1,21
 108 1218 108 1218 70 1218 c 0,22,23
 58 1218 58 1218 37.5 1216.5 c 128,-1,24
 17 1215 17 1215 14 1215 c 2,25,-1
 -9 1471 l 1,26,27
 8 1479 8 1479 33.5 1483 c 128,-1,28
 59 1487 59 1487 90 1487 c 0,29,30
 246 1487 246 1487 328 1423.5 c 128,-1,31
 410 1360 410 1360 474 1194 c 1,32,-1
 608 820 l 1,33,-1
 626 720 l 1,34,-1
 632 720 l 1,35,-1
 651 820 l 1,36,-1
 784 1184 l 2,0,1
EndSplineSet
Validated: 1
EndChar

StartChar: uni03D6
Encoding: 982 982 427
Width: 1740
GlyphClass: 1
Flags: W
LayerCount: 2
Fore
SplineSet
1752 890 m 1,0,-1
 1617 890 l 1,1,2
 1644 816 1644 816 1659 735 c 128,-1,3
 1674 654 1674 654 1674 566 c 0,4,5
 1674 292 1674 292 1567.5 135.5 c 128,-1,6
 1461 -21 1461 -21 1215 -21 c 0,7,8
 1100 -21 1100 -21 1011 32.5 c 128,-1,9
 922 86 922 86 869 189 c 1,10,11
 815 86 815 86 726 32.5 c 128,-1,12
 637 -21 637 -21 524 -21 c 0,13,14
 276 -21 276 -21 169.5 135.5 c 128,-1,15
 63 292 63 292 63 566 c 0,16,17
 63 654 63 654 77.5 735 c 128,-1,18
 92 816 92 816 120 890 c 1,19,-1
 -11 890 l 1,20,-1
 -11 1082 l 1,21,-1
 1752 1082 l 1,22,-1
 1752 890 l 1,0,-1
1338 566 m 0,23,24
 1335 646 1335 646 1320.5 727.5 c 128,-1,25
 1306 809 1306 809 1281 890 c 1,26,-1
 456 890 l 1,27,28
 431 809 431 809 417 728 c 128,-1,29
 403 647 403 647 401 566 c 0,30,31
 401 425 401 425 431 332 c 128,-1,32
 461 239 461 239 534 239 c 0,33,34
 603 239 603 239 646 301.5 c 128,-1,35
 689 364 689 364 689 501 c 2,36,-1
 689 684 l 1,37,-1
 1049 684 l 1,38,-1
 1049 501 l 2,39,40
 1049 364 1049 364 1092 301.5 c 128,-1,41
 1135 239 1135 239 1204 239 c 0,42,43
 1276 239 1276 239 1307 332 c 128,-1,44
 1338 425 1338 425 1338 566 c 0,23,24
EndSplineSet
Validated: 1
EndChar

StartChar: uni0402
Encoding: 1026 1026 430
Width: 1584
GlyphClass: 1
Flags: W
LayerCount: 2
Fore
SplineSet
1149 1196 m 1,0,-1
 764 1196 l 1,1,-1
 764 936 l 1,2,-1
 938 936 l 2,3,4
 1220 936 1220 936 1385.5 812.5 c 128,-1,5
 1551 689 1551 689 1551 445 c 1,6,7
 1555 313 1555 313 1460 181.5 c 128,-1,8
 1365 50 1365 50 1187 -22 c 1,9,-1
 1030 185 l 1,10,11
 1118 239 1118 239 1165 297.5 c 128,-1,12
 1212 356 1212 356 1214 445 c 0,13,14
 1214 561 1214 561 1142.5 618.5 c 128,-1,15
 1071 676 1071 676 938 676 c 2,16,-1
 764 676 l 1,17,-1
 764 0 l 1,18,-1
 426 0 l 1,19,-1
 426 1196 l 1,20,-1
 48 1196 l 1,21,-1
 48 1456 l 1,22,-1
 1149 1456 l 1,23,-1
 1149 1196 l 1,0,-1
EndSplineSet
Validated: 33
EndChar

StartChar: uni0404
Encoding: 1028 1028 432
Width: 1241
GlyphClass: 1
Flags: W
LayerCount: 2
Fore
SplineSet
1251 492 m 1,0,-1
 1253 486 l 1,1,2
 1257 237 1257 237 1112.5 108.5 c 128,-1,3
 968 -20 968 -20 703 -20 c 0,4,5
 433 -20 433 -20 269.5 145 c 128,-1,6
 106 310 106 310 106 577 c 2,7,-1
 106 881 l 2,8,9
 106 1147 106 1147 263.5 1312.5 c 128,-1,10
 421 1478 421 1478 680 1478 c 0,11,12
 957 1478 957 1478 1108.5 1349 c 128,-1,13
 1260 1220 1260 1220 1256 974 c 1,14,-1
 1253 968 l 1,15,-1
 924 968 l 1,16,17
 924 1102 924 1102 867 1160 c 128,-1,18
 810 1218 810 1218 680 1218 c 0,19,20
 566 1218 566 1218 505 1126.5 c 128,-1,21
 444 1035 444 1035 444 883 c 2,22,-1
 444 859 l 1,23,-1
 809 859 l 1,24,-1
 809 598 l 1,25,-1
 444 598 l 1,26,-1
 444 577 l 2,27,28
 444 424 444 424 511 332 c 128,-1,29
 578 240 578 240 703 240 c 0,30,31
 819 240 819 240 870.5 298 c 128,-1,32
 922 356 922 356 922 492 c 1,33,-1
 1251 492 l 1,0,-1
EndSplineSet
Validated: 33
EndChar

StartChar: uni0405
Encoding: 1029 1029 433
Width: 1273
GlyphClass: 1
Flags: W
LayerCount: 2
Fore
SplineSet
867 386 m 0,0,1
 867 464 867 464 816 505.5 c 128,-1,2
 765 547 765 547 631 594 c 0,3,4
 360 682 360 682 228.5 781.5 c 128,-1,5
 97 881 97 881 97 1068 c 0,6,7
 97 1251 97 1251 250 1364 c 128,-1,8
 403 1477 403 1477 639 1477 c 0,9,10
 888 1477 888 1477 1040 1360.5 c 128,-1,11
 1192 1244 1192 1244 1187 1032 c 1,12,-1
 1185 1026 l 1,13,-1
 857 1026 l 1,14,15
 857 1129 857 1129 801 1175.5 c 128,-1,16
 745 1222 745 1222 632 1222 c 0,17,18
 540 1222 540 1222 487 1177 c 128,-1,19
 434 1132 434 1132 434 1066 c 0,20,21
 434 1002 434 1002 488.5 963.5 c 128,-1,22
 543 925 543 925 692 867 c 1,23,24
 945 792 945 792 1075 684 c 128,-1,25
 1205 576 1205 576 1205 388 c 0,26,27
 1205 196 1205 196 1055 87.5 c 128,-1,28
 905 -21 905 -21 657 -21 c 0,29,30
 410 -21 410 -21 238.5 95.5 c 128,-1,31
 67 212 67 212 72 462 c 1,32,-1
 74 468 l 1,33,-1
 403 468 l 1,34,35
 403 341 403 341 465.5 287.5 c 128,-1,36
 528 234 528 234 657 234 c 0,37,38
 763 234 763 234 815 276 c 128,-1,39
 867 318 867 318 867 386 c 0,0,1
EndSplineSet
Validated: 33
EndChar

StartChar: uni0409
Encoding: 1033 1033 437
Width: 2153
GlyphClass: 1
Flags: W
LayerCount: 2
Fore
SplineSet
1330 1456 m 1,0,-1
 1330 977 l 1,1,-1
 1526 977 l 2,2,3
 1785 977 1785 977 1942.5 840 c 128,-1,4
 2100 703 2100 703 2100 489 c 0,5,6
 2100 273 2100 273 1942.5 136.5 c 128,-1,7
 1785 0 1785 0 1526 0 c 2,8,-1
 993 0 l 1,9,-1
 993 1196 l 1,10,-1
 664 1196 l 1,11,-1
 664 808 l 2,12,13
 664 372 664 372 515 186 c 128,-1,14
 366 0 366 0 76 0 c 2,15,-1
 38 0 l 1,16,-1
 38 260 l 1,17,-1
 77 260 l 2,18,19
 228 260 228 260 277 373.5 c 128,-1,20
 326 487 326 487 326 808 c 2,21,-1
 326 1456 l 1,22,-1
 1330 1456 l 1,0,-1
1330 717 m 1,23,-1
 1330 260 l 1,24,-1
 1526 260 l 2,25,26
 1637 260 1637 260 1700 327 c 128,-1,27
 1763 394 1763 394 1763 491 c 0,28,29
 1763 585 1763 585 1699.5 651 c 128,-1,30
 1636 717 1636 717 1526 717 c 2,31,-1
 1330 717 l 1,23,-1
EndSplineSet
Validated: 1
EndChar

StartChar: uni040A
Encoding: 1034 1034 438
Width: 2152
GlyphClass: 1
Flags: W
LayerCount: 2
Fore
SplineSet
454 846 m 1,0,-1
 992 846 l 1,1,-1
 992 1456 l 1,2,-1
 1329 1456 l 1,3,-1
 1329 977 l 1,4,-1
 1525 977 l 2,5,6
 1784 977 1784 977 1941.5 840 c 128,-1,7
 2099 703 2099 703 2099 489 c 0,8,9
 2099 274 2099 274 1941.5 137 c 128,-1,10
 1784 0 1784 0 1525 0 c 2,11,-1
 992 0 l 1,12,-1
 992 586 l 1,13,-1
 454 586 l 1,14,-1
 454 0 l 1,15,-1
 116 0 l 1,16,-1
 116 1456 l 1,17,-1
 454 1456 l 1,18,-1
 454 846 l 1,0,-1
1329 717 m 1,19,-1
 1329 260 l 1,20,-1
 1525 260 l 2,21,22
 1636 260 1636 260 1699 327 c 128,-1,23
 1762 394 1762 394 1762 491 c 0,24,25
 1762 585 1762 585 1698.5 651 c 128,-1,26
 1635 717 1635 717 1525 717 c 2,27,-1
 1329 717 l 1,19,-1
EndSplineSet
Validated: 1
EndChar

StartChar: uni040B
Encoding: 1035 1035 439
Width: 1616
GlyphClass: 1
Flags: W
LayerCount: 2
Fore
SplineSet
1165 1196 m 1,0,-1
 780 1196 l 1,1,-1
 780 986 l 1,2,-1
 925 986 l 2,3,4
 1202 986 1202 986 1351 864.5 c 128,-1,5
 1500 743 1500 743 1500 495 c 2,6,-1
 1500 0 l 1,7,-1
 1163 0 l 1,8,-1
 1163 495 l 2,9,10
 1163 627 1163 627 1110 676.5 c 128,-1,11
 1057 726 1057 726 925 726 c 2,12,-1
 780 726 l 1,13,-1
 780 0 l 1,14,-1
 442 0 l 1,15,-1
 442 1196 l 1,16,-1
 64 1196 l 1,17,-1
 64 1456 l 1,18,-1
 1165 1456 l 1,19,-1
 1165 1196 l 1,0,-1
EndSplineSet
Validated: 1
EndChar

StartChar: uni040F
Encoding: 1039 1039 443
Width: 1426
GlyphClass: 1
Flags: W
LayerCount: 2
Fore
SplineSet
96 1456 m 1,0,-1
 433 1456 l 1,1,-1
 433 260 l 1,2,-1
 971 260 l 1,3,-1
 971 1456 l 1,4,-1
 1310 1456 l 1,5,-1
 1310 0 l 1,6,-1
 887 0 l 1,7,-1
 887 -360 l 1,8,-1
 549 -360 l 1,9,-1
 549 0 l 1,10,-1
 96 0 l 1,11,-1
 96 1456 l 1,0,-1
EndSplineSet
Validated: 1
EndChar

StartChar: uni0411
Encoding: 1041 1041 445
Width: 1279
GlyphClass: 1
Flags: W
LayerCount: 2
Fore
SplineSet
1093 1196 m 1,0,-1
 455 1196 l 1,1,-1
 455 977 l 1,2,-1
 651 977 l 2,3,4
 910 977 910 977 1067.5 840 c 128,-1,5
 1225 703 1225 703 1225 489 c 0,6,7
 1225 274 1225 274 1067.5 137 c 128,-1,8
 910 0 910 0 651 0 c 2,9,-1
 116 0 l 1,10,-1
 116 1456 l 1,11,-1
 1093 1456 l 1,12,-1
 1093 1196 l 1,0,-1
455 717 m 1,13,-1
 455 260 l 1,14,-1
 651 260 l 2,15,16
 762 260 762 260 825 327 c 128,-1,17
 888 394 888 394 888 491 c 0,18,19
 888 585 888 585 824.5 651 c 128,-1,20
 761 717 761 717 651 717 c 2,21,-1
 455 717 l 1,13,-1
EndSplineSet
Validated: 1
EndChar

StartChar: uni0414
Encoding: 1044 1044 448
Width: 1409
GlyphClass: 1
Flags: W
LayerCount: 2
Fore
SplineSet
1448 -358 m 1,0,-1
 1110 -358 l 1,1,-1
 1110 0 l 1,2,-1
 331 0 l 1,3,-1
 331 -358 l 1,4,-1
 -5 -358 l 1,5,-1
 -5 260 l 1,6,-1
 68 260 l 2,7,8
 173 260 173 260 216.5 397.5 c 128,-1,9
 260 535 260 535 272 860 c 1,10,-1
 305 1456 l 1,11,-1
 1290 1456 l 1,12,-1
 1290 260 l 1,13,-1
 1448 260 l 1,14,-1
 1448 -358 l 1,0,-1
610 860 m 2,15,16
 601 664 601 664 568 514 c 128,-1,17
 535 364 535 364 480 260 c 1,18,-1
 953 260 l 1,19,-1
 953 1196 l 1,20,-1
 628 1196 l 1,21,-1
 610 860 l 2,15,16
EndSplineSet
Validated: 1
EndChar

StartChar: uni0416
Encoding: 1046 1046 450
Width: 1961
GlyphClass: 1
Flags: W
LayerCount: 2
Fore
SplineSet
1265 578 m 1,0,-1
 1156 578 l 1,1,-1
 1156 0 l 1,2,-1
 818 0 l 1,3,-1
 818 578 l 1,4,-1
 705 578 l 1,5,-1
 417 0 l 1,6,-1
 -3 0 l 1,7,-1
 438 793 l 1,8,-1
 11 1456 l 1,9,-1
 437 1456 l 1,10,-1
 740 880 l 1,11,-1
 818 880 l 1,12,-1
 818 1456 l 1,13,-1
 1156 1456 l 1,14,-1
 1156 880 l 1,15,-1
 1232 880 l 1,16,-1
 1524 1456 l 1,17,-1
 1948 1456 l 1,18,-1
 1531 796 l 1,19,-1
 1964 0 l 1,20,-1
 1543 0 l 1,21,-1
 1265 578 l 1,0,-1
EndSplineSet
Validated: 1
EndChar

StartChar: uni0417
Encoding: 1047 1047 451
Width: 1325
GlyphClass: 1
Flags: W
LayerCount: 2
Fore
SplineSet
657 869 m 2,0,1
 776 869 776 869 833.5 917 c 128,-1,2
 891 965 891 965 891 1054 c 0,3,4
 891 1123 891 1123 826.5 1170 c 128,-1,5
 762 1217 762 1217 641 1217 c 0,6,7
 548 1217 548 1217 487.5 1174.5 c 128,-1,8
 427 1132 427 1132 427 1060 c 1,9,-1
 99 1060 l 1,10,-1
 98 1066 l 1,11,12
 92 1250 92 1250 251 1363.5 c 128,-1,13
 410 1477 410 1477 641 1477 c 0,14,15
 912 1477 912 1477 1070 1369 c 128,-1,16
 1228 1261 1228 1261 1228 1061 c 0,17,18
 1228 961 1228 961 1164 878 c 128,-1,19
 1100 795 1100 795 987 748 c 1,20,21
 1115 705 1115 705 1183 619 c 128,-1,22
 1251 533 1251 533 1251 408 c 0,23,24
 1251 207 1251 207 1082 93 c 128,-1,25
 913 -21 913 -21 641 -21 c 0,26,27
 410 -21 410 -21 240.5 86 c 128,-1,28
 71 193 71 193 77 398 c 1,29,-1
 79 404 l 1,30,-1
 408 404 l 1,31,32
 408 333 408 333 473.5 286 c 128,-1,33
 539 239 539 239 641 239 c 0,34,35
 767 239 767 239 840 288.5 c 128,-1,36
 913 338 913 338 913 415 c 0,37,38
 913 522 913 522 849 570 c 128,-1,39
 785 618 785 618 657 618 c 2,40,-1
 453 618 l 1,41,-1
 453 869 l 1,42,-1
 657 869 l 2,0,1
EndSplineSet
Validated: 33
EndChar

StartChar: uni0418
Encoding: 1048 1048 452
Width: 1426
GlyphClass: 1
Flags: W
LayerCount: 2
Fore
SplineSet
976 1456 m 1,0,-1
 1314 1456 l 1,1,-1
 1314 0 l 1,2,-1
 976 0 l 1,3,-1
 976 902 l 1,4,-1
 970 903 l 1,5,-1
 437 0 l 1,6,-1
 99 0 l 1,7,-1
 99 1456 l 1,8,-1
 437 1456 l 1,9,-1
 437 555 l 1,10,-1
 443 554 l 1,11,-1
 976 1456 l 1,0,-1
EndSplineSet
Validated: 1
EndChar

StartChar: uni041B
Encoding: 1051 1051 455
Width: 1446
GlyphClass: 1
Flags: W
LayerCount: 2
Fore
SplineSet
1330 1456 m 1,0,-1
 1330 0 l 1,1,-1
 993 0 l 1,2,-1
 993 1196 l 1,3,-1
 633 1196 l 1,4,-1
 633 808 l 2,5,6
 633 370 633 370 494 185 c 128,-1,7
 355 0 355 0 76 0 c 2,8,-1
 38 0 l 1,9,-1
 38 260 l 1,10,-1
 77 260 l 2,11,12
 214 260 214 260 254 370.5 c 128,-1,13
 294 481 294 481 294 808 c 2,14,-1
 294 1456 l 1,15,-1
 1330 1456 l 1,0,-1
EndSplineSet
Validated: 1
EndChar

StartChar: uni0423
Encoding: 1059 1059 463
Width: 1317
GlyphClass: 1
Flags: W
LayerCount: 2
Fore
SplineSet
671 821 m 1,0,-1
 678 795 l 1,1,-1
 684 795 l 1,2,-1
 967 1456 l 1,3,-1
 1315 1456 l 1,4,-1
 781 296 l 2,5,6
 714 146 714 146 621 62.5 c 128,-1,7
 528 -21 528 -21 365 -21 c 0,8,9
 306 -21 306 -21 262 -11 c 128,-1,10
 218 -1 218 -1 148 23 c 1,11,-1
 186 264 l 1,12,13
 235 250 235 250 263.5 244.5 c 128,-1,14
 292 239 292 239 327 239 c 0,15,16
 411 239 411 239 451 270.5 c 128,-1,17
 491 302 491 302 516 375 c 2,18,-1
 531 416 l 1,19,-1
 2 1456 l 1,20,-1
 363 1456 l 1,21,-1
 671 821 l 1,0,-1
EndSplineSet
Validated: 1
EndChar

StartChar: uni0426
Encoding: 1062 1062 466
Width: 1570
GlyphClass: 1
Flags: W
LayerCount: 2
Fore
SplineSet
102 1456 m 1,0,-1
 439 1456 l 1,1,-1
 439 260 l 1,2,-1
 978 260 l 1,3,-1
 978 1456 l 1,4,-1
 1316 1456 l 1,5,-1
 1316 258 l 1,6,-1
 1512 258 l 1,7,-1
 1512 -359 l 1,8,-1
 1175 -359 l 1,9,-1
 1175 0 l 1,10,-1
 102 0 l 1,11,-1
 102 1456 l 1,0,-1
EndSplineSet
Validated: 1
EndChar

StartChar: uni0427
Encoding: 1063 1063 467
Width: 1431
GlyphClass: 1
Flags: W
LayerCount: 2
Fore
SplineSet
1316 1456 m 1,0,-1
 1316 0 l 1,1,-1
 978 0 l 1,2,-1
 978 543 l 1,3,4
 919 533 919 533 843.5 526.5 c 128,-1,5
 768 520 768 520 732 520 c 0,6,7
 451 520 451 520 293 642 c 128,-1,8
 135 764 135 764 135 1011 c 2,9,-1
 135 1456 l 1,10,-1
 473 1456 l 1,11,-1
 473 1011 l 2,12,13
 473 880 473 880 534.5 830 c 128,-1,14
 596 780 596 780 732 780 c 0,15,16
 774 780 774 780 847.5 786 c 128,-1,17
 921 792 921 792 978 802 c 1,18,-1
 978 1456 l 1,19,-1
 1316 1456 l 1,0,-1
EndSplineSet
Validated: 1
EndChar

StartChar: uni0428
Encoding: 1064 1064 468
Width: 2138
GlyphClass: 1
Flags: W
LayerCount: 2
Fore
SplineSet
450 1456 m 1,0,-1
 450 260 l 1,1,-1
 901 260 l 1,2,-1
 901 1456 l 1,3,-1
 1238 1456 l 1,4,-1
 1238 260 l 1,5,-1
 1685 260 l 1,6,-1
 1685 1456 l 1,7,-1
 2022 1456 l 1,8,-1
 2022 0 l 1,9,-1
 112 0 l 1,10,-1
 112 1456 l 1,11,-1
 450 1456 l 1,0,-1
EndSplineSet
Validated: 1
EndChar

StartChar: uni0429
Encoding: 1065 1065 469
Width: 2338
GlyphClass: 1
Flags: W
LayerCount: 2
Fore
SplineSet
450 1456 m 1,0,-1
 450 260 l 1,1,-1
 901 260 l 1,2,-1
 901 1456 l 1,3,-1
 1238 1456 l 1,4,-1
 1238 260 l 1,5,-1
 1685 260 l 1,6,-1
 1685 1456 l 1,7,-1
 2022 1456 l 1,8,-1
 2022 234 l 1,9,-1
 2274 234 l 1,10,-1
 2274 -343 l 1,11,-1
 1937 -343 l 1,12,-1
 1937 0 l 1,13,-1
 112 0 l 1,14,-1
 112 1456 l 1,15,-1
 450 1456 l 1,0,-1
EndSplineSet
Validated: 1
EndChar

StartChar: uni042A
Encoding: 1066 1066 470
Width: 1483
GlyphClass: 1
Flags: W
LayerCount: 2
Fore
SplineSet
8 1456 m 1,0,-1
 618 1456 l 1,1,-1
 618 977 l 1,2,-1
 814 977 l 2,3,4
 1073 977 1073 977 1230.5 840 c 128,-1,5
 1388 703 1388 703 1388 489 c 0,6,7
 1388 274 1388 274 1230.5 137 c 128,-1,8
 1073 0 1073 0 814 0 c 2,9,-1
 279 0 l 1,10,-1
 279 1196 l 1,11,-1
 8 1196 l 1,12,-1
 8 1456 l 1,0,-1
618 717 m 1,13,-1
 618 260 l 1,14,-1
 814 260 l 2,15,16
 925 260 925 260 988 327 c 128,-1,17
 1051 394 1051 394 1051 491 c 0,18,19
 1051 585 1051 585 987.5 651 c 128,-1,20
 924 717 924 717 814 717 c 2,21,-1
 618 717 l 1,13,-1
EndSplineSet
Validated: 1
EndChar

StartChar: uni042B
Encoding: 1067 1067 471
Width: 1789
GlyphClass: 1
Flags: W
LayerCount: 2
Fore
SplineSet
455 977 m 1,0,-1
 651 977 l 2,1,2
 910 977 910 977 1067.5 840 c 128,-1,3
 1225 703 1225 703 1225 489 c 0,4,5
 1225 274 1225 274 1067.5 137 c 128,-1,6
 910 0 910 0 651 0 c 2,7,-1
 116 0 l 1,8,-1
 116 1456 l 1,9,-1
 455 1456 l 1,10,-1
 455 977 l 1,0,-1
1672 0 m 1,11,-1
 1335 0 l 1,12,-1
 1335 1456 l 1,13,-1
 1672 1456 l 1,14,-1
 1672 0 l 1,11,-1
455 717 m 1,15,-1
 455 260 l 1,16,-1
 651 260 l 2,17,18
 762 260 762 260 825 327 c 128,-1,19
 888 394 888 394 888 491 c 0,20,21
 888 585 888 585 824.5 651 c 128,-1,22
 761 717 761 717 651 717 c 2,23,-1
 455 717 l 1,15,-1
EndSplineSet
Validated: 1
EndChar

StartChar: uni042C
Encoding: 1068 1068 472
Width: 1278
GlyphClass: 1
Flags: W
LayerCount: 2
Fore
SplineSet
455 977 m 1,0,-1
 651 977 l 2,1,2
 910 977 910 977 1067.5 840 c 128,-1,3
 1225 703 1225 703 1225 489 c 0,4,5
 1225 274 1225 274 1067.5 137 c 128,-1,6
 910 0 910 0 651 0 c 2,7,-1
 116 0 l 1,8,-1
 116 1456 l 1,9,-1
 455 1456 l 1,10,-1
 455 977 l 1,0,-1
455 717 m 1,11,-1
 455 260 l 1,12,-1
 651 260 l 2,13,14
 762 260 762 260 825 327 c 128,-1,15
 888 394 888 394 888 491 c 0,16,17
 888 585 888 585 824.5 651 c 128,-1,18
 761 717 761 717 651 717 c 2,19,-1
 455 717 l 1,11,-1
EndSplineSet
Validated: 1
EndChar

StartChar: uni042D
Encoding: 1069 1069 473
Width: 1238
GlyphClass: 1
Flags: W
LayerCount: 2
Fore
SplineSet
47 966 m 1,0,-1
 45 972 l 1,1,2
 40 1221 40 1221 178.5 1349.5 c 128,-1,3
 317 1478 317 1478 582 1478 c 0,4,5
 838 1478 838 1478 992 1312.5 c 128,-1,6
 1146 1147 1146 1147 1146 881 c 2,7,-1
 1146 577 l 2,8,9
 1146 310 1146 310 992 145 c 128,-1,10
 838 -20 838 -20 582 -20 c 0,11,12
 317 -20 317 -20 177.5 107.5 c 128,-1,13
 38 235 38 235 43 484 c 1,14,-1
 45 490 l 1,15,-1
 374 490 l 1,16,17
 374 353 374 353 420 296.5 c 128,-1,18
 466 240 466 240 582 240 c 0,19,20
 694 240 694 240 750.5 330 c 128,-1,21
 807 420 807 420 807 575 c 2,22,-1
 807 598 l 1,23,-1
 423 598 l 1,24,-1
 423 859 l 1,25,-1
 807 859 l 1,26,-1
 807 881 l 2,27,28
 807 1035 807 1035 750.5 1126.5 c 128,-1,29
 694 1218 694 1218 582 1218 c 0,30,31
 468 1218 468 1218 422 1160 c 128,-1,32
 376 1102 376 1102 376 966 c 1,33,-1
 47 966 l 1,0,-1
EndSplineSet
Validated: 33
EndChar

StartChar: uni042E
Encoding: 1070 1070 474
Width: 1991
GlyphClass: 1
Flags: W
LayerCount: 2
Fore
SplineSet
1806 597 m 2,0,1
 1806 328 1806 328 1635.5 153.5 c 128,-1,2
 1465 -21 1465 -21 1190 -21 c 256,3,4
 915 -21 915 -21 743 151.5 c 128,-1,5
 571 324 571 324 569 591 c 1,6,-1
 474 591 l 1,7,-1
 474 0 l 1,8,-1
 137 0 l 1,9,-1
 137 1456 l 1,10,-1
 474 1456 l 1,11,-1
 474 852 l 1,12,-1
 569 852 l 1,13,-1
 569 859 l 2,14,15
 569 1127 569 1127 740.5 1302 c 128,-1,16
 912 1477 912 1477 1188 1477 c 0,17,18
 1462 1477 1462 1477 1634 1302 c 128,-1,19
 1806 1127 1806 1127 1806 859 c 2,20,-1
 1806 597 l 2,0,1
1469 861 m 2,21,22
 1469 1017 1469 1017 1395.5 1117 c 128,-1,23
 1322 1217 1322 1217 1188 1217 c 0,24,25
 1051 1217 1051 1217 978.5 1117.5 c 128,-1,26
 906 1018 906 1018 906 861 c 2,27,-1
 906 597 l 2,28,29
 906 439 906 439 979.5 339 c 128,-1,30
 1053 239 1053 239 1190 239 c 0,31,32
 1323 239 1323 239 1396 339 c 128,-1,33
 1469 439 1469 439 1469 597 c 2,34,-1
 1469 861 l 2,21,22
EndSplineSet
Validated: 1
EndChar

StartChar: uni042F
Encoding: 1071 1071 475
Width: 1198
GlyphClass: 1
Flags: W
LayerCount: 2
Fore
SplineSet
298 0 m 1,0,-1
 -69 0 l 1,1,-1
 234 648 l 1,2,3
 133 709 133 709 82 801.5 c 128,-1,4
 31 894 31 894 31 1015 c 0,5,6
 31 1225 31 1225 176.5 1340.5 c 128,-1,7
 322 1456 322 1456 577 1456 c 2,8,-1
 1100 1456 l 1,9,-1
 1100 0 l 1,10,-1
 762 0 l 1,11,-1
 762 537 l 1,12,-1
 551 537 l 1,13,-1
 298 0 l 1,0,-1
762 1196 m 1,14,-1
 577 1196 l 2,15,16
 474 1196 474 1196 421.5 1144 c 128,-1,17
 369 1092 369 1092 369 995 c 256,18,19
 369 898 369 898 423 838 c 128,-1,20
 477 778 477 778 577 778 c 2,21,-1
 762 778 l 1,22,-1
 762 1196 l 1,14,-1
EndSplineSet
Validated: 1
EndChar

StartChar: uni0431
Encoding: 1073 1073 477
Width: 1155
GlyphClass: 1
Flags: W
LayerCount: 2
Fore
SplineSet
590 1102 m 0,0,1
 829 1102 829 1102 962.5 948.5 c 128,-1,2
 1096 795 1096 795 1096 551 c 2,3,-1
 1096 530 l 2,4,5
 1096 285 1096 285 958 132 c 128,-1,6
 820 -21 820 -21 574 -21 c 0,7,8
 325 -21 325 -21 187 132 c 128,-1,9
 49 285 49 285 49 530 c 2,10,-1
 49 799 l 2,11,12
 50 1146 50 1146 170.5 1294 c 128,-1,13
 291 1442 291 1442 562 1446 c 0,14,15
 691 1447 691 1447 747 1473.5 c 128,-1,16
 803 1500 803 1500 803 1560 c 1,17,-1
 1065 1560 l 1,18,-1
 1067 1554 l 1,19,20
 1072 1344 1072 1344 957.5 1264.5 c 128,-1,21
 843 1185 843 1185 590 1182 c 0,22,23
 446 1179 446 1179 374 1126.5 c 128,-1,24
 302 1074 302 1074 312 993 c 1,25,-1
 315 987 l 1,26,27
 359 1036 359 1036 432.5 1069 c 128,-1,28
 506 1102 506 1102 590 1102 c 0,0,1
572 842 m 0,29,30
 472 842 472 842 429 762 c 128,-1,31
 386 682 386 682 386 551 c 2,32,-1
 386 530 l 2,33,34
 386 395 386 395 429 317 c 128,-1,35
 472 239 472 239 574 239 c 0,36,37
 673 239 673 239 716 317 c 128,-1,38
 759 395 759 395 759 530 c 2,39,-1
 759 551 l 2,40,41
 759 683 759 683 716 762.5 c 128,-1,42
 673 842 673 842 572 842 c 0,29,30
EndSplineSet
Validated: 33
EndChar

StartChar: uni0432
Encoding: 1074 1074 478
Width: 1151
GlyphClass: 1
Flags: W
LayerCount: 2
Fore
SplineSet
119 0 m 1,0,-1
 119 1082 l 1,1,-1
 583 1082 l 2,2,3
 800 1082 800 1082 921.5 1005.5 c 128,-1,4
 1043 929 1043 929 1043 779 c 0,5,6
 1043 703 1043 703 990 643.5 c 128,-1,7
 937 584 937 584 839 553 c 1,8,9
 974 529 974 529 1041 464 c 128,-1,10
 1108 399 1108 399 1108 309 c 0,11,12
 1108 156 1108 156 991.5 78 c 128,-1,13
 875 0 875 0 653 0 c 2,14,-1
 119 0 l 1,0,-1
456 441 m 1,15,-1
 456 258 l 1,16,-1
 653 258 l 2,17,18
 714 258 714 258 742.5 279.5 c 128,-1,19
 771 301 771 301 771 347 c 0,20,21
 771 392 771 392 745 416.5 c 128,-1,22
 719 441 719 441 653 441 c 2,23,-1
 456 441 l 1,15,-1
456 649 m 1,24,-1
 595 649 l 2,25,26
 654 649 654 649 680 668.5 c 128,-1,27
 706 688 706 688 706 730 c 0,28,29
 706 780 706 780 676 802 c 128,-1,30
 646 824 646 824 583 824 c 2,31,-1
 456 824 l 1,32,-1
 456 649 l 1,24,-1
EndSplineSet
Validated: 1
EndChar

StartChar: uni0433
Encoding: 1075 1075 479
Width: 859
GlyphClass: 1
Flags: W
LayerCount: 2
Fore
SplineSet
853 822 m 1,0,-1
 427 822 l 1,1,-1
 427 0 l 1,2,-1
 90 0 l 1,3,-1
 90 1082 l 1,4,-1
 853 1082 l 1,5,-1
 853 822 l 1,0,-1
EndSplineSet
Validated: 1
EndChar

StartChar: uni0434
Encoding: 1076 1076 480
Width: 1397
GlyphClass: 1
Flags: W
LayerCount: 2
Fore
SplineSet
145 260 m 1,0,-1
 145 261 l 1,1,-1
 171 261 l 2,2,3
 252 261 252 261 283 339 c 128,-1,4
 314 417 314 417 321 621 c 2,5,-1
 342 1082 l 1,6,-1
 1183 1082 l 1,7,-1
 1183 260 l 1,8,-1
 1334 260 l 1,9,-1
 1334 -358 l 1,10,-1
 997 -358 l 1,11,-1
 997 0 l 1,12,-1
 412 0 l 1,13,-1
 412 -358 l 1,14,-1
 74 -358 l 1,15,-1
 74 260 l 1,16,-1
 145 260 l 1,0,-1
659 621 m 2,17,18
 654 510 654 510 638 420 c 128,-1,19
 622 330 622 330 594 260 c 1,20,-1
 847 260 l 1,21,-1
 847 822 l 1,22,-1
 667 822 l 1,23,-1
 659 621 l 2,17,18
EndSplineSet
Validated: 1
EndChar

StartChar: uni0436
Encoding: 1078 1078 482
Width: 1755
GlyphClass: 1
Flags: W
LayerCount: 2
Fore
SplineSet
1134 378 m 1,0,-1
 1044 378 l 1,1,-1
 1044 0 l 1,2,-1
 708 0 l 1,3,-1
 708 378 l 1,4,-1
 620 378 l 1,5,-1
 447 0 l 1,6,-1
 13 0 l 1,7,-1
 335 582 l 1,8,-1
 349 576 l 1,9,-1
 353 580 l 1,10,-1
 22 1082 l 1,11,-1
 455 1082 l 1,12,-1
 647 693 l 1,13,-1
 708 693 l 1,14,-1
 708 1082 l 1,15,-1
 1044 1082 l 1,16,-1
 1044 693 l 1,17,-1
 1108 693 l 1,18,-1
 1300 1082 l 1,19,-1
 1732 1082 l 1,20,-1
 1401 580 l 1,21,-1
 1405 576 l 1,22,-1
 1419 582 l 1,23,-1
 1740 0 l 1,24,-1
 1306 0 l 1,25,-1
 1134 378 l 1,0,-1
EndSplineSet
Validated: 1
EndChar

StartChar: uni0437
Encoding: 1079 1079 483
Width: 1159
GlyphClass: 1
Flags: W
LayerCount: 2
Fore
SplineSet
570 652 m 2,0,1
 641 652 641 652 680.5 680 c 128,-1,2
 720 708 720 708 720 755 c 0,3,4
 720 799 720 799 686.5 830 c 128,-1,5
 653 861 653 861 579 861 c 0,6,7
 508 861 508 861 468.5 837.5 c 128,-1,8
 429 814 429 814 429 768 c 1,9,-1
 102 768 l 1,10,-1
 100 774 l 1,11,12
 94 922 94 922 225.5 1011.5 c 128,-1,13
 357 1101 357 1101 556 1101 c 0,14,15
 784 1101 784 1101 921 1018.5 c 128,-1,16
 1058 936 1058 936 1058 786 c 0,17,18
 1058 714 1058 714 1009.5 653.5 c 128,-1,19
 961 593 961 593 876 557 c 1,20,21
 973 524 973 524 1025 460 c 128,-1,22
 1077 396 1077 396 1077 306 c 0,23,24
 1077 155 1077 155 930.5 67.5 c 128,-1,25
 784 -20 784 -20 556 -20 c 0,26,27
 359 -20 359 -20 218 66 c 128,-1,28
 77 152 77 152 83 314 c 1,29,-1
 85 320 l 1,30,-1
 412 320 l 1,31,32
 412 275 412 275 453.5 247.5 c 128,-1,33
 495 220 495 220 580 220 c 0,34,35
 660 220 660 220 700.5 254 c 128,-1,36
 741 288 741 288 741 336 c 0,37,38
 741 397 741 397 695.5 426.5 c 128,-1,39
 650 456 650 456 570 456 c 2,40,-1
 411 456 l 1,41,-1
 411 652 l 1,42,-1
 570 652 l 2,0,1
EndSplineSet
Validated: 33
EndChar

StartChar: uni0438
Encoding: 1080 1080 484
Width: 1151
GlyphClass: 1
Flags: W
LayerCount: 2
Fore
SplineSet
726 1082 m 1,0,-1
 1063 1082 l 1,1,-1
 1063 0 l 1,2,-1
 726 0 l 1,3,-1
 726 594 l 1,4,-1
 720 595 l 1,5,-1
 428 0 l 1,6,-1
 90 0 l 1,7,-1
 90 1082 l 1,8,-1
 428 1082 l 1,9,-1
 428 490 l 1,10,-1
 434 489 l 1,11,-1
 726 1082 l 1,0,-1
EndSplineSet
Validated: 1
EndChar

StartChar: uni043A
Encoding: 1082 1082 486
Width: 1190
GlyphClass: 1
Flags: W
LayerCount: 2
Fore
SplineSet
569 378 m 1,0,-1
 455 378 l 1,1,-1
 455 0 l 1,2,-1
 118 0 l 1,3,-1
 118 1082 l 1,4,-1
 455 1082 l 1,5,-1
 455 693 l 1,6,-1
 545 693 l 1,7,-1
 724 1082 l 1,8,-1
 1156 1082 l 1,9,-1
 833 578 l 1,10,-1
 837 573 l 1,11,-1
 856 582 l 1,12,-1
 1188 0 l 1,13,-1
 731 0 l 1,14,-1
 569 378 l 1,0,-1
EndSplineSet
Validated: 1
EndChar

StartChar: uni043B
Encoding: 1083 1083 487
Width: 1157
GlyphClass: 1
Flags: W
LayerCount: 2
Fore
SplineSet
1063 1082 m 1,0,-1
 1063 0 l 1,1,-1
 726 0 l 1,2,-1
 726 822 l 1,3,-1
 518 822 l 1,4,-1
 518 621 l 2,5,6
 518 301 518 301 413 150.5 c 128,-1,7
 308 0 308 0 56 0 c 2,8,-1
 14 0 l 1,9,-1
 7 261 l 1,10,-1
 33 261 l 2,11,12
 131 261 131 261 155.5 331.5 c 128,-1,13
 180 402 180 402 180 621 c 2,14,-1
 180 1082 l 1,15,-1
 1063 1082 l 1,0,-1
EndSplineSet
Validated: 1
EndChar

StartChar: uni043C
Encoding: 1084 1084 488
Width: 1571
GlyphClass: 1
Flags: W
LayerCount: 2
Fore
SplineSet
770 381 m 1,0,-1
 776 381 l 1,1,-1
 1018 1082 l 1,2,-1
 1441 1082 l 1,3,-1
 1441 0 l 1,4,-1
 1104 0 l 1,5,-1
 1104 584 l 1,6,-1
 1098 585 l 1,7,-1
 886 0 l 1,8,-1
 661 0 l 1,9,-1
 461 552 l 1,10,-1
 455 551 l 1,11,-1
 455 0 l 1,12,-1
 118 0 l 1,13,-1
 118 1082 l 1,14,-1
 531 1082 l 1,15,-1
 770 381 l 1,0,-1
EndSplineSet
Validated: 1
EndChar

StartChar: uni043D
Encoding: 1085 1085 489
Width: 1151
GlyphClass: 1
Flags: W
LayerCount: 2
Fore
SplineSet
1060 0 m 1,0,-1
 722 0 l 1,1,-1
 722 401 l 1,2,-1
 427 401 l 1,3,-1
 427 0 l 1,4,-1
 90 0 l 1,5,-1
 90 1082 l 1,6,-1
 427 1082 l 1,7,-1
 427 660 l 1,8,-1
 722 660 l 1,9,-1
 722 1082 l 1,10,-1
 1060 1082 l 1,11,-1
 1060 0 l 1,0,-1
EndSplineSet
Validated: 1
EndChar

StartChar: uni043F
Encoding: 1087 1087 491
Width: 1151
GlyphClass: 1
Flags: W
LayerCount: 2
Fore
SplineSet
1063 0 m 1,0,-1
 725 0 l 1,1,-1
 725 822 l 1,2,-1
 427 822 l 1,3,-1
 427 0 l 1,4,-1
 90 0 l 1,5,-1
 90 1082 l 1,6,-1
 1063 1082 l 1,7,-1
 1063 0 l 1,0,-1
EndSplineSet
Validated: 1
EndChar

StartChar: uni0441
Encoding: 1089 1089 493
Width: 1048
GlyphClass: 1
Flags: W
LayerCount: 2
Fore
SplineSet
559 239 m 0,0,1
 628 239 628 239 662 276.5 c 128,-1,2
 696 314 696 314 696 385 c 1,3,-1
 1004 385 l 1,4,-1
 1006 379 l 1,5,6
 1010 202 1010 202 883.5 90.5 c 128,-1,7
 757 -21 757 -21 559 -21 c 0,8,9
 312 -21 312 -21 178.5 131.5 c 128,-1,10
 45 284 45 284 45 529 c 2,11,-1
 45 552 l 2,12,13
 45 796 45 796 178 949 c 128,-1,14
 311 1102 311 1102 557 1102 c 0,15,16
 763 1102 763 1102 886.5 987.5 c 128,-1,17
 1010 873 1010 873 1006 674 c 1,18,-1
 1004 668 l 1,19,-1
 696 668 l 1,20,21
 696 745 696 745 661 793.5 c 128,-1,22
 626 842 626 842 557 842 c 0,23,24
 459 842 459 842 420.5 763.5 c 128,-1,25
 382 685 382 685 382 552 c 2,26,-1
 382 529 l 2,27,28
 382 393 382 393 420.5 316 c 128,-1,29
 459 239 459 239 559 239 c 0,0,1
EndSplineSet
Validated: 33
EndChar

StartChar: uni0442
Encoding: 1090 1090 494
Width: 1080
GlyphClass: 1
Flags: W
LayerCount: 2
Fore
SplineSet
1053 824 m 1,0,-1
 712 824 l 1,1,-1
 712 0 l 1,2,-1
 373 0 l 1,3,-1
 373 824 l 1,4,-1
 37 824 l 1,5,-1
 37 1082 l 1,6,-1
 1053 1082 l 1,7,-1
 1053 824 l 1,0,-1
EndSplineSet
Validated: 1
EndChar

StartChar: uni0444
Encoding: 1092 1092 496
Width: 1773
GlyphClass: 1
Flags: W
LayerCount: 2
Fore
SplineSet
45 539 m 2,0,1
 45 792 45 792 155 947 c 128,-1,2
 265 1102 265 1102 466 1102 c 0,3,4
 543 1102 543 1102 604 1068 c 128,-1,5
 665 1034 665 1034 711 972 c 1,6,-1
 711 1560 l 1,7,-1
 1049 1560 l 1,8,-1
 1049 974 l 1,9,10
 1094 1036 1094 1036 1153.5 1069 c 128,-1,11
 1213 1102 1213 1102 1291 1102 c 0,12,13
 1492 1102 1492 1102 1603 947 c 128,-1,14
 1714 792 1714 792 1714 539 c 2,15,-1
 1714 518 l 2,16,17
 1714 275 1714 275 1603.5 127 c 128,-1,18
 1493 -21 1493 -21 1293 -21 c 0,19,20
 1214 -21 1214 -21 1154 9.5 c 128,-1,21
 1094 40 1094 40 1049 99 c 1,22,-1
 1049 -416 l 1,23,-1
 711 -416 l 1,24,-1
 711 102 l 1,25,26
 665 42 665 42 603.5 10.5 c 128,-1,27
 542 -21 542 -21 464 -21 c 0,28,29
 264 -21 264 -21 154.5 127 c 128,-1,30
 45 275 45 275 45 518 c 2,31,-1
 45 539 l 2,0,1
382 518 m 2,32,33
 382 386 382 386 420.5 312.5 c 128,-1,34
 459 239 459 239 550 239 c 0,35,36
 606 239 606 239 646 256.5 c 128,-1,37
 686 274 686 274 711 309 c 1,38,-1
 711 760 l 1,39,40
 686 800 686 800 646.5 821 c 128,-1,41
 607 842 607 842 552 842 c 0,42,43
 462 842 462 842 422 759 c 128,-1,44
 382 676 382 676 382 539 c 2,45,-1
 382 518 l 2,32,33
1376 539 m 2,46,47
 1376 676 1376 676 1336 759 c 128,-1,48
 1296 842 1296 842 1208 842 c 0,49,50
 1151 842 1151 842 1111.5 821 c 128,-1,51
 1072 800 1072 800 1049 760 c 1,52,-1
 1049 308 l 1,53,54
 1073 273 1073 273 1112.5 256 c 128,-1,55
 1152 239 1152 239 1210 239 c 0,56,57
 1299 239 1299 239 1337.5 312.5 c 128,-1,58
 1376 386 1376 386 1376 518 c 2,59,-1
 1376 539 l 2,46,47
EndSplineSet
Validated: 1
EndChar

StartChar: uni0446
Encoding: 1094 1094 498
Width: 1261
GlyphClass: 1
Flags: W
LayerCount: 2
Fore
SplineSet
90 1082 m 1,0,-1
 427 1082 l 1,1,-1
 427 260 l 1,2,-1
 725 260 l 1,3,-1
 725 1082 l 1,4,-1
 1063 1082 l 1,5,-1
 1063 260 l 1,6,-1
 1230 260 l 1,7,-1
 1230 -360 l 1,8,-1
 893 -360 l 1,9,-1
 893 0 l 1,10,-1
 90 0 l 1,11,-1
 90 1082 l 1,0,-1
EndSplineSet
Validated: 1
EndChar

StartChar: uni0447
Encoding: 1095 1095 499
Width: 1155
GlyphClass: 1
Flags: W
LayerCount: 2
Fore
SplineSet
1067 0 m 1,0,-1
 729 0 l 1,1,-1
 729 325 l 1,2,3
 699 320 699 320 673 317.5 c 128,-1,4
 647 315 647 315 629 315 c 0,5,6
 367 315 367 315 229.5 416 c 128,-1,7
 92 517 92 517 92 733 c 2,8,-1
 92 1082 l 1,9,-1
 429 1082 l 1,10,-1
 429 733 l 2,11,12
 429 637 429 637 471.5 606 c 128,-1,13
 514 575 514 575 629 575 c 0,14,15
 654 575 654 575 679 577 c 128,-1,16
 704 579 704 579 729 585 c 1,17,-1
 729 1082 l 1,18,-1
 1067 1082 l 1,19,-1
 1067 0 l 1,0,-1
EndSplineSet
Validated: 1
EndChar

StartChar: uni0448
Encoding: 1096 1096 500
Width: 1713
GlyphClass: 1
Flags: W
LayerCount: 2
Fore
SplineSet
427 1082 m 1,0,-1
 427 260 l 1,1,-1
 680 260 l 1,2,-1
 680 1082 l 1,3,-1
 1019 1082 l 1,4,-1
 1019 260 l 1,5,-1
 1272 260 l 1,6,-1
 1272 1082 l 1,7,-1
 1609 1082 l 1,8,-1
 1609 0 l 1,9,-1
 90 0 l 1,10,-1
 90 1082 l 1,11,-1
 427 1082 l 1,0,-1
EndSplineSet
Validated: 1
EndChar

StartChar: uni0449
Encoding: 1097 1097 501
Width: 1915
GlyphClass: 1
Flags: W
LayerCount: 2
Fore
SplineSet
427 1082 m 1,0,-1
 427 260 l 1,1,-1
 680 260 l 1,2,-1
 680 1082 l 1,3,-1
 1019 1082 l 1,4,-1
 1019 260 l 1,5,-1
 1272 260 l 1,6,-1
 1272 1082 l 1,7,-1
 1609 1082 l 1,8,-1
 1609 260 l 1,9,-1
 1854 260 l 1,10,-1
 1854 -360 l 1,11,-1
 1517 -360 l 1,12,-1
 1517 0 l 1,13,-1
 90 0 l 1,14,-1
 90 1082 l 1,15,-1
 427 1082 l 1,0,-1
EndSplineSet
Validated: 1
EndChar

StartChar: uni044A
Encoding: 1098 1098 502
Width: 1316
GlyphClass: 1
Flags: W
LayerCount: 2
Fore
SplineSet
654 765 m 1,0,-1
 825 765 l 2,1,2
 1056 765 1056 765 1190.5 659.5 c 128,-1,3
 1325 554 1325 554 1325 383 c 0,4,5
 1325 209 1325 209 1191 104.5 c 128,-1,6
 1057 0 1057 0 825 0 c 2,7,-1
 316 0 l 1,8,-1
 316 821 l 1,9,-1
 -1 821 l 1,10,-1
 -1 1082 l 1,11,-1
 654 1082 l 1,12,-1
 654 765 l 1,0,-1
654 506 m 1,13,-1
 654 258 l 1,14,-1
 825 258 l 2,15,16
 907 258 907 258 948 292.5 c 128,-1,17
 989 327 989 327 989 385 c 0,18,19
 989 439 989 439 948 472.5 c 128,-1,20
 907 506 907 506 825 506 c 2,21,-1
 654 506 l 1,13,-1
EndSplineSet
Validated: 1
EndChar

StartChar: uni044B
Encoding: 1099 1099 503
Width: 1744
GlyphClass: 1
Flags: W
LayerCount: 2
Fore
SplineSet
476 765 m 1,0,-1
 647 765 l 2,1,2
 878 765 878 765 1012.5 659.5 c 128,-1,3
 1147 554 1147 554 1147 383 c 0,4,5
 1147 209 1147 209 1013 104.5 c 128,-1,6
 879 0 879 0 647 0 c 2,7,-1
 138 0 l 1,8,-1
 138 1082 l 1,9,-1
 476 1082 l 1,10,-1
 476 765 l 1,0,-1
1544 0 m 1,11,-1
 1205 0 l 1,12,-1
 1205 1082 l 1,13,-1
 1544 1082 l 1,14,-1
 1544 0 l 1,11,-1
476 506 m 1,15,-1
 476 258 l 1,16,-1
 647 258 l 2,17,18
 729 258 729 258 770 292.5 c 128,-1,19
 811 327 811 327 811 385 c 0,20,21
 811 439 811 439 770 472.5 c 128,-1,22
 729 506 729 506 647 506 c 2,23,-1
 476 506 l 1,15,-1
EndSplineSet
Validated: 1
EndChar

StartChar: uni044C
Encoding: 1100 1100 504
Width: 1157
GlyphClass: 1
Flags: W
LayerCount: 2
Fore
SplineSet
456 765 m 1,0,-1
 627 765 l 2,1,2
 858 765 858 765 992.5 659.5 c 128,-1,3
 1127 554 1127 554 1127 383 c 0,4,5
 1127 209 1127 209 993 104.5 c 128,-1,6
 859 0 859 0 627 0 c 2,7,-1
 118 0 l 1,8,-1
 118 1082 l 1,9,-1
 456 1082 l 1,10,-1
 456 765 l 1,0,-1
456 506 m 1,11,-1
 456 258 l 1,12,-1
 627 258 l 2,13,14
 709 258 709 258 750 292.5 c 128,-1,15
 791 327 791 327 791 385 c 0,16,17
 791 439 791 439 750 472.5 c 128,-1,18
 709 506 709 506 627 506 c 2,19,-1
 456 506 l 1,11,-1
EndSplineSet
Validated: 1
EndChar

StartChar: uni044D
Encoding: 1101 1101 505
Width: 1044
GlyphClass: 1
Flags: W
LayerCount: 2
Fore
SplineSet
497 842 m 0,0,1
 426 842 426 842 393.5 804.5 c 128,-1,2
 361 767 361 767 361 697 c 1,3,-1
 53 697 l 1,4,-1
 51 703 l 1,5,6
 46 879 46 879 172 990.5 c 128,-1,7
 298 1102 298 1102 497 1102 c 0,8,9
 743 1102 743 1102 877 949 c 128,-1,10
 1011 796 1011 796 1011 552 c 2,11,-1
 1011 529 l 2,12,13
 1011 284 1011 284 877.5 131.5 c 128,-1,14
 744 -21 744 -21 499 -21 c 0,15,16
 292 -21 292 -21 169 93.5 c 128,-1,17
 46 208 46 208 51 408 c 1,18,-1
 53 414 l 1,19,-1
 361 414 l 1,20,21
 361 335 361 335 395 287 c 128,-1,22
 429 239 429 239 499 239 c 0,23,24
 581 239 581 239 620 295 c 128,-1,25
 659 351 659 351 665 446 c 1,26,-1
 662 451 l 1,27,-1
 431 451 l 1,28,-1
 431 634 l 1,29,-1
 662 634 l 1,30,-1
 665 639 l 1,31,32
 659 733 659 733 619.5 787.5 c 128,-1,33
 580 842 580 842 497 842 c 0,0,1
EndSplineSet
Validated: 33
EndChar

StartChar: uni044E
Encoding: 1102 1102 506
Width: 1658
GlyphClass: 1
Flags: W
LayerCount: 2
Fore
SplineSet
462 682 m 1,0,-1
 568 682 l 1,1,2
 602 873 602 873 735 987.5 c 128,-1,3
 868 1102 868 1102 1080 1102 c 0,4,5
 1328 1102 1328 1102 1466 948.5 c 128,-1,6
 1604 795 1604 795 1604 551 c 2,7,-1
 1604 530 l 2,8,9
 1604 285 1604 285 1466 132 c 128,-1,10
 1328 -21 1328 -21 1082 -21 c 0,11,12
 863 -21 863 -21 728.5 99 c 128,-1,13
 594 219 594 219 565 421 c 1,14,-1
 462 421 l 1,15,-1
 462 0 l 1,16,-1
 123 0 l 1,17,-1
 123 1082 l 1,18,-1
 462 1082 l 1,19,-1
 462 682 l 1,0,-1
895 530 m 2,20,21
 895 394 895 394 937.5 316.5 c 128,-1,22
 980 239 980 239 1082 239 c 0,23,24
 1181 239 1181 239 1224 317 c 128,-1,25
 1267 395 1267 395 1267 530 c 2,26,-1
 1267 551 l 2,27,28
 1267 683 1267 683 1224 762.5 c 128,-1,29
 1181 842 1181 842 1080 842 c 0,30,31
 980 842 980 842 937.5 762 c 128,-1,32
 895 682 895 682 895 551 c 2,33,-1
 895 530 l 2,20,21
EndSplineSet
Validated: 1
EndChar

StartChar: uni044F
Encoding: 1103 1103 507
Width: 1151
GlyphClass: 1
Flags: W
LayerCount: 2
Fore
SplineSet
1031 1082 m 1,0,-1
 1031 0 l 1,1,-1
 695 0 l 1,2,-1
 695 358 l 1,3,-1
 565 358 l 1,4,-1
 374 0 l 1,5,-1
 38 0 l 1,6,-1
 260 415 l 1,7,8
 163 460 163 460 110.5 537 c 128,-1,9
 58 614 58 614 58 709 c 0,10,11
 58 873 58 873 190.5 977.5 c 128,-1,12
 323 1082 323 1082 545 1082 c 2,13,-1
 1031 1082 l 1,0,-1
395 697 m 0,14,15
 395 649 395 649 435 612 c 128,-1,16
 475 575 475 575 547 575 c 2,17,-1
 695 575 l 1,18,-1
 695 824 l 1,19,-1
 545 824 l 2,20,21
 474 824 474 824 434.5 785 c 128,-1,22
 395 746 395 746 395 697 c 0,14,15
EndSplineSet
Validated: 1
EndChar

StartChar: uni0452
Encoding: 1106 1106 510
Width: 1152
GlyphClass: 1
Flags: W
LayerCount: 2
Fore
SplineSet
543 1196 m 1,0,-1
 424 1196 l 1,1,-1
 424 948 l 1,2,3
 473 1021 473 1021 543.5 1061.5 c 128,-1,4
 614 1102 614 1102 699 1102 c 0,5,6
 867 1102 867 1102 963 985 c 128,-1,7
 1059 868 1059 868 1059 622 c 2,8,-1
 1059 476 l 1,9,-1
 1060 476 l 1,10,-1
 1060 -15 l 2,11,12
 1060 -217 1060 -217 951.5 -327 c 128,-1,13
 843 -437 843 -437 651 -437 c 0,14,15
 606 -437 606 -437 568.5 -433 c 128,-1,16
 531 -429 531 -429 490 -420 c 1,17,-1
 504 -165 l 1,18,19
 534 -171 534 -171 553 -174 c 128,-1,20
 572 -177 572 -177 604 -177 c 0,21,22
 661 -177 661 -177 691 -135.5 c 128,-1,23
 721 -94 721 -94 721 -15 c 2,24,-1
 721 624 l 2,25,26
 721 748 721 748 689 795 c 128,-1,27
 657 842 657 842 592 842 c 0,28,29
 535 842 535 842 493 825.5 c 128,-1,30
 451 809 451 809 424 779 c 1,31,-1
 424 0 l 1,32,-1
 86 0 l 1,33,-1
 86 1196 l 1,34,-1
 -46 1196 l 1,35,-1
 -46 1404 l 1,36,-1
 86 1404 l 1,37,-1
 86 1560 l 1,38,-1
 424 1560 l 1,39,-1
 424 1404 l 1,40,-1
 543 1404 l 1,41,-1
 543 1196 l 1,0,-1
EndSplineSet
Validated: 1
EndChar

StartChar: uni0454
Encoding: 1108 1108 512
Width: 1045
GlyphClass: 1
Flags: W
LayerCount: 2
Fore
SplineSet
559 239 m 0,0,1
 628 239 628 239 662 276.5 c 128,-1,2
 696 314 696 314 696 385 c 1,3,-1
 1004 385 l 1,4,-1
 1006 379 l 1,5,6
 1010 202 1010 202 883.5 90.5 c 128,-1,7
 757 -21 757 -21 559 -21 c 0,8,9
 312 -21 312 -21 178.5 131.5 c 128,-1,10
 45 284 45 284 45 529 c 2,11,-1
 45 552 l 2,12,13
 45 796 45 796 178 949 c 128,-1,14
 311 1102 311 1102 557 1102 c 0,15,16
 763 1102 763 1102 886.5 987.5 c 128,-1,17
 1010 873 1010 873 1006 674 c 1,18,-1
 1004 668 l 1,19,-1
 696 668 l 1,20,21
 696 745 696 745 661 793.5 c 128,-1,22
 626 842 626 842 557 842 c 0,23,24
 471 842 471 842 431 781.5 c 128,-1,25
 391 721 391 721 384 616 c 1,26,-1
 645 616 l 1,27,-1
 645 433 l 1,28,-1
 394 433 l 1,29,-1
 392 428 l 1,30,31
 398 340 398 340 438 289.5 c 128,-1,32
 478 239 478 239 559 239 c 0,0,1
EndSplineSet
Validated: 33
EndChar

StartChar: uni0459
Encoding: 1113 1113 517
Width: 1766
GlyphClass: 1
Flags: W
LayerCount: 2
Fore
SplineSet
1064 1082 m 1,0,-1
 1064 765 l 1,1,-1
 1236 765 l 2,2,3
 1467 765 1467 765 1601 659.5 c 128,-1,4
 1735 554 1735 554 1735 383 c 0,5,6
 1735 209 1735 209 1601 104.5 c 128,-1,7
 1467 0 1467 0 1236 0 c 2,8,-1
 726 0 l 1,9,-1
 726 822 l 1,10,-1
 534 822 l 1,11,-1
 534 621 l 2,12,13
 534 305 534 305 420 152.5 c 128,-1,14
 306 0 306 0 51 0 c 2,15,-1
 9 0 l 1,16,-1
 2 261 l 1,17,-1
 28 261 l 2,18,19
 110 261 110 261 153 350.5 c 128,-1,20
 196 440 196 440 196 621 c 2,21,-1
 196 1082 l 1,22,-1
 1064 1082 l 1,0,-1
1064 506 m 1,23,-1
 1064 258 l 1,24,-1
 1236 258 l 2,25,26
 1318 258 1318 258 1358.5 292.5 c 128,-1,27
 1399 327 1399 327 1399 385 c 0,28,29
 1399 439 1399 439 1358.5 472.5 c 128,-1,30
 1318 506 1318 506 1236 506 c 2,31,-1
 1064 506 l 1,23,-1
EndSplineSet
Validated: 1
EndChar

StartChar: uni045A
Encoding: 1114 1114 518
Width: 1761
GlyphClass: 1
Flags: W
LayerCount: 2
Fore
SplineSet
427 660 m 1,0,-1
 722 660 l 1,1,-1
 722 1082 l 1,2,-1
 1060 1082 l 1,3,-1
 1060 765 l 1,4,-1
 1231 765 l 2,5,6
 1462 765 1462 765 1596.5 659.5 c 128,-1,7
 1731 554 1731 554 1731 383 c 0,8,9
 1731 209 1731 209 1597 104.5 c 128,-1,10
 1463 0 1463 0 1231 0 c 2,11,-1
 722 0 l 1,12,-1
 722 401 l 1,13,-1
 427 401 l 1,14,-1
 427 0 l 1,15,-1
 90 0 l 1,16,-1
 90 1082 l 1,17,-1
 427 1082 l 1,18,-1
 427 660 l 1,0,-1
1060 506 m 1,19,-1
 1060 258 l 1,20,-1
 1231 258 l 2,21,22
 1313 258 1313 258 1354 292.5 c 128,-1,23
 1395 327 1395 327 1395 385 c 0,24,25
 1395 439 1395 439 1354 472.5 c 128,-1,26
 1313 506 1313 506 1231 506 c 2,27,-1
 1060 506 l 1,19,-1
EndSplineSet
Validated: 1
EndChar

StartChar: uni045B
Encoding: 1115 1115 519
Width: 1152
GlyphClass: 1
Flags: W
LayerCount: 2
Fore
SplineSet
719 1214 m 1,0,-1
 424 1214 l 1,1,-1
 424 948 l 1,2,3
 473 1021 473 1021 543.5 1061.5 c 128,-1,4
 614 1102 614 1102 699 1102 c 0,5,6
 867 1102 867 1102 963 985 c 128,-1,7
 1059 868 1059 868 1059 622 c 2,8,-1
 1059 0 l 1,9,-1
 721 0 l 1,10,-1
 721 624 l 2,11,12
 721 748 721 748 689 795 c 128,-1,13
 657 842 657 842 592 842 c 0,14,15
 535 842 535 842 493 825.5 c 128,-1,16
 451 809 451 809 424 779 c 1,17,-1
 424 0 l 1,18,-1
 86 0 l 1,19,-1
 86 1214 l 1,20,-1
 33 1214 l 1,21,-1
 33 1405 l 1,22,-1
 86 1405 l 1,23,-1
 86 1560 l 1,24,-1
 424 1560 l 1,25,-1
 424 1405 l 1,26,-1
 719 1405 l 1,27,-1
 719 1214 l 1,0,-1
EndSplineSet
Validated: 1
EndChar

StartChar: uni045F
Encoding: 1119 1119 523
Width: 1151
GlyphClass: 1
Flags: W
LayerCount: 2
Fore
SplineSet
427 1082 m 1,0,-1
 427 260 l 1,1,-1
 725 260 l 1,2,-1
 725 1082 l 1,3,-1
 1063 1082 l 1,4,-1
 1063 0 l 1,5,-1
 744 0 l 1,6,-1
 744 -360 l 1,7,-1
 407 -360 l 1,8,-1
 407 0 l 1,9,-1
 90 0 l 1,10,-1
 90 1082 l 1,11,-1
 427 1082 l 1,0,-1
EndSplineSet
Validated: 1
EndChar

StartChar: uni0460
Encoding: 1120 1120 524
Width: 1980
GlyphClass: 1
Flags: W
LayerCount: 2
Fore
SplineSet
1095 1435 m 1,0,1
 1155 1455 1155 1455 1222.5 1466 c 128,-1,2
 1290 1477 1290 1477 1363 1477 c 0,3,4
 1594 1477 1594 1477 1743.5 1310 c 128,-1,5
 1893 1143 1893 1143 1893 880 c 2,6,-1
 1893 576 l 2,7,8
 1893 311 1893 311 1739 145 c 128,-1,9
 1585 -21 1585 -21 1342 -21 c 0,10,11
 1231 -21 1231 -21 1144 -1 c 128,-1,12
 1057 19 1057 19 990 56 c 1,13,14
 922 20 922 20 835 -0.5 c 128,-1,15
 748 -21 748 -21 639 -21 c 0,16,17
 395 -21 395 -21 241.5 145 c 128,-1,18
 88 311 88 311 88 576 c 2,19,-1
 88 880 l 2,20,21
 88 1143 88 1143 237 1310 c 128,-1,22
 386 1477 386 1477 619 1477 c 0,23,24
 690 1477 690 1477 758 1466 c 128,-1,25
 826 1455 826 1455 887 1435 c 1,26,-1
 824 1194 l 1,27,28
 785 1205 785 1205 736 1211 c 128,-1,29
 687 1217 687 1217 630 1217 c 0,30,31
 537 1217 537 1217 481 1124 c 128,-1,32
 425 1031 425 1031 425 882 c 2,33,-1
 425 576 l 2,34,35
 425 425 425 425 481.5 332 c 128,-1,36
 538 239 538 239 639 239 c 0,37,38
 716 239 716 239 756 253.5 c 128,-1,39
 796 268 796 268 821 294 c 1,40,-1
 821 544 l 1,41,-1
 638 544 l 1,42,-1
 638 768 l 1,43,-1
 1343 768 l 1,44,-1
 1343 544 l 1,45,-1
 1160 544 l 1,46,-1
 1160 294 l 1,47,48
 1185 268 1185 268 1225 253.5 c 128,-1,49
 1265 239 1265 239 1342 239 c 0,50,51
 1442 239 1442 239 1499 331.5 c 128,-1,52
 1556 424 1556 424 1556 576 c 2,53,-1
 1556 882 l 2,54,55
 1556 1031 1556 1031 1499.5 1124 c 128,-1,56
 1443 1217 1443 1217 1352 1217 c 0,57,58
 1294 1217 1294 1217 1245 1211 c 128,-1,59
 1196 1205 1196 1205 1157 1194 c 1,60,-1
 1095 1435 l 1,0,1
EndSplineSet
Validated: 1
EndChar

StartChar: uni0461
Encoding: 1121 1121 525
Width: 1486
GlyphClass: 1
Flags: W
LayerCount: 2
Fore
SplineSet
501 446 m 1,0,-1
 535 259 l 1,1,-1
 541 259 l 1,2,-1
 594 446 l 1,3,-1
 646 693 l 1,4,-1
 538 1082 l 1,5,-1
 871 1082 l 1,6,-1
 990 446 l 1,7,-1
 1002 376 l 1,8,-1
 1004 386 l 1,9,10
 1065 549 1065 549 1090 718.5 c 128,-1,11
 1115 888 1115 888 1115 1082 c 1,12,-1
 1469 1082 l 1,13,14
 1432 811 1432 811 1357 546 c 128,-1,15
 1282 281 1282 281 1173 0 c 1,16,-1
 840 0 l 1,17,-1
 767 260 l 1,18,-1
 761 260 l 1,19,-1
 673 0 l 1,20,-1
 352 0 l 1,21,-1
 0 1082 l 1,22,-1
 356 1082 l 1,23,-1
 501 446 l 1,0,-1
EndSplineSet
Validated: 1
EndChar

StartChar: uni0462
Encoding: 1122 1122 526
Width: 1278
GlyphClass: 1
Flags: W
LayerCount: 2
Fore
SplineSet
720 1085 m 1,0,-1
 455 1085 l 1,1,-1
 455 977 l 1,2,-1
 651 977 l 2,3,4
 910 977 910 977 1067.5 840 c 128,-1,5
 1225 703 1225 703 1225 489 c 0,6,7
 1225 274 1225 274 1067.5 137 c 128,-1,8
 910 0 910 0 651 0 c 2,9,-1
 116 0 l 1,10,-1
 116 1085 l 1,11,-1
 34 1085 l 1,12,-1
 34 1276 l 1,13,-1
 116 1276 l 1,14,-1
 116 1456 l 1,15,-1
 455 1456 l 1,16,-1
 455 1276 l 1,17,-1
 720 1276 l 1,18,-1
 720 1085 l 1,0,-1
455 717 m 1,19,-1
 455 260 l 1,20,-1
 651 260 l 2,21,22
 762 260 762 260 825 327 c 128,-1,23
 888 394 888 394 888 491 c 0,24,25
 888 585 888 585 824.5 651 c 128,-1,26
 761 717 761 717 651 717 c 2,27,-1
 455 717 l 1,19,-1
EndSplineSet
Validated: 1
EndChar

StartChar: uni0463
Encoding: 1123 1123 527
Width: 1157
GlyphClass: 1
Flags: W
LayerCount: 2
Fore
SplineSet
678 1122 m 1,0,-1
 456 1122 l 1,1,-1
 456 765 l 1,2,-1
 627 765 l 2,3,4
 858 765 858 765 992.5 659.5 c 128,-1,5
 1127 554 1127 554 1127 383 c 0,6,7
 1127 209 1127 209 993 104.5 c 128,-1,8
 859 0 859 0 627 0 c 2,9,-1
 118 0 l 1,10,-1
 118 1122 l 1,11,-1
 1 1122 l 1,12,-1
 1 1313 l 1,13,-1
 118 1313 l 1,14,-1
 118 1562 l 1,15,-1
 456 1562 l 1,16,-1
 456 1313 l 1,17,-1
 678 1313 l 1,18,-1
 678 1122 l 1,0,-1
456 506 m 1,19,-1
 456 258 l 1,20,-1
 627 258 l 2,21,22
 709 258 709 258 750 292.5 c 128,-1,23
 791 327 791 327 791 385 c 0,24,25
 791 439 791 439 750 472.5 c 128,-1,26
 709 506 709 506 627 506 c 2,27,-1
 456 506 l 1,19,-1
EndSplineSet
Validated: 1
EndChar

StartChar: uni0464
Encoding: 1124 1124 528
Width: 1824
GlyphClass: 1
Flags: W
LayerCount: 2
Fore
SplineSet
1208 598 m 1,0,-1
 894 598 l 1,1,-1
 894 577 l 2,2,3
 894 424 894 424 961 332 c 128,-1,4
 1028 240 1028 240 1153 240 c 0,5,6
 1269 240 1269 240 1320.5 298 c 128,-1,7
 1372 356 1372 356 1372 492 c 1,8,-1
 1701 492 l 1,9,-1
 1703 486 l 1,10,11
 1707 237 1707 237 1562.5 108.5 c 128,-1,12
 1418 -20 1418 -20 1153 -20 c 0,13,14
 883 -20 883 -20 719.5 145 c 128,-1,15
 556 310 556 310 556 577 c 2,16,-1
 556 598 l 1,17,-1
 475 598 l 1,18,-1
 475 0 l 1,19,-1
 138 0 l 1,20,-1
 138 1456 l 1,21,-1
 475 1456 l 1,22,-1
 475 859 l 1,23,-1
 556 859 l 1,24,-1
 556 881 l 2,25,26
 556 1147 556 1147 713.5 1312.5 c 128,-1,27
 871 1478 871 1478 1130 1478 c 0,28,29
 1407 1478 1407 1478 1558.5 1349 c 128,-1,30
 1710 1220 1710 1220 1706 974 c 1,31,-1
 1703 968 l 1,32,-1
 1374 968 l 1,33,34
 1374 1102 1374 1102 1317 1160 c 128,-1,35
 1260 1218 1260 1218 1130 1218 c 0,36,37
 1016 1218 1016 1218 955 1126.5 c 128,-1,38
 894 1035 894 1035 894 883 c 2,39,-1
 894 859 l 1,40,-1
 1208 859 l 1,41,-1
 1208 598 l 1,0,-1
EndSplineSet
Validated: 33
EndChar

StartChar: uni0465
Encoding: 1125 1125 529
Width: 1554
GlyphClass: 1
Flags: W
LayerCount: 2
Fore
SplineSet
1120 464 m 1,0,-1
 810 464 l 1,1,2
 817 357 817 357 857 298 c 128,-1,3
 897 239 897 239 985 239 c 0,4,5
 1054 239 1054 239 1088 276.5 c 128,-1,6
 1122 314 1122 314 1122 385 c 1,7,-1
 1430 385 l 1,8,-1
 1432 379 l 1,9,10
 1436 202 1436 202 1309.5 90.5 c 128,-1,11
 1183 -21 1183 -21 985 -21 c 0,12,13
 756 -21 756 -21 623 112 c 128,-1,14
 490 245 490 245 473 464 c 1,15,-1
 460 464 l 1,16,-1
 460 0 l 1,17,-1
 121 0 l 1,18,-1
 121 1082 l 1,19,-1
 460 1082 l 1,20,-1
 460 655 l 1,21,-1
 477 655 l 1,22,23
 504 857 504 857 634.5 979.5 c 128,-1,24
 765 1102 765 1102 983 1102 c 0,25,26
 1189 1102 1189 1102 1312.5 987.5 c 128,-1,27
 1436 873 1436 873 1432 674 c 1,28,-1
 1430 668 l 1,29,-1
 1122 668 l 1,30,31
 1122 745 1122 745 1087 793.5 c 128,-1,32
 1052 842 1052 842 983 842 c 0,33,34
 905 842 905 842 866 792.5 c 128,-1,35
 827 743 827 743 819 660 c 1,36,-1
 821 655 l 1,37,-1
 1120 655 l 1,38,-1
 1120 464 l 1,0,-1
EndSplineSet
Validated: 33
EndChar

StartChar: uni0466
Encoding: 1126 1126 530
Width: 1401
GlyphClass: 1
Flags: W
LayerCount: 2
Fore
SplineSet
913 366 m 1,0,-1
 825 366 l 1,1,-1
 825 0 l 1,2,-1
 556 0 l 1,3,-1
 556 366 l 1,4,-1
 479 366 l 1,5,-1
 361 0 l 1,6,-1
 5 0 l 1,7,-1
 514 1456 l 1,8,-1
 878 1456 l 1,9,-1
 1388 0 l 1,10,-1
 1032 0 l 1,11,-1
 913 366 l 1,0,-1
550 584 m 1,12,-1
 842 584 l 1,13,-1
 698 1025 l 1,14,-1
 692 1025 l 1,15,-1
 550 584 l 1,12,-1
EndSplineSet
Validated: 1
EndChar

StartChar: uni0467
Encoding: 1127 1127 531
Width: 1171
GlyphClass: 1
Flags: W
LayerCount: 2
Fore
SplineSet
728 262 m 1,0,-1
 663 262 l 1,1,-1
 663 0 l 1,2,-1
 476 0 l 1,3,-1
 476 262 l 1,4,-1
 428 262 l 1,5,-1
 348 0 l 1,6,-1
 4 0 l 1,7,-1
 396 1082 l 1,8,-1
 761 1082 l 1,9,-1
 1152 0 l 1,10,-1
 809 0 l 1,11,-1
 728 262 l 1,0,-1
489 460 m 1,12,-1
 667 460 l 1,13,-1
 613 635 l 1,14,-1
 581 774 l 1,15,-1
 575 774 l 1,16,-1
 543 635 l 1,17,-1
 489 460 l 1,12,-1
EndSplineSet
Validated: 1
EndChar

StartChar: uni0468
Encoding: 1128 1128 532
Width: 1976
GlyphClass: 1
Flags: W
LayerCount: 2
Fore
SplineSet
493 584 m 1,0,-1
 738 584 l 1,1,-1
 1043 1456 l 1,2,-1
 1407 1456 l 1,3,-1
 1917 0 l 1,4,-1
 1561 0 l 1,5,-1
 1442 366 l 1,6,-1
 1354 366 l 1,7,-1
 1354 0 l 1,8,-1
 1085 0 l 1,9,-1
 1085 366 l 1,10,-1
 1008 366 l 1,11,-1
 890 0 l 1,12,-1
 534 0 l 1,13,-1
 661 364 l 1,14,-1
 493 364 l 1,15,-1
 493 0 l 1,16,-1
 156 0 l 1,17,-1
 156 1456 l 1,18,-1
 493 1456 l 1,19,-1
 493 584 l 1,0,-1
1079 584 m 1,20,-1
 1371 584 l 1,21,-1
 1227 1025 l 1,22,-1
 1221 1025 l 1,23,-1
 1079 584 l 1,20,-1
EndSplineSet
Validated: 1
EndChar

StartChar: uni0469
Encoding: 1129 1129 533
Width: 1682
GlyphClass: 1
Flags: W
LayerCount: 2
Fore
SplineSet
1175 262 m 1,0,-1
 1110 262 l 1,1,-1
 1110 0 l 1,2,-1
 923 0 l 1,3,-1
 923 262 l 1,4,-1
 875 262 l 1,5,-1
 795 0 l 1,6,-1
 156 0 l 1,7,-1
 156 263 l 1,8,-1
 154 263 l 1,9,-1
 154 459 l 1,10,-1
 156 459 l 1,11,-1
 156 1082 l 1,12,-1
 495 1082 l 1,13,-1
 495 459 l 1,14,-1
 617 459 l 1,15,-1
 843 1082 l 1,16,-1
 1208 1082 l 1,17,-1
 1599 0 l 1,18,-1
 1256 0 l 1,19,-1
 1175 262 l 1,0,-1
936 460 m 1,20,-1
 1114 460 l 1,21,-1
 1060 635 l 1,22,-1
 1028 774 l 1,23,-1
 1022 774 l 1,24,-1
 990 635 l 1,25,-1
 936 460 l 1,20,-1
495 263 m 1,26,-1
 495 138 l 1,27,-1
 501 137 l 1,28,-1
 546 263 l 1,29,-1
 495 263 l 1,26,-1
EndSplineSet
Validated: 1
EndChar

StartChar: uni046A
Encoding: 1130 1130 534
Width: 1795
GlyphClass: 1
Flags: W
LayerCount: 2
Fore
SplineSet
96 0 m 1,0,-1
 96 330 l 2,1,2
 96 572 96 572 231 682.5 c 128,-1,3
 366 793 366 793 629 798 c 1,4,-1
 260 1456 l 1,5,-1
 1578 1456 l 1,6,-1
 1208 796 l 1,7,8
 1449 783 1449 783 1574 672 c 128,-1,9
 1699 561 1699 561 1699 330 c 2,10,-1
 1699 0 l 1,11,-1
 1362 0 l 1,12,-1
 1362 330 l 2,13,14
 1362 444 1362 444 1309 489 c 128,-1,15
 1256 534 1256 534 1140 534 c 2,16,-1
 1084 534 l 1,17,-1
 1084 0 l 1,18,-1
 746 0 l 1,19,-1
 746 534 l 1,20,-1
 654 534 l 2,21,22
 537 534 537 534 485 489 c 128,-1,23
 433 444 433 444 433 330 c 2,24,-1
 433 0 l 1,25,-1
 96 0 l 1,0,-1
918 861 m 1,26,-1
 1081 1192 l 1,27,-1
 756 1192 l 1,28,-1
 918 861 l 1,26,-1
EndSplineSet
Validated: 1
EndChar

StartChar: uni046B
Encoding: 1131 1131 535
Width: 1493
GlyphClass: 1
Flags: W
LayerCount: 2
Fore
SplineSet
1038 609 m 1,0,1
 1215 584 1215 584 1308.5 483 c 128,-1,2
 1402 382 1402 382 1402 190 c 2,3,-1
 1402 0 l 1,4,-1
 1065 0 l 1,5,-1
 1065 190 l 2,6,7
 1065 289 1065 289 1031 329 c 128,-1,8
 997 369 997 369 926 366 c 1,9,-1
 920 364 l 1,10,-1
 920 0 l 1,11,-1
 583 0 l 1,12,-1
 583 364 l 1,13,-1
 577 366 l 1,14,15
 499 370 499 370 463 331 c 128,-1,16
 427 292 427 292 427 190 c 2,17,-1
 427 0 l 1,18,-1
 90 0 l 1,19,-1
 90 190 l 2,20,21
 90 386 90 386 186.5 487.5 c 128,-1,22
 283 589 283 589 470 611 c 1,23,-1
 197 1082 l 1,24,-1
 1312 1082 l 1,25,-1
 1038 609 l 1,0,1
751 650 m 1,26,-1
 757 650 l 1,27,-1
 859 880 l 1,28,-1
 649 880 l 1,29,-1
 751 650 l 1,26,-1
EndSplineSet
Validated: 33
EndChar

StartChar: uni046C
Encoding: 1132 1132 536
Width: 2409
GlyphClass: 1
Flags: W
LayerCount: 2
Fore
SplineSet
1314 535 m 1,0,-1
 317 535 l 1,1,-1
 317 799 l 1,2,-1
 1314 799 l 1,3,-1
 1314 535 l 1,0,-1
474 0 m 1,4,-1
 137 0 l 1,5,-1
 137 1456 l 1,6,-1
 474 1456 l 1,7,-1
 474 0 l 1,4,-1
663 0 m 1,8,-1
 663 330 l 2,9,10
 663 572 663 572 798 682.5 c 128,-1,11
 933 793 933 793 1196 798 c 1,12,-1
 827 1456 l 1,13,-1
 2145 1456 l 1,14,-1
 1775 796 l 1,15,16
 2016 783 2016 783 2141 672 c 128,-1,17
 2266 561 2266 561 2266 330 c 2,18,-1
 2266 0 l 1,19,-1
 1929 0 l 1,20,-1
 1929 330 l 2,21,22
 1929 444 1929 444 1876 489 c 128,-1,23
 1823 534 1823 534 1707 534 c 2,24,-1
 1651 534 l 1,25,-1
 1651 0 l 1,26,-1
 1313 0 l 1,27,-1
 1313 534 l 1,28,-1
 1221 534 l 2,29,30
 1104 534 1104 534 1052 489 c 128,-1,31
 1000 444 1000 444 1000 330 c 2,32,-1
 1000 0 l 1,33,-1
 663 0 l 1,8,-1
1485 861 m 1,34,-1
 1648 1192 l 1,35,-1
 1323 1192 l 1,36,-1
 1485 861 l 1,34,-1
EndSplineSet
Validated: 5
EndChar

StartChar: uni046D
Encoding: 1133 1133 537
Width: 2080
GlyphClass: 1
Flags: W
LayerCount: 2
Fore
SplineSet
1203 384 m 1,0,-1
 218 384 l 1,1,-1
 218 617 l 1,2,-1
 1203 617 l 1,3,-1
 1203 384 l 1,0,-1
462 0 m 1,4,-1
 123 0 l 1,5,-1
 123 1082 l 1,6,-1
 462 1082 l 1,7,-1
 462 0 l 1,4,-1
1544 609 m 1,8,9
 1721 584 1721 584 1814.5 483 c 128,-1,10
 1908 382 1908 382 1908 190 c 2,11,-1
 1908 0 l 1,12,-1
 1571 0 l 1,13,-1
 1571 190 l 2,14,15
 1571 289 1571 289 1537 329 c 128,-1,16
 1503 369 1503 369 1432 366 c 1,17,-1
 1426 364 l 1,18,-1
 1426 0 l 1,19,-1
 1089 0 l 1,20,-1
 1089 364 l 1,21,-1
 1083 366 l 1,22,23
 1005 370 1005 370 969 331 c 128,-1,24
 933 292 933 292 933 190 c 2,25,-1
 933 0 l 1,26,-1
 596 0 l 1,27,-1
 596 190 l 2,28,29
 596 386 596 386 692.5 487.5 c 128,-1,30
 789 589 789 589 976 611 c 1,31,-1
 703 1082 l 1,32,-1
 1818 1082 l 1,33,-1
 1544 609 l 1,8,9
1257 650 m 1,34,-1
 1263 650 l 1,35,-1
 1365 880 l 1,36,-1
 1155 880 l 1,37,-1
 1257 650 l 1,34,-1
EndSplineSet
Validated: 37
EndChar

StartChar: uni046E
Encoding: 1134 1134 538
Width: 1048
GlyphClass: 1
Flags: W
LayerCount: 2
Fore
SplineSet
377 880 m 2,0,1
 471 880 471 880 516 924.5 c 128,-1,2
 561 969 561 969 561 1043 c 0,3,4
 561 1113 561 1113 511 1149.5 c 128,-1,5
 461 1186 461 1186 357 1186 c 2,6,-1
 118 1186 l 1,7,-1
 118 1456 l 1,8,-1
 357 1456 l 2,9,10
 615 1456 615 1456 757 1365.5 c 128,-1,11
 899 1275 899 1275 899 1082 c 0,12,13
 899 957 899 957 841 873 c 128,-1,14
 783 789 783 789 676 745 c 1,15,16
 812 701 812 701 884 615.5 c 128,-1,17
 956 530 956 530 956 408 c 0,18,19
 956 205 956 205 815 92 c 128,-1,20
 674 -21 674 -21 435 -21 c 2,21,-1
 373 -21 l 2,22,23
 322 -21 322 -21 299 -44.5 c 128,-1,24
 276 -68 276 -68 276 -110 c 0,25,26
 276 -164 276 -164 315.5 -197.5 c 128,-1,27
 355 -231 355 -231 412 -255 c 1,28,-1
 330 -448 l 1,29,30
 144 -416 144 -416 59 -315 c 128,-1,31
 -26 -214 -26 -214 -28 -58 c 0,32,33
 -28 93 -28 93 68.5 171.5 c 128,-1,34
 165 250 165 250 336 250 c 2,35,-1
 411 250 l 2,36,37
 506 250 506 250 562 292.5 c 128,-1,38
 618 335 618 335 618 404 c 0,39,40
 618 503 618 503 553 556 c 128,-1,41
 488 609 488 609 366 609 c 2,42,-1
 223 609 l 1,43,-1
 223 880 l 1,44,-1
 377 880 l 2,0,1
574 1803 m 1,45,-1
 676 1919 l 1,46,-1
 985 1919 l 1,47,-1
 985 1903 l 1,48,-1
 693 1643 l 1,49,-1
 454 1643 l 1,50,-1
 160 1905 l 1,51,-1
 160 1919 l 1,52,-1
 472 1919 l 1,53,-1
 574 1803 l 1,45,-1
EndSplineSet
Validated: 1
EndChar

StartChar: uni046F
Encoding: 1135 1135 539
Width: 1057
GlyphClass: 1
Flags: W
LayerCount: 2
Fore
SplineSet
401 630 m 2,0,1
 474 630 474 630 508.5 663 c 128,-1,2
 543 696 543 696 543 752 c 0,3,4
 543 801 543 801 497 827 c 128,-1,5
 451 853 451 853 357 853 c 2,6,-1
 118 853 l 1,7,-1
 118 1082 l 1,8,-1
 357 1082 l 2,9,10
 607 1082 607 1082 744 1011.5 c 128,-1,11
 881 941 881 941 881 790 c 0,12,13
 881 700 881 700 836.5 638 c 128,-1,14
 792 576 792 576 709 540 c 1,15,16
 819 506 819 506 878 446 c 128,-1,17
 937 386 937 386 937 304 c 0,18,19
 937 151 937 151 807.5 65 c 128,-1,20
 678 -21 678 -21 457 -21 c 2,21,-1
 408 -21 l 2,22,23
 345 -21 345 -21 316.5 -44.5 c 128,-1,24
 288 -68 288 -68 288 -110 c 0,25,26
 288 -164 288 -164 321 -197.5 c 128,-1,27
 354 -231 354 -231 401 -255 c 1,28,-1
 319 -427 l 1,29,30
 177 -386 177 -386 92 -287.5 c 128,-1,31
 7 -189 7 -189 6 -58 c 0,32,33
 6 73 6 73 90.5 140.5 c 128,-1,34
 175 208 175 208 325 208 c 2,35,-1
 389 208 l 2,36,37
 486 208 486 208 543 239 c 128,-1,38
 600 270 600 270 600 320 c 0,39,40
 600 379 600 379 545.5 411 c 128,-1,41
 491 443 491 443 390 443 c 2,42,-1
 223 443 l 1,43,-1
 223 630 l 1,44,-1
 401 630 l 2,0,1
502 1459 m 1,45,-1
 604 1575 l 1,46,-1
 913 1575 l 1,47,-1
 913 1559 l 1,48,-1
 621 1299 l 1,49,-1
 382 1299 l 1,50,-1
 88 1561 l 1,51,-1
 88 1575 l 1,52,-1
 400 1575 l 1,53,-1
 502 1459 l 1,45,-1
EndSplineSet
Validated: 1
EndChar

StartChar: uni0472
Encoding: 1138 1138 542
Width: 1416
GlyphClass: 1
Flags: W
LayerCount: 2
Fore
SplineSet
1326 597 m 2,0,1
 1326 328 1326 328 1155.5 153.5 c 128,-1,2
 985 -21 985 -21 710 -21 c 0,3,4
 433 -21 433 -21 261 153.5 c 128,-1,5
 89 328 89 328 89 597 c 2,6,-1
 89 859 l 2,7,8
 89 1127 89 1127 260.5 1302 c 128,-1,9
 432 1477 432 1477 708 1477 c 0,10,11
 982 1477 982 1477 1154 1302 c 128,-1,12
 1326 1127 1326 1127 1326 859 c 2,13,-1
 1326 597 l 2,0,1
880 771 m 0,14,15
 904 771 904 771 935.5 790 c 128,-1,16
 967 809 967 809 989 839 c 1,17,-1
 989 861 l 2,18,19
 989 1017 989 1017 915.5 1117 c 128,-1,20
 842 1217 842 1217 708 1217 c 0,21,22
 571 1217 571 1217 498.5 1117.5 c 128,-1,23
 426 1018 426 1018 426 861 c 2,24,-1
 426 773 l 1,25,26
 452 821 452 821 495.5 849 c 128,-1,27
 539 877 539 877 599 877 c 0,28,29
 657 877 657 877 742.5 824 c 128,-1,30
 828 771 828 771 880 771 c 0,14,15
989 618 m 1,31,32
 960 584 960 584 921 566.5 c 128,-1,33
 882 549 882 549 834 549 c 0,34,35
 763 549 763 549 685 602.5 c 128,-1,36
 607 656 607 656 554 656 c 0,37,38
 514 656 514 656 473 614.5 c 128,-1,39
 432 573 432 573 431 520 c 1,40,41
 447 392 447 392 519 315.5 c 128,-1,42
 591 239 591 239 710 239 c 0,43,44
 843 239 843 239 916 339 c 128,-1,45
 989 439 989 439 989 597 c 2,46,-1
 989 618 l 1,31,32
EndSplineSet
Validated: 1
EndChar

